<?xml version="1.0" encoding="iso-8859-1"?>
<!-- Generator: Adobe Illustrator 19.0.0, SVG Export Plug-In . SVG Version: 6.00 Build 0)  -->
<svg version="1.1" id="Capa_1" xmlns="http://www.w3.org/2000/svg" xmlns:xlink="http://www.w3.org/1999/xlink" x="0px" y="0px"
  viewBox="0 0 53.01 53.01" style="enable-background:new 0 0 53.01 53.01;" xml:space="preserve">
<g>
  <g>
    <path d="M39.942,22.626c-1.179,2.299-3.569,3.879-6.326,3.879c-2.757,0-5.146-1.58-6.326-3.879H0v24.566h40.269
      c-1.325-1.575-2.128-3.603-2.128-5.818c0-4.324,3.051-7.945,7.111-8.836v-9.912H39.942z M22.626,42.667
      c-4.284,0-7.758-3.474-7.758-7.758s3.473-7.758,7.758-7.758c4.285,0,7.758,3.473,7.758,7.758S26.91,42.667,22.626,42.667z"/>
  </g>
</g>
<g>
  <g>
    <circle cx="47.19" cy="41.37" r="5.818"/>
  </g>
</g>
<g>
  <g>
    <circle cx="33.616" cy="19.394" r="3.879"/>
  </g>
</g>
<g>
  <g>
    <path d="M8.477,5.818L6.026,19.394h20.479c0-3.921,3.19-7.111,7.111-7.111c3.921,0,7.111,3.19,7.111,7.111h4.525h3.232v3.232v9.8
      c0.385,0.056,0.763,0.134,1.131,0.236l3.395-18.805L8.477,5.818z"/>
  </g>
</g>
<g>
</g>
<g>
</g>
<g>
</g>
<g>
</g>
<g>
</g>
<g>
</g>
<g>
</g>
<g>
</g>
<g>
</g>
<g>
</g>
<g>
</g>
<g>
</g>
<g>
</g>
<g>
</g>
<g>
</g>
</svg>
