<?xml version="1.0" encoding="iso-8859-1"?>
<!-- Generator: Adobe Illustrator 17.1.0, SVG Export Plug-In . SVG Version: 6.00 Build 0)  -->
<!DOCTYPE svg PUBLIC "-//W3C//DTD SVG 1.1//EN" "http://www.w3.org/Graphics/SVG/1.1/DTD/svg11.dtd">
<svg version="1.1" id="Capa_1" xmlns="http://www.w3.org/2000/svg" xmlns:xlink="http://www.w3.org/1999/xlink" x="0px" y="0px"
	 viewBox="0 0 297 297" style="enable-background:new 0 0 297 297;" xml:space="preserve">
<g>
	<polygon points="149.367,22.541 276.86,165 297,165 149.167,0 82.167,73.846 82.167,33 49.167,33 49.167,110.307 0,165 20.435,165 
			"/>
	<path d="M149.134,46.459L41.167,165.568V297h213V165h1.222L149.134,46.459z M103.343,226.533c-1.989,2.591-3.695,5.421-5.139,8.467
		H74.437c0-25,11.222-35.533,26.858-38.976c-7.738-4.54-12.938-13.063-12.938-22.683c0-14.439,11.705-26.206,26.144-26.206
		c10.188,0,19.009,5.816,23.323,14.312c-18.084,4.739-31.467,21.219-31.467,40.77c0,6.025,1.309,11.895,3.72,17.247
		C107.58,221.554,105.354,223.912,103.343,226.533z M135.295,225.024c-7.738-4.54-12.939-13.063-12.939-22.683
		c0-14.439,11.705-26.269,26.144-26.269s26.144,11.704,26.144,26.144c0,9.623-5.204,18.274-12.947,22.814
		c15.641,3.44,26.867,13.97,26.867,38.97h-80.127C108.437,239,119.658,228.467,135.295,225.024z M198.795,235
		c-1.444-3.047-3.152-5.878-5.144-8.47c-2.012-2.619-4.251-4.975-6.744-7.062c2.411-5.354,3.729-11.225,3.729-17.252
		c0-19.875-13.827-36.568-32.366-40.988c4.348-8.405,13.115-14.155,23.23-14.155c14.439,0,26.144,11.704,26.144,26.144
		c0,9.623-5.204,18.274-12.947,22.814c15.641,3.44,26.867,13.97,26.867,38.97H198.795z"/>
</g>
<g>
</g>
<g>
</g>
<g>
</g>
<g>
</g>
<g>
</g>
<g>
</g>
<g>
</g>
<g>
</g>
<g>
</g>
<g>
</g>
<g>
</g>
<g>
</g>
<g>
</g>
<g>
</g>
<g>
</g>
</svg>
