<svg id="Layer_1" data-name="Layer 1" xmlns="http://www.w3.org/2000/svg" viewBox="0 0 165.34 262.3"><defs><style>.cls-1{fill:#231f20;}</style></defs><title>snap</title><path class="cls-1" d="M374.6,488.76a161.85,161.85,0,0,0-2.06-19.18c-.37-2.5-.75-5.08-1.08-7.63q-.63-4.84-1.27-9.69c-1-7.82-2.1-15.92-3-23.89-.3-2.77-.78-5.55-1.24-8.24-.55-3.18-1.12-6.47-1.39-9.76-.75-8.91-2-18.37-4.14-30.67a17.49,17.49,0,0,0-7-11.5,16.39,16.39,0,0,0-12.36-2.68c-9.45,1.64-15.38,9.8-14.41,19.84.65,6.75,1,13.64,1.39,20.3.14,2.53.28,5,.43,7.58.12,1.92.29,3.88.46,5.78a88.54,88.54,0,0,1,.48,15.06,39.23,39.23,0,0,0-7.94-5.8,50.32,50.32,0,0,1-5.35-3.58l-4.83-3.93-.18-.1a17.27,17.27,0,0,1-5.87-3.5c-.71-.56-1.45-1.15-2.2-1.67-19.29-13.43-38.81-27.19-57.69-40.5l-8-5.67c-6.36-4.48-13.2-4.74-19.78-.77a16.64,16.64,0,0,0-8.25,13.76,18.37,18.37,0,0,0,7.91,15.57c2.6,1.86,5.3,3.7,7.9,5.47C230.43,407,235.94,410.73,241,415l8.5,5.58-8,6-.06.12c-3.14,7.12-5.18,14.72,1.11,22,.52.6.54.87.52,1s-.5.44-.9.64c-.21.11-.42.21-.63.34-5.33,3.13-8.62,7-9.76,11.52s-.13,9.3,3,14.43c.59,1,1,1.6.84,2s-.55.77-1.44,1.29c-5.9,3.46-9.43,8.85-9.68,14.79s2.8,11.57,8.36,15.51c17.66,12.48,36.48,25.75,55.19,38.61a45.92,45.92,0,0,0,26,8.32,42.56,42.56,0,0,0,7.55-.67,45.35,45.35,0,0,0,28.82-18.83q3.75-5.29,7.44-10.63c2.8-4,5.7-8.2,8.6-12.26A42,42,0,0,0,374.6,488.76Zm-114-58.38.08.09.12,0c3.15,1.19,5.79,3.31,8.34,5.36,1.16.94,2.36,1.9,3.61,2.78,6.19,4.35,12.56,8.67,18.72,12.84q4.41,3,8.81,6l.78.53a44.48,44.48,0,0,1,4,2.94c3.71,3.15,4.45,8,1.8,11.83-3,4.39-8.49,5.7-12.41,3-11.67-8-23.43-16.32-34.81-24.34l-10.06-7.09a1.67,1.67,0,0,1-.14-.32,3,3,0,0,0-.13-.36l-.07-.11c-1.84-2.18-3.16-4.07-2.14-6.71l0-.13c.55-5.67,2.61-7.59,8.73-8.2C258.12,428.59,259.57,429.16,260.63,430.38Zm-10.67,27h.13a9.36,9.36,0,0,1,4.49,2q6.66,4.71,13.35,9.39c6.58,4.62,13.38,9.4,20,14.16a10.13,10.13,0,0,1,4.49,6.4,8.87,8.87,0,0,1-1.84,6.68c-3.17,4.43-8.23,5.23-12.88,2-10.21-7-21-14.54-33.87-23.72-4-2.82-5.22-6.53-3.63-10.74s4.58-6.1,9.69-6.19Zm-7.6,29c2.17-.34,4.11.85,5.9,2.09q6,4.15,11.95,8.34t12.18,8.51c3.85,2.67,5.14,6.3,3.86,10.78-1,3.39-6.68,7.09-10,7.14-.5,0-.7-.21-1.07-.61a3.91,3.91,0,0,0-.63-.58l-7.23-5c-6.8-4.64-13.83-9.45-20.64-14.31-3.76-2.7-5-6.38-3.35-10.38s4.48-6,8.53-6h.46Zm43.18,24.08c-.17-1.63.45-1.81,2.11-2.29,9.85-2.86,14.65-10.18,13.16-20.07-.32-2.15.14-2.47,2.26-2.89,7.71-1.52,12.76-6.63,14.22-14.38,1.42-7.57-1.25-13.88-7.72-18.27-1.11-.74-2.19-1.57-3.25-2.37a33.2,33.2,0,0,0-8.09-5c-1.83-.56-3.38-1.18-3.79-3.14l0-.16-.12-.11a31.29,31.29,0,0,0-5.06-3.43,22.18,22.18,0,0,1-6.34-4.79l-.1-.09c-.57-.39-1.15-.76-1.72-1.13a28.92,28.92,0,0,1-3.44-2.42l.21.05-1.57-1.42-.31.3.12-.41a9.9,9.9,0,0,1-3.58-2.22c-.42-.35-.85-.71-1.29-1l-.15-.1h-.18c-2.05.12-3-.58-3.17-2.34l0-.3-.28-.11a31.15,31.15,0,0,1-6.77-4.29,48,48,0,0,0-4.32-3q-5-3.45-10-6.89c-8-5.52-16.26-11.23-24.34-16.92a10.35,10.35,0,0,1-4.45-6.64,8.72,8.72,0,0,1,1.59-6.55c3.3-4.58,8.72-5.25,13.81-1.7q22.92,16,45.81,32l17,11.89,6.33,4.54c2,1.41,4,2.78,6,4.11a100.35,100.35,0,0,1,13.67,10.34l.16.09.55.22c.94.37,1.76.68,2.08,1.65l.1.32.33,0c2,.15,3.43,1.38,4.86,2.57l.76.63c3.27,2.63,6.14,2.45,8.76-.55l.12-.14.18-6.3v-.07c-1.17-4.26-1.19-8.72-1.22-13a75.2,75.2,0,0,0-.44-9.21c-.83-6.26-1.35-12.68-1.86-18.89-.29-3.68-.6-7.48-1-11.22-.47-4.75.42-10.65,7.36-11.74,5.23-.83,8.9,2.6,10.07,9.4,1.88,11,3.41,22.69,4.67,35.82l.62,4.9a99.27,99.27,0,0,1,2.32,15l.13,5.23,0,.13a102.74,102.74,0,0,1,2.8,16.58c.31,2.74.62,5.57,1.05,8.34,1,6.38,1.76,12.86,2.29,19.28.6,7.17-1.46,14.13-6.31,21.29-5.32,7.87-10.91,15.68-16.65,23.65-11.95,16.6-33.68,20.47-50.54,9-4.22-2.86-8.32-5.78-12.65-8.86L275,529.59C282.88,525.59,286.44,519.17,285.54,510.48Z" transform="translate(-209.28 -294.87)"/><path class="cls-1" d="M282.71,309.07c.53,9.61,1.07,19.55,1.54,29.32.17,3.46,2.22,5.53,5.5,5.54h0a5.24,5.24,0,0,0,3.9-1.49,6.24,6.24,0,0,0,1.47-4.68c-.1-2.27-.23-4.54-.36-6.81-.07-1.22-.14-2.43-.2-3.65q-.17-3.56-.31-7.11c-.27-6.33-.56-12.86-1-19.29a6.81,6.81,0,0,0-2.07-4.88,5.36,5.36,0,0,0-4.15-1.11c-2.33.22-5.06,1.56-4.78,6.65Z" transform="translate(-209.28 -294.87)"/><path class="cls-1" d="M317.29,357.11a6.07,6.07,0,0,0,1.82.3c2,0,3.59-1.19,4.8-3.56l2.67-5.28c4.5-8.88,9.16-18.06,13.79-27.05,1.16-2.26,1.47-4.11,1-5.66a5.39,5.39,0,0,0-3-3c-3.19-1.53-5.8-.33-7.77,3.57-3,6.08-6.2,12.23-9.25,18.18q-3.37,6.63-6.75,13.25a15.11,15.11,0,0,0-.95,2.54c-.08.25-.15.47-.21.64l0,.16C313.37,354.34,314.64,356.29,317.29,357.11Z" transform="translate(-209.28 -294.87)"/><path class="cls-1" d="M247.54,342.43q5.06,7.72,10.14,15.41a5.27,5.27,0,0,0,4.54,2.59,7.41,7.41,0,0,0,2.15-.35c2.16-.67,3.29-2.39,3.38-5.12a6.71,6.71,0,0,0-1.38-4c-6.27-9.55-13-19.75-19.6-30.06-2.94-4.56-6.08-3.9-8.2-2.54-3,1.92-3.37,5-1.07,8.56C240.81,332.12,244.14,337.22,247.54,342.43Z" transform="translate(-209.28 -294.87)"/></svg>