<?xml version="1.0" encoding="iso-8859-1"?>
<!-- Generator: Adobe Illustrator 19.0.0, SVG Export Plug-In . SVG Version: 6.00 Build 0)  -->
<svg version="1.1" id="Capa_1" xmlns="http://www.w3.org/2000/svg" xmlns:xlink="http://www.w3.org/1999/xlink" x="0px" y="0px"
	 viewBox="0 0 512.003 512.003" style="enable-background:new 0 0 512.003 512.003;" xml:space="preserve">
<g>
	<path style="fill:#BEF2FF;" d="M285.853,427.74v-25.987c0-71.765-58.169-129.933-129.933-129.933l0,0
		c-71.765,0-129.933,58.169-129.933,129.933v25.987H285.853z"/>
	<circle style="fill:#BEF2FF;" cx="156.752" cy="173.174" r="88.978"/>
</g>
<path style="fill:#4F7097;" d="M227.643,263.504c49.853-39.323,58.387-111.618,19.053-161.46S135.089,43.657,85.236,82.98
	S26.849,194.598,66.183,244.451c5.582,7.079,11.975,13.471,19.053,19.053C33.169,289.979,0.27,343.345,0,401.753v25.987
	c0,14.355,11.632,25.987,25.987,25.987h259.867c14.355,0,25.987-11.632,25.987-25.987v-25.987
	C311.767,343.574,279.305,290.27,227.643,263.504z M156.752,110.183c34.791,0.114,62.898,28.409,62.784,63.2
	s-28.409,62.898-63.2,62.784c-34.749-0.114-62.836-28.346-62.784-63.096C93.666,138.269,121.95,110.131,156.752,110.183z
	 M51.973,401.753c0-57.41,46.537-103.947,103.947-103.947s103.947,46.537,103.947,103.947H51.973z"/>
<g>
	<path style="fill:#BEF2FF;" d="M467.76,235.438H353.419c-14.355,0-25.987-11.632-25.987-25.987
		c0-14.355,11.632-25.987,25.987-25.987H467.76c14.355,0,25.987,11.632,25.987,25.987
		C493.747,223.807,482.115,235.438,467.76,235.438z"/>
	<path style="fill:#BEF2FF;" d="M426.182,303.004c-14.355,0-25.987-11.632-25.997-25.976c0-6.362,2.328-12.505,6.559-17.266
		l44.489-50.31l-44.489-50.31c-9.501-10.769-8.482-27.192,2.287-36.693c10.769-9.501,27.192-8.482,36.693,2.287l59.769,67.565
		c8.68,9.823,8.68,24.583,0,34.406l-59.769,67.565C440.776,299.865,433.655,303.045,426.182,303.004z"/>
</g>
<g>
</g>
<g>
</g>
<g>
</g>
<g>
</g>
<g>
</g>
<g>
</g>
<g>
</g>
<g>
</g>
<g>
</g>
<g>
</g>
<g>
</g>
<g>
</g>
<g>
</g>
<g>
</g>
<g>
</g>
</svg>
