<?xml version="1.0" encoding="iso-8859-1"?>
<!-- Generator: Adobe Illustrator 17.1.0, SVG Export Plug-In . SVG Version: 6.00 Build 0)  -->
<!DOCTYPE svg PUBLIC "-//W3C//DTD SVG 1.1//EN" "http://www.w3.org/Graphics/SVG/1.1/DTD/svg11.dtd">
<svg version="1.1" id="Capa_1" xmlns="http://www.w3.org/2000/svg" xmlns:xlink="http://www.w3.org/1999/xlink" x="0px" y="0px"
	 viewBox="0 0 344.75 344.75" style="enable-background:new 0 0 344.75 344.75;" xml:space="preserve">
<g>
	<path d="M103.25,35.266V35.25c0-0.091-0.01-0.178-0.014-0.268c-0.006-0.148-0.008-0.296-0.022-0.443
		c-0.021-0.233-0.057-0.462-0.099-0.688c-0.001-0.005-0.002-0.01-0.003-0.015c-0.661-3.466-3.703-6.087-7.362-6.087h-60
		c-2.284,0-4.326,1.024-5.701,2.635L2.2,58.192c-0.009,0.009-0.016,0.018-0.024,0.027c-0.166,0.167-0.324,0.341-0.473,0.522
		c-0.075,0.091-0.141,0.187-0.21,0.28c-0.077,0.103-0.156,0.203-0.229,0.31c-0.072,0.108-0.136,0.222-0.201,0.333
		c-0.06,0.099-0.122,0.195-0.177,0.297c-0.06,0.113-0.111,0.229-0.166,0.345c-0.05,0.107-0.104,0.211-0.148,0.32
		c-0.047,0.113-0.085,0.229-0.126,0.344C0.405,61.087,0.36,61.2,0.324,61.318c-0.035,0.117-0.06,0.235-0.09,0.352
		c-0.03,0.12-0.065,0.237-0.088,0.359c-0.028,0.141-0.045,0.282-0.065,0.423c-0.014,0.102-0.033,0.2-0.044,0.303
		C0.013,63.003,0,63.251,0,63.5l0,0v246c0,4.143,3.357,7.5,7.5,7.5h60c0.247,0,0.493-0.013,0.739-0.037
		c0.114-0.012,0.225-0.033,0.339-0.049c0.129-0.019,0.258-0.034,0.386-0.059c0.129-0.026,0.255-0.062,0.381-0.094
		c0.11-0.027,0.222-0.052,0.33-0.085c0.125-0.037,0.245-0.084,0.367-0.128c0.108-0.039,0.218-0.074,0.325-0.119
		c0.115-0.048,0.226-0.103,0.338-0.156c0.109-0.052,0.22-0.1,0.327-0.158c0.107-0.057,0.21-0.123,0.314-0.186
		c0.105-0.063,0.213-0.123,0.315-0.191c0.111-0.074,0.216-0.156,0.322-0.236c0.09-0.067,0.182-0.13,0.269-0.201
		c0.151-0.124,0.296-0.258,0.437-0.395c0.037-0.034,0.076-0.065,0.111-0.1l28.25-28.219c1.469-1.469,2.201-3.395,2.198-5.319
		c0-0.007,0.001-0.013,0.001-0.019V35.275C103.25,35.272,103.25,35.269,103.25,35.266z M88.25,278.172L75,291.406V66.628
		l13.25-13.25V278.172z M38.896,42.75h38.768L64.413,56H25.626L38.896,42.75z M60,302H15V71h45V302z"/>
	<path d="M223.75,215.266v-0.016c0-0.091-0.01-0.178-0.014-0.268c-0.006-0.148-0.008-0.296-0.022-0.443
		c-0.021-0.232-0.057-0.462-0.099-0.688c-0.001-0.005-0.002-0.01-0.003-0.015c-0.661-3.466-3.703-6.087-7.362-6.087h-60
		c-2.284,0-4.326,1.024-5.701,2.635L122.7,238.192c-0.009,0.009-0.016,0.019-0.024,0.027c-0.166,0.167-0.324,0.341-0.473,0.523
		c-0.075,0.091-0.141,0.186-0.21,0.28c-0.077,0.102-0.156,0.203-0.229,0.309c-0.072,0.108-0.136,0.222-0.201,0.333
		c-0.06,0.099-0.122,0.195-0.177,0.297c-0.061,0.113-0.111,0.23-0.166,0.345c-0.05,0.107-0.104,0.211-0.148,0.32
		c-0.047,0.113-0.085,0.229-0.126,0.344c-0.041,0.116-0.086,0.229-0.122,0.348c-0.035,0.117-0.061,0.235-0.09,0.352
		c-0.03,0.12-0.064,0.237-0.088,0.359c-0.028,0.141-0.045,0.282-0.065,0.423c-0.014,0.102-0.033,0.2-0.044,0.303
		c-0.024,0.247-0.037,0.495-0.037,0.744l0,0v66c0,4.143,3.357,7.5,7.5,7.5h60c0.247,0,0.493-0.013,0.739-0.037
		c0.114-0.012,0.225-0.033,0.339-0.049c0.129-0.019,0.258-0.034,0.386-0.059c0.129-0.026,0.255-0.062,0.381-0.094
		c0.11-0.027,0.222-0.052,0.33-0.085c0.125-0.037,0.245-0.084,0.367-0.128c0.108-0.039,0.218-0.074,0.325-0.119
		c0.115-0.048,0.226-0.103,0.338-0.156c0.109-0.052,0.22-0.1,0.327-0.158c0.107-0.057,0.21-0.123,0.314-0.186
		c0.105-0.063,0.213-0.123,0.315-0.191c0.111-0.074,0.216-0.156,0.322-0.236c0.09-0.067,0.182-0.13,0.268-0.201
		c0.151-0.124,0.296-0.258,0.437-0.395c0.037-0.034,0.076-0.065,0.111-0.1l28.25-28.219c1.469-1.469,2.201-3.395,2.198-5.319
		c0-0.007,0.001-0.013,0.001-0.019v-65.975C223.75,215.273,223.75,215.269,223.75,215.266z M208.75,278.172l-13.25,13.234v-44.778
		l13.25-13.25V278.172z M159.395,222.75h38.768L184.913,236h-38.787L159.395,222.75z M180.5,302h-45v-51h45V302z"/>
	<path d="M344.75,95.275c0-0.003,0-0.007,0-0.01V95.25c0-0.091-0.01-0.178-0.014-0.268c-0.006-0.148-0.008-0.296-0.022-0.443
		c-0.021-0.232-0.057-0.462-0.099-0.688c-0.001-0.005-0.002-0.01-0.003-0.015c-0.661-3.466-3.703-6.087-7.362-6.087h-60
		c-2.284,0-4.326,1.024-5.701,2.635L243.7,118.192c-0.009,0.009-0.016,0.019-0.024,0.027c-0.166,0.167-0.324,0.341-0.473,0.522
		c-0.075,0.091-0.141,0.187-0.21,0.28c-0.077,0.103-0.156,0.203-0.229,0.31c-0.072,0.108-0.136,0.222-0.201,0.333
		c-0.06,0.099-0.122,0.195-0.177,0.297c-0.061,0.113-0.111,0.229-0.166,0.345c-0.05,0.106-0.104,0.211-0.148,0.32
		c-0.047,0.113-0.085,0.229-0.126,0.344c-0.041,0.116-0.086,0.229-0.122,0.348c-0.035,0.117-0.061,0.235-0.09,0.353
		c-0.03,0.12-0.064,0.237-0.088,0.359c-0.028,0.141-0.045,0.282-0.065,0.423c-0.014,0.102-0.033,0.2-0.044,0.303
		c-0.024,0.247-0.037,0.495-0.037,0.744l0,0v186c0,4.143,3.357,7.5,7.5,7.5h60c0.247,0,0.493-0.013,0.739-0.037
		c0.114-0.012,0.226-0.033,0.339-0.049c0.129-0.019,0.258-0.034,0.386-0.059c0.129-0.026,0.255-0.062,0.381-0.094
		c0.11-0.027,0.222-0.052,0.33-0.085c0.125-0.037,0.245-0.084,0.367-0.128c0.108-0.039,0.218-0.074,0.325-0.119
		c0.115-0.048,0.226-0.103,0.338-0.156c0.109-0.052,0.22-0.1,0.327-0.158c0.107-0.057,0.21-0.123,0.315-0.186
		c0.105-0.063,0.213-0.123,0.315-0.191c0.111-0.074,0.216-0.156,0.322-0.236c0.09-0.067,0.182-0.13,0.268-0.201
		c0.151-0.124,0.296-0.258,0.437-0.395c0.037-0.034,0.076-0.065,0.111-0.1l28.25-28.219c1.469-1.469,2.201-3.395,2.198-5.319
		c0-0.007,0.001-0.013,0.001-0.019V95.275z M280.396,102.75h38.768L305.913,116h-38.787L280.396,102.75z M316.5,126.628l13.25-13.25
		v164.794l-13.25,13.234V126.628z M301.5,302h-45V131h45V302z"/>
</g>
<g>
</g>
<g>
</g>
<g>
</g>
<g>
</g>
<g>
</g>
<g>
</g>
<g>
</g>
<g>
</g>
<g>
</g>
<g>
</g>
<g>
</g>
<g>
</g>
<g>
</g>
<g>
</g>
<g>
</g>
</svg>
