<?xml version="1.0" encoding="iso-8859-1"?>
<!-- Generator: Adobe Illustrator 17.1.0, SVG Export Plug-In . SVG Version: 6.00 Build 0)  -->
<!DOCTYPE svg PUBLIC "-//W3C//DTD SVG 1.1//EN" "http://www.w3.org/Graphics/SVG/1.1/DTD/svg11.dtd">
<svg version="1.1" id="Capa_1" xmlns="http://www.w3.org/2000/svg" xmlns:xlink="http://www.w3.org/1999/xlink" x="0px" y="0px"
	 viewBox="0 0 425 425" style="enable-background:new 0 0 425 425;" xml:space="preserve">
<g>
	<path d="M369.656,7.5c0-4.142-3.358-7.5-7.5-7.5H62.844c-4.142,0-7.5,3.358-7.5,7.5v410c0,4.142,3.358,7.5,7.5,7.5h206.694
		c0.014,0,0.027-0.002,0.04-0.002c0.234-0.001,0.468-0.012,0.7-0.035c0.155-0.016,0.307-0.043,0.46-0.068
		c0.088-0.014,0.176-0.023,0.264-0.04c0.18-0.035,0.354-0.083,0.529-0.131c0.06-0.017,0.12-0.028,0.179-0.046
		c0.176-0.053,0.347-0.117,0.518-0.183c0.058-0.022,0.117-0.04,0.174-0.063c0.161-0.067,0.316-0.143,0.471-0.22
		c0.065-0.032,0.132-0.061,0.196-0.095c0.144-0.077,0.282-0.164,0.42-0.249c0.071-0.044,0.144-0.083,0.213-0.13
		c0.137-0.092,0.267-0.192,0.397-0.293c0.065-0.049,0.132-0.094,0.195-0.146c0.191-0.157,0.374-0.322,0.549-0.497l92.615-92.614
		c0.237-0.237,0.453-0.496,0.657-0.763c0.045-0.059,0.089-0.117,0.132-0.177c0.192-0.267,0.371-0.544,0.526-0.836
		c0.01-0.02,0.019-0.039,0.028-0.059c0.145-0.276,0.268-0.564,0.378-0.858c0.022-0.06,0.044-0.118,0.065-0.178
		c0.107-0.314,0.2-0.633,0.266-0.963c0.002-0.012,0.003-0.025,0.006-0.038c0.058-0.301,0.093-0.608,0.114-0.92
		c0.006-0.088,0.01-0.176,0.013-0.264c0.003-0.083,0.013-0.165,0.013-0.249V7.5z M70.344,15h284.312v302.383h-85.118
		c-4.142,0-7.5,3.358-7.5,7.5V410H70.344V15z M277.038,399.394v-67.011h67.011L277.038,399.394z"/>
	<path d="M109.345,65.746h206.31c4.142,0,7.5-3.358,7.5-7.5s-3.358-7.5-7.5-7.5h-206.31c-4.142,0-7.5,3.358-7.5,7.5
		S105.203,65.746,109.345,65.746z"/>
	<path d="M109.345,126.188h135.391c4.142,0,7.5-3.358,7.5-7.5s-3.358-7.5-7.5-7.5H109.345c-4.142,0-7.5,3.358-7.5,7.5
		S105.203,126.188,109.345,126.188z"/>
	<path d="M109.345,186.631h188.58c4.142,0,7.5-3.358,7.5-7.5c0-4.142-3.358-7.5-7.5-7.5h-188.58c-4.142,0-7.5,3.358-7.5,7.5
		C101.845,183.273,105.203,186.631,109.345,186.631z"/>
	<path d="M280.196,247.073c4.142,0,7.5-3.358,7.5-7.5c0-4.142-3.358-7.5-7.5-7.5H109.345c-4.142,0-7.5,3.358-7.5,7.5
		c0,4.142,3.358,7.5,7.5,7.5H280.196z"/>
</g>
<g>
</g>
<g>
</g>
<g>
</g>
<g>
</g>
<g>
</g>
<g>
</g>
<g>
</g>
<g>
</g>
<g>
</g>
<g>
</g>
<g>
</g>
<g>
</g>
<g>
</g>
<g>
</g>
<g>
</g>
</svg>
