<?xml version="1.0" encoding="iso-8859-1"?>
<!-- Generator: Adobe Illustrator 17.1.0, SVG Export Plug-In . SVG Version: 6.00 Build 0)  -->
<!DOCTYPE svg PUBLIC "-//W3C//DTD SVG 1.1//EN" "http://www.w3.org/Graphics/SVG/1.1/DTD/svg11.dtd">
<svg version="1.1" id="Capa_1" xmlns="http://www.w3.org/2000/svg" xmlns:xlink="http://www.w3.org/1999/xlink" x="0px" y="0px"
	 viewBox="0 0 307.333 307.333" style="enable-background:new 0 0 307.333 307.333;" xml:space="preserve">
<g>
	<path d="M72.831,26.406c-16.114,0-29.224,13.11-29.224,29.224v5.395c-1.159,0.343-2.253,0.973-3.168,1.888
		c-2.929,2.929-2.929,7.678,0.001,10.607l5.36,5.36c0.176,0.176,0.361,0.343,0.554,0.501c0.085,0.07,0.175,0.13,0.262,0.195
		c0.108,0.081,0.214,0.165,0.327,0.241c0.107,0.071,0.217,0.133,0.326,0.198c0.101,0.06,0.199,0.124,0.303,0.179
		c0.112,0.06,0.228,0.111,0.343,0.165c0.106,0.05,0.212,0.104,0.322,0.149c0.111,0.046,0.225,0.083,0.338,0.124
		c0.118,0.042,0.234,0.087,0.355,0.124c0.112,0.034,0.226,0.059,0.339,0.087c0.124,0.031,0.246,0.066,0.373,0.091
		c0.13,0.026,0.262,0.041,0.393,0.06c0.111,0.016,0.221,0.037,0.332,0.048c0.246,0.024,0.493,0.037,0.74,0.037
		c0.247,0,0.494-0.013,0.74-0.037c0.111-0.011,0.221-0.032,0.332-0.048c0.131-0.019,0.263-0.034,0.393-0.06
		c0.127-0.025,0.249-0.06,0.373-0.091c0.113-0.028,0.226-0.053,0.339-0.087c0.121-0.037,0.238-0.082,0.356-0.125
		c0.112-0.04,0.226-0.077,0.337-0.123c0.11-0.046,0.216-0.1,0.323-0.15c0.114-0.054,0.23-0.104,0.342-0.164
		c0.103-0.056,0.202-0.119,0.303-0.179c0.109-0.065,0.22-0.126,0.326-0.198c0.113-0.076,0.219-0.16,0.327-0.241
		c0.087-0.066,0.177-0.126,0.262-0.195c0.192-0.158,0.378-0.325,0.554-0.501l5.36-5.36c2.93-2.929,2.93-7.678,0.001-10.607
		c-0.915-0.915-2.008-1.544-3.168-1.888V55.63c0-7.843,6.381-14.224,14.224-14.224c4.143,0,7.5-3.358,7.5-7.5
		C80.331,29.764,76.974,26.406,72.831,26.406z"/>
	<path d="M202.166,279.833c-4.143,0-7.5,3.358-7.5,7.5v5h-5c-4.143,0-7.5,3.358-7.5,7.5c0,4.142,3.357,7.5,7.5,7.5h12.5
		c4.143,0,7.5-3.358,7.5-7.5v-12.5C209.666,283.191,206.309,279.833,202.166,279.833z"/>
	<path d="M165.428,292.333h-24.238c-4.143,0-7.5,3.358-7.5,7.5c0,4.142,3.357,7.5,7.5,7.5h24.238c4.143,0,7.5-3.358,7.5-7.5
		C172.928,295.691,169.57,292.333,165.428,292.333z"/>
	<path d="M68.476,292.333H44.237c-4.143,0-7.5,3.358-7.5,7.5c0,4.142,3.357,7.5,7.5,7.5h24.238c4.143,0,7.5-3.358,7.5-7.5
		C75.976,295.691,72.618,292.333,68.476,292.333z"/>
	<path d="M116.952,292.333H92.714c-4.143,0-7.5,3.358-7.5,7.5c0,4.142,3.357,7.5,7.5,7.5h24.238c4.143,0,7.5-3.358,7.5-7.5
		C124.452,295.691,121.095,292.333,116.952,292.333z"/>
	<path d="M20,292.333h-5v-5c0-4.142-3.358-7.5-7.5-7.5c-4.143,0-7.5,3.358-7.5,7.5v12.5c0,4.142,3.357,7.5,7.5,7.5H20
		c4.142,0,7.5-3.358,7.5-7.5C27.5,295.691,24.142,292.333,20,292.333z"/>
	<path d="M7.5,270.595c4.142,0,7.5-3.358,7.5-7.5v-24.238c0-4.142-3.358-7.5-7.5-7.5c-4.143,0-7.5,3.358-7.5,7.5v24.238
		C0,267.237,3.357,270.595,7.5,270.595z"/>
	<path d="M7.5,222.119c4.142,0,7.5-3.358,7.5-7.5V190.38c0-4.142-3.358-7.5-7.5-7.5c-4.143,0-7.5,3.358-7.5,7.5v24.238
		C0,218.761,3.357,222.119,7.5,222.119z"/>
	<path d="M7.5,173.643c4.142,0,7.5-3.358,7.5-7.5v-24.238c0-4.142-3.358-7.5-7.5-7.5c-4.143,0-7.5,3.358-7.5,7.5v24.238
		C0,170.285,3.357,173.643,7.5,173.643z"/>
	<path d="M20,97.666H7.5c-4.143,0-7.5,3.358-7.5,7.5v12.5c0,4.142,3.357,7.5,7.5,7.5c4.142,0,7.5-3.358,7.5-7.5v-5h5
		c4.142,0,7.5-3.358,7.5-7.5C27.5,101.024,24.142,97.666,20,97.666z"/>
	<path d="M141.19,112.666h24.238c4.143,0,7.5-3.358,7.5-7.5c0-4.142-3.357-7.5-7.5-7.5H141.19c-4.143,0-7.5,3.358-7.5,7.5
		C133.69,109.309,137.048,112.666,141.19,112.666z"/>
	<path d="M68.477,97.666H44.238c-4.143,0-7.5,3.358-7.5,7.5c0,4.142,3.357,7.5,7.5,7.5h24.238c4.143,0,7.5-3.358,7.5-7.5
		C75.977,101.024,72.619,97.666,68.477,97.666z"/>
	<path d="M189.666,112.666h5v5c0,4.142,3.357,7.5,7.5,7.5c4.143,0,7.5-3.358,7.5-7.5v-12.5c0-4.142-3.357-7.5-7.5-7.5h-12.5
		c-4.143,0-7.5,3.358-7.5,7.5C182.166,109.309,185.523,112.666,189.666,112.666z"/>
	<path d="M202.166,134.404c-4.143,0-7.5,3.358-7.5,7.5v24.238c0,4.142,3.357,7.5,7.5,7.5c4.143,0,7.5-3.358,7.5-7.5v-24.238
		C209.666,137.762,206.309,134.404,202.166,134.404z"/>
	<path d="M202.166,231.356c-4.143,0-7.5,3.358-7.5,7.5v24.238c0,4.142,3.357,7.5,7.5,7.5c4.143,0,7.5-3.358,7.5-7.5v-24.238
		C209.666,234.714,206.309,231.356,202.166,231.356z"/>
	<path d="M299.833,0H105.167c-4.143,0-7.5,3.358-7.5,7.5v90.166h-4.953c-4.143,0-7.5,3.358-7.5,7.5c0,4.142,3.357,7.5,7.5,7.5h4.953
		v89.5c0,4.142,3.357,7.5,7.5,7.5h89.499v4.952c0,4.142,3.357,7.5,7.5,7.5c4.143,0,7.5-3.358,7.5-7.5v-4.952h90.167
		c4.142,0,7.5-3.358,7.5-7.5V7.5C307.333,3.358,303.975,0,299.833,0z M292.333,194.667h-82.667v-4.286c0-4.142-3.357-7.5-7.5-7.5
		c-4.143,0-7.5,3.358-7.5,7.5v4.286h-81.999v-82h4.285c4.143,0,7.5-3.358,7.5-7.5c0-4.142-3.357-7.5-7.5-7.5h-4.285V15h179.666
		V194.667z"/>
</g>
<g>
</g>
<g>
</g>
<g>
</g>
<g>
</g>
<g>
</g>
<g>
</g>
<g>
</g>
<g>
</g>
<g>
</g>
<g>
</g>
<g>
</g>
<g>
</g>
<g>
</g>
<g>
</g>
<g>
</g>
</svg>
