<?xml version="1.0" encoding="iso-8859-1"?>
<!-- Generator: Adobe Illustrator 17.1.0, SVG Export Plug-In . SVG Version: 6.00 Build 0)  -->
<!DOCTYPE svg PUBLIC "-//W3C//DTD SVG 1.1//EN" "http://www.w3.org/Graphics/SVG/1.1/DTD/svg11.dtd">
<svg version="1.1" id="Capa_1" xmlns="http://www.w3.org/2000/svg" xmlns:xlink="http://www.w3.org/1999/xlink" x="0px" y="0px"
	 viewBox="0 0 429 429" style="enable-background:new 0 0 429 429;" xml:space="preserve">
<g>
	<path d="M86.5,238.144c4.142,0,7.5-3.357,7.5-7.5v-32.286c0-4.143-3.358-7.5-7.5-7.5c-4.142,0-7.5,3.357-7.5,7.5v32.286
		C79,234.786,82.358,238.144,86.5,238.144z"/>
	<path d="M86.5,302.715c4.142,0,7.5-3.357,7.5-7.5v-32.286c0-4.143-3.358-7.5-7.5-7.5c-4.142,0-7.5,3.357-7.5,7.5v32.286
		C79,299.357,82.358,302.715,86.5,302.715z"/>
	<path d="M86.5,173.572c4.142,0,7.5-3.357,7.5-7.5v-32.286c0-4.143-3.358-7.5-7.5-7.5c-4.142,0-7.5,3.357-7.5,7.5v32.286
		C79,170.215,82.358,173.572,86.5,173.572z"/>
	<path d="M86.5,109c4.142,0,7.5-3.357,7.5-7.5V94h7.5c4.142,0,7.5-3.357,7.5-7.5s-3.358-7.5-7.5-7.5h-15c-4.142,0-7.5,3.357-7.5,7.5
		v15C79,105.643,82.358,109,86.5,109z"/>
	<path d="M198.357,94h32.286c4.142,0,7.5-3.357,7.5-7.5s-3.358-7.5-7.5-7.5h-32.286c-4.142,0-7.5,3.357-7.5,7.5
		S194.215,94,198.357,94z"/>
	<path d="M262.929,94h32.286c4.142,0,7.5-3.357,7.5-7.5s-3.358-7.5-7.5-7.5h-32.286c-4.142,0-7.5,3.357-7.5,7.5
		S258.787,94,262.929,94z"/>
	<path d="M133.786,94h32.286c4.142,0,7.5-3.357,7.5-7.5s-3.358-7.5-7.5-7.5h-32.286c-4.142,0-7.5,3.357-7.5,7.5
		S129.644,94,133.786,94z"/>
	<path d="M327.5,94h7.5v7.5c0,4.143,3.358,7.5,7.5,7.5c4.142,0,7.5-3.357,7.5-7.5v-15c0-4.143-3.358-7.5-7.5-7.5h-15
		c-4.142,0-7.5,3.357-7.5,7.5S323.358,94,327.5,94z"/>
	<path d="M342.5,190.856c-4.142,0-7.5,3.357-7.5,7.5v32.286c0,4.143,3.358,7.5,7.5,7.5c4.142,0,7.5-3.357,7.5-7.5v-32.286
		C350,194.214,346.642,190.856,342.5,190.856z"/>
	<path d="M342.5,255.428c-4.142,0-7.5,3.357-7.5,7.5v32.286c0,4.143,3.358,7.5,7.5,7.5c4.142,0,7.5-3.357,7.5-7.5v-32.286
		C350,258.785,346.642,255.428,342.5,255.428z"/>
	<path d="M342.5,126.285c-4.142,0-7.5,3.357-7.5,7.5v32.286c0,4.143,3.358,7.5,7.5,7.5c4.142,0,7.5-3.357,7.5-7.5v-32.286
		C350,129.643,346.642,126.285,342.5,126.285z"/>
	<path d="M214.5,326c4.142,0,7.5-3.357,7.5-7.5v-30c0-4.143-3.358-7.5-7.5-7.5c-4.142,0-7.5,3.357-7.5,7.5v30
		C207,322.643,210.358,326,214.5,326z"/>
	<path d="M222,168.5c0-4.143-3.358-7.5-7.5-7.5c-4.142,0-7.5,3.357-7.5,7.5v30c0,4.143,3.358,7.5,7.5,7.5c4.142,0,7.5-3.357,7.5-7.5
		V168.5z"/>
	<path d="M214.5,146c4.142,0,7.5-3.357,7.5-7.5v-30c0-4.143-3.358-7.5-7.5-7.5c-4.142,0-7.5,3.357-7.5,7.5v30
		C207,142.643,210.358,146,214.5,146z"/>
	<path d="M222,228.5c0-4.143-3.358-7.5-7.5-7.5c-4.142,0-7.5,3.357-7.5,7.5v30c0,4.143,3.358,7.5,7.5,7.5c4.142,0,7.5-3.357,7.5-7.5
		V228.5z"/>
	<path d="M102,214.5c0,4.143,3.358,7.5,7.5,7.5h30c4.142,0,7.5-3.357,7.5-7.5s-3.358-7.5-7.5-7.5h-30
		C105.358,207,102,210.357,102,214.5z"/>
	<path d="M229.5,222h30c4.142,0,7.5-3.357,7.5-7.5s-3.358-7.5-7.5-7.5h-30c-4.142,0-7.5,3.357-7.5,7.5S225.358,222,229.5,222z"/>
	<path d="M282,214.5c0,4.143,3.358,7.5,7.5,7.5h30c4.142,0,7.5-3.357,7.5-7.5s-3.358-7.5-7.5-7.5h-30
		C285.358,207,282,210.357,282,214.5z"/>
	<path d="M199.5,207h-30c-4.142,0-7.5,3.357-7.5,7.5s3.358,7.5,7.5,7.5h30c4.142,0,7.5-3.357,7.5-7.5S203.642,207,199.5,207z"/>
	<path d="M86.5,350h256c4.142,0,7.5-3.357,7.5-7.5v-15c0-4.143-3.358-7.5-7.5-7.5c-4.142,0-7.5,3.357-7.5,7.5v7.5H94v-7.5
		c0-4.143-3.358-7.5-7.5-7.5c-4.142,0-7.5,3.357-7.5,7.5v15C79,346.643,82.358,350,86.5,350z"/>
	<path d="M421.5,0H7.5C3.358,0,0,3.357,0,7.5v414c0,4.143,3.358,7.5,7.5,7.5h414c4.142,0,7.5-3.357,7.5-7.5V7.5
		C429,3.357,425.642,0,421.5,0z M414,414H15V15h399V414z"/>
	<path d="M371.499,401h21c4.142,0,7.5-3.357,7.5-7.5v-21c0-3.033-1.827-5.769-4.63-6.929c-2.801-1.16-6.028-0.52-8.173,1.625l-21,21
		c-2.145,2.146-2.787,5.371-1.626,8.174C365.731,399.173,368.466,401,371.499,401z"/>
</g>
<g>
</g>
<g>
</g>
<g>
</g>
<g>
</g>
<g>
</g>
<g>
</g>
<g>
</g>
<g>
</g>
<g>
</g>
<g>
</g>
<g>
</g>
<g>
</g>
<g>
</g>
<g>
</g>
<g>
</g>
</svg>
