<?xml version="1.0" encoding="iso-8859-1"?>
<!-- Generator: Adobe Illustrator 17.1.0, SVG Export Plug-In . SVG Version: 6.00 Build 0)  -->
<!DOCTYPE svg PUBLIC "-//W3C//DTD SVG 1.1//EN" "http://www.w3.org/Graphics/SVG/1.1/DTD/svg11.dtd">
<svg version="1.1" id="Capa_1" xmlns="http://www.w3.org/2000/svg" xmlns:xlink="http://www.w3.org/1999/xlink" x="0px" y="0px"
	 viewBox="0 0 410.707 410.707" style="enable-background:new 0 0 410.707 410.707;" xml:space="preserve">
<g>
	<path d="M94.748,346.824c-2.347,0-4.558,1.099-5.976,2.969c-4.352,5.738-18.55,25.322-18.55,36.388
		c0,13.523,11.002,24.526,24.526,24.526c13.524,0,24.526-11.003,24.526-24.526c0-11.065-14.199-30.649-18.55-36.388
		C99.306,347.923,97.095,346.824,94.748,346.824z M94.748,395.707c-5.252,0-9.526-4.273-9.526-9.526
		c0-2.73,4.041-10.544,9.528-18.867c5.485,8.317,9.524,16.13,9.524,18.867C104.275,391.434,100.001,395.707,94.748,395.707z"/>
	<path d="M340.485,152.766c0-0.243-0.012-0.483-0.034-0.721c-0.798-29.387-25.19-53.194-54.656-53.194h-26.026V31.741
		C259.768,14.239,245.531,0,228.029,0c-17.502,0-31.74,14.239-31.74,31.741v67.109h-26.026c-29.468,0-53.863,23.813-54.656,53.205
		c-0.022,0.233-0.033,0.471-0.033,0.71v14.442c0,0.261,0.014,0.52,0.04,0.773c-0.026,0.254-0.04,0.513-0.04,0.773v19.597v7v101.763
		c0,0.212,0.015,0.421,0.032,0.628c-0.017,0.208-0.032,0.417-0.032,0.629c0,10.772-8.763,19.534-19.533,19.534
		c-4.142,0-7.5,3.357-7.5,7.5c0,4.142,3.358,7.5,7.5,7.5h209.911c19.042,0,34.533-15.492,34.533-34.534
		c0-0.212-0.015-0.421-0.031-0.629c0.017-0.207,0.031-0.416,0.031-0.628V195.352v-7v-19.597c0-0.261-0.014-0.52-0.04-0.773
		c0.026-0.254,0.04-0.513,0.04-0.773V152.766z M325.485,187.852H130.573v-13.144h194.911V187.852z M130.573,202.852h194.911v42.777
		c-23.205-13.793-58.525-20.441-106.543,8.957l-0.482,0.294c-1.968,1.202-4.076,2.711-6.309,4.309
		c-14.167,10.139-27.212,17.632-43.389,6.585c-15.756-10.761-28.362-10.24-36.162-7.908c-0.705,0.211-1.374,0.444-2.027,0.688
		V202.852z M130.573,153.309c0.01-0.14,0.016-0.28,0.019-0.422c0.348-21.524,18.144-39.036,39.671-39.036h33.526
		c4.143,0,7.5-3.357,7.5-7.5V31.741c0-9.231,7.51-16.741,16.74-16.741c9.23,0,16.738,7.51,16.738,16.741v74.609
		c0,4.143,3.357,7.5,7.5,7.5h33.526c21.528,0,39.324,17.512,39.671,39.036c0.002,0.145,0.009,0.291,0.02,0.435v6.387H130.573
		V153.309z M305.951,317.905H124.505c3.827-5.56,6.069-12.29,6.069-19.534c0-0.212-0.015-0.421-0.032-0.629
		c0.017-0.207,0.032-0.416,0.032-0.628v-21.434c1.07-0.935,3.457-2.718,6.972-3.624c6.656-1.718,14.313,0.338,22.757,6.103
		c8.628,5.893,16.844,8.097,24.417,8.097c15.382-0.001,28.1-9.101,36.162-14.87c2.092-1.497,3.898-2.789,5.401-3.708l0.491-0.301
		c5.636-3.45,20.608-12.616,39.075-16.543c22.316-4.745,42.375-0.392,59.636,12.913v33.366c0,0.212,0.015,0.421,0.031,0.628
		c-0.017,0.208-0.031,0.417-0.031,0.629C325.485,309.143,316.722,317.905,305.951,317.905z"/>
	<circle cx="228.029" cy="32.6" r="5.865"/>
</g>
<g>
</g>
<g>
</g>
<g>
</g>
<g>
</g>
<g>
</g>
<g>
</g>
<g>
</g>
<g>
</g>
<g>
</g>
<g>
</g>
<g>
</g>
<g>
</g>
<g>
</g>
<g>
</g>
<g>
</g>
</svg>
