<?xml version="1.0" encoding="iso-8859-1"?>
<!-- Generator: Adobe Illustrator 17.1.0, SVG Export Plug-In . SVG Version: 6.00 Build 0)  -->
<!DOCTYPE svg PUBLIC "-//W3C//DTD SVG 1.1//EN" "http://www.w3.org/Graphics/SVG/1.1/DTD/svg11.dtd">
<svg version="1.1" id="Capa_1" xmlns="http://www.w3.org/2000/svg" xmlns:xlink="http://www.w3.org/1999/xlink" x="0px" y="0px"
	 viewBox="0 0 431.5 431.5" style="enable-background:new 0 0 431.5 431.5;" xml:space="preserve">
<g>
	<path d="M347,154.611c-1.852-8.874-14.531-14.426-42.404-18.809C280.802,132.061,249.249,130,215.75,130
		s-65.052,2.061-88.846,5.803c-27.873,4.383-40.553,9.935-42.405,18.809c-0.157,0.605-0.249,1.235-0.249,1.889v248
		c0,10.292,12.357,16.434,42.654,21.197c23.794,3.742,55.347,5.803,88.846,5.803s65.052-2.06,88.846-5.803
		c30.297-4.764,42.654-10.905,42.654-21.197v-248C347.25,155.847,347.158,155.216,347,154.611z M135.299,149.73
		c22.235-3.05,50.807-4.73,80.451-4.73s58.216,1.68,80.451,4.73c18.537,2.543,27.952,5.362,32.579,7.27
		c-4.627,1.908-14.042,4.727-32.579,7.27c-22.235,3.05-50.807,4.73-80.451,4.73s-58.216-1.68-80.451-4.73
		c-18.537-2.543-27.952-5.362-32.579-7.27C107.347,155.092,116.762,152.273,135.299,149.73z M331.19,172.184
		C323.507,229.031,274.67,273,215.75,273s-107.757-43.969-115.44-100.816c6.587,2.288,15.354,4.246,26.595,6.014
		c23.794,3.742,55.347,5.803,88.846,5.803s65.052-2.061,88.846-5.803C315.837,176.43,324.603,174.472,331.19,172.184z
		 M296.201,411.771c-22.235,3.05-50.807,4.729-80.451,4.729s-58.216-1.68-80.451-4.729c-25.717-3.527-33.872-7.586-36.049-9.007
		V217.436C121.26,259.346,165.218,288,215.75,288s94.49-28.654,116.5-70.564v185.328
		C330.073,404.185,321.918,408.243,296.201,411.771z"/>
	<path d="M215.75,104c21.229,0,38.5-17.271,38.5-38.5c0-18.696-27.093-55.37-32.524-62.532C220.308,1.099,218.097,0,215.75,0
		s-4.558,1.099-5.976,2.968C204.343,10.13,177.25,46.804,177.25,65.5C177.25,86.729,194.521,104,215.75,104z M215.751,20.245
		C226.949,36.22,239.25,56.993,239.25,65.5c0,12.958-10.542,23.5-23.5,23.5s-23.5-10.542-23.5-23.5
		C192.25,57.005,204.553,36.227,215.751,20.245z"/>
</g>
<g>
</g>
<g>
</g>
<g>
</g>
<g>
</g>
<g>
</g>
<g>
</g>
<g>
</g>
<g>
</g>
<g>
</g>
<g>
</g>
<g>
</g>
<g>
</g>
<g>
</g>
<g>
</g>
<g>
</g>
</svg>
