<?xml version="1.0" encoding="iso-8859-1"?>
<!-- Generator: Adobe Illustrator 17.1.0, SVG Export Plug-In . SVG Version: 6.00 Build 0)  -->
<!DOCTYPE svg PUBLIC "-//W3C//DTD SVG 1.1//EN" "http://www.w3.org/Graphics/SVG/1.1/DTD/svg11.dtd">
<svg version="1.1" id="Capa_1" xmlns="http://www.w3.org/2000/svg" xmlns:xlink="http://www.w3.org/1999/xlink" x="0px" y="0px"
	 viewBox="0 0 386 386" style="enable-background:new 0 0 386 386;" xml:space="preserve">
<g>
	<path d="M157.5,344.5c-4.143,0-7.5,3.358-7.5,7.5v13.5H15v-345h135V281c0,4.142,3.357,7.5,7.5,7.5s7.5-3.358,7.5-7.5V13
		c0-4.142-3.357-7.5-7.5-7.5H7.5C3.357,5.5,0,8.858,0,13v360c0,4.142,3.357,7.5,7.5,7.5h150c4.143,0,7.5-3.358,7.5-7.5v-21
		C165,347.857,161.643,344.5,157.5,344.5z"/>
	<path d="M378.5,5.5h-150c-4.143,0-7.5,3.358-7.5,7.5v360c0,4.142,3.357,7.5,7.5,7.5h150c4.143,0,7.5-3.358,7.5-7.5V13
		C386,8.858,382.643,5.5,378.5,5.5z M371,365.5H236v-345h135V365.5z"/>
	<path d="M153.15,296.084c-2.929-2.929-7.677-2.929-10.607,0c-2.929,2.929-2.929,7.677,0,10.606l10.003,10.003l-10.003,10.003
		c-2.929,2.929-2.929,7.678,0,10.606c1.465,1.465,3.384,2.197,5.304,2.197c1.919,0,3.839-0.732,5.304-2.197l15.306-15.306
		c2.929-2.929,2.929-7.678,0-10.607L153.15,296.084z"/>
	<path d="M118,49.5H47c-4.143,0-7.5,3.358-7.5,7.5s3.357,7.5,7.5,7.5h71c4.143,0,7.5-3.358,7.5-7.5S122.143,49.5,118,49.5z"/>
	<path d="M118,95.5H47c-4.143,0-7.5,3.358-7.5,7.5c0,4.142,3.357,7.5,7.5,7.5h71c4.143,0,7.5-3.358,7.5-7.5
		C125.5,98.857,122.143,95.5,118,95.5z"/>
	<path d="M118,141.5H47c-4.143,0-7.5,3.358-7.5,7.5c0,4.142,3.357,7.5,7.5,7.5h71c4.143,0,7.5-3.358,7.5-7.5
		C125.5,144.857,122.143,141.5,118,141.5z"/>
	<path d="M118,187.5H47c-4.143,0-7.5,3.358-7.5,7.5c0,4.142,3.357,7.5,7.5,7.5h71c4.143,0,7.5-3.358,7.5-7.5
		C125.5,190.857,122.143,187.5,118,187.5z"/>
	<path d="M268,64.5h71c4.143,0,7.5-3.358,7.5-7.5s-3.357-7.5-7.5-7.5h-71c-4.143,0-7.5,3.358-7.5,7.5S263.857,64.5,268,64.5z"/>
	<path d="M268,110.5h71c4.143,0,7.5-3.358,7.5-7.5c0-4.142-3.357-7.5-7.5-7.5h-71c-4.143,0-7.5,3.358-7.5,7.5
		C260.5,107.142,263.857,110.5,268,110.5z"/>
	<path d="M268,156.5h71c4.143,0,7.5-3.358,7.5-7.5c0-4.142-3.357-7.5-7.5-7.5h-71c-4.143,0-7.5,3.358-7.5,7.5
		C260.5,153.142,263.857,156.5,268,156.5z"/>
	<path d="M268,202.5h71c4.143,0,7.5-3.358,7.5-7.5c0-4.142-3.357-7.5-7.5-7.5h-71c-4.143,0-7.5,3.358-7.5,7.5
		C260.5,199.142,263.857,202.5,268,202.5z"/>
	<path d="M118,233.5H47c-4.143,0-7.5,3.358-7.5,7.5c0,4.142,3.357,7.5,7.5,7.5h71c4.143,0,7.5-3.358,7.5-7.5
		C125.5,236.857,122.143,233.5,118,233.5z"/>
	<path d="M118,279.5H47c-4.143,0-7.5,3.358-7.5,7.5c0,4.142,3.357,7.5,7.5,7.5h71c4.143,0,7.5-3.358,7.5-7.5
		C125.5,282.857,122.143,279.5,118,279.5z"/>
	<path d="M118,325.5H47c-4.143,0-7.5,3.358-7.5,7.5s3.357,7.5,7.5,7.5h71c4.143,0,7.5-3.358,7.5-7.5S122.143,325.5,118,325.5z"/>
</g>
<g>
</g>
<g>
</g>
<g>
</g>
<g>
</g>
<g>
</g>
<g>
</g>
<g>
</g>
<g>
</g>
<g>
</g>
<g>
</g>
<g>
</g>
<g>
</g>
<g>
</g>
<g>
</g>
<g>
</g>
</svg>
