<?xml version="1.0" encoding="iso-8859-1"?>
<!-- Generator: Adobe Illustrator 17.1.0, SVG Export Plug-In . SVG Version: 6.00 Build 0)  -->
<!DOCTYPE svg PUBLIC "-//W3C//DTD SVG 1.1//EN" "http://www.w3.org/Graphics/SVG/1.1/DTD/svg11.dtd">
<svg version="1.1" id="Capa_1" xmlns="http://www.w3.org/2000/svg" xmlns:xlink="http://www.w3.org/1999/xlink" x="0px" y="0px"
	 viewBox="0 0 363.704 363.704" style="enable-background:new 0 0 363.704 363.704;" xml:space="preserve">
<g>
	<path d="M322.699,38.521c0-10.289-4.007-19.962-11.282-27.238C304.141,4.007,294.468,0,284.179,0
		c-10.289,0-19.962,4.007-27.237,11.282l-27.931,27.93l-7.057-7.057c-1.932-1.931-5.448-4.232-11.234-4.232
		c-7.017,0-15.675,3.565-20.585,8.476c-3.683,3.683-5.711,8.58-5.711,13.788c0,5.209,2.028,10.106,5.711,13.79l10.606,10.605
		L81.594,193.73c-6.328,6.327-9.812,14.74-9.812,23.688c0,8.948,3.484,17.361,9.812,23.689c6.531,6.531,15.108,9.796,23.688,9.796
		c8.577,0,17.158-3.267,23.688-9.796l119.147-119.148l10.606,10.606c3.683,3.684,8.58,5.712,13.789,5.712
		c5.209,0,10.106-2.028,13.788-5.711c3.313-3.313,6.224-8.694,7.597-14.045c1.9-7.399,0.708-13.712-3.355-17.775l-7.057-7.057
		l27.93-27.931C318.692,58.482,322.698,48.81,322.699,38.521z M118.363,230.499c-7.214,7.214-18.951,7.214-26.163,0
		c-3.494-3.494-5.418-8.14-5.418-13.081c0-4.941,1.924-9.587,5.418-13.081L211.347,85.189l26.163,26.162L118.363,230.499z
		 M275.694,121.959c-0.85,0.85-1.979,1.317-3.181,1.317c-1.202,0-2.332-0.468-3.182-1.318l-15.909-15.909
		c-0.001,0-0.001-0.001-0.001-0.001c-0.001,0-0.001-0.001-0.001-0.001l-36.765-36.765c0,0-0.002-0.003-0.003-0.004
		c-0.001-0.001-0.003-0.002-0.004-0.004l-15.906-15.905c-0.85-0.85-1.318-1.979-1.318-3.182c0-1.202,0.468-2.332,1.318-3.183
		c1.888-1.888,6.657-4.082,9.978-4.082c0.436,0,0.713,0.042,0.863,0.074l12.121,12.121c0.001,0.002,0.003,0.003,0.004,0.005
		c0.001,0.002,0.003,0.003,0.005,0.005l43.855,43.854c0.003,0.003,0.006,0.007,0.009,0.01c0.003,0.003,0.007,0.006,0.01,0.009
		l12.128,12.129C280.255,113.067,278.421,119.232,275.694,121.959z M300.81,55.15L272.88,83.081l-33.262-33.262l27.931-27.931
		c4.442-4.442,10.348-6.889,16.63-6.889c6.282,0,12.189,2.447,16.631,6.89c4.442,4.442,6.889,10.349,6.889,16.631
		C307.699,44.803,305.252,50.709,300.81,55.15z"/>
	<path d="M79.505,259.704c-2.347,0-4.558,1.099-5.976,2.968c-5.431,7.162-32.524,43.836-32.524,62.532
		c0,21.228,17.271,38.5,38.5,38.5s38.5-17.272,38.5-38.5c0-18.696-27.093-55.37-32.524-62.532
		C84.063,260.803,81.852,259.704,79.505,259.704z M79.505,348.704c-12.958,0-23.5-10.542-23.5-23.5
		c0-8.495,12.303-29.273,23.501-45.255c11.197,15.975,23.499,36.748,23.499,45.255C103.005,338.162,92.463,348.704,79.505,348.704z"
		/>
</g>
<g>
</g>
<g>
</g>
<g>
</g>
<g>
</g>
<g>
</g>
<g>
</g>
<g>
</g>
<g>
</g>
<g>
</g>
<g>
</g>
<g>
</g>
<g>
</g>
<g>
</g>
<g>
</g>
<g>
</g>
</svg>
