<?xml version="1.0" encoding="iso-8859-1"?>
<!-- Generator: Adobe Illustrator 17.1.0, SVG Export Plug-In . SVG Version: 6.00 Build 0)  -->
<!DOCTYPE svg PUBLIC "-//W3C//DTD SVG 1.1//EN" "http://www.w3.org/Graphics/SVG/1.1/DTD/svg11.dtd">
<svg version="1.1" id="Capa_1" xmlns="http://www.w3.org/2000/svg" xmlns:xlink="http://www.w3.org/1999/xlink" x="0px" y="0px"
	 viewBox="0 0 297 297" style="enable-background:new 0 0 297 297;" xml:space="preserve">
<path d="M289.5,0H7.5C3.358,0,0,3.357,0,7.5v282c0,4.143,3.358,7.5,7.5,7.5h282c4.143,0,7.5-3.357,7.5-7.5V7.5
	C297,3.357,293.643,0,289.5,0z M109.653,282L282,109.654v62.831L172.485,282H109.653z M25.607,282L282,25.607v62.832L88.439,282
	H25.607z M184.113,15L15,184.113v-62.832L121.281,15H184.113z M15,205.328L205.328,15h66.065L15,271.393V205.328z M100.067,15
	L15,100.066V15H100.067z M193.7,282l88.3-88.3V282H193.7z"/>
<g>
</g>
<g>
</g>
<g>
</g>
<g>
</g>
<g>
</g>
<g>
</g>
<g>
</g>
<g>
</g>
<g>
</g>
<g>
</g>
<g>
</g>
<g>
</g>
<g>
</g>
<g>
</g>
<g>
</g>
</svg>
