<?xml version="1.0" encoding="iso-8859-1"?>
<!-- Generator: Adobe Illustrator 17.1.0, SVG Export Plug-In . SVG Version: 6.00 Build 0)  -->
<!DOCTYPE svg PUBLIC "-//W3C//DTD SVG 1.1//EN" "http://www.w3.org/Graphics/SVG/1.1/DTD/svg11.dtd">
<svg version="1.1" id="Capa_1" xmlns="http://www.w3.org/2000/svg" xmlns:xlink="http://www.w3.org/1999/xlink" x="0px" y="0px"
	 viewBox="0 0 419.813 419.813" style="enable-background:new 0 0 419.813 419.813;" xml:space="preserve">
<g>
	<path d="M90.725,199.067c19.228,0,37.637-5.991,53.237-17.326c16.041-11.654,26.817-26.486,32.945-45.345
		c0.001-0.003,0.001-0.006,0.003-0.009c3.066-9.446,4.436-18.087,4.436-28.016c0-50.006-40.684-90.689-90.689-90.689
		c-19.828,0-37.265,5.666-53.306,17.32c-40.456,29.392-49.456,86.219-20.063,126.675C34.297,185.09,61.75,199.067,90.725,199.067z
		 M141.024,164.936l-21.952-30.214l-8.78-12.085l49.726,16.157C155.639,149.079,149.452,157.595,141.024,164.936z M166.346,108.371
		c0,5.79-0.526,10.913-1.703,16.154l-66.486-21.603V33.05C136.386,36.826,166.346,69.165,166.346,108.371z M46.167,47.137
		c11.504-8.358,23.412-12.932,36.989-14.133v75.367c0,0.391,0.031,0.781,0.092,1.167c0.001,0.006,0.002,0.012,0.003,0.018
		c0.028,0.173,0.082,0.337,0.121,0.506c0.048,0.205,0.083,0.413,0.148,0.614c0.002,0.007,0.005,0.015,0.007,0.022
		c0.07,0.214,0.168,0.414,0.257,0.62c0.063,0.147,0.11,0.3,0.185,0.444c0.002,0.005,0.005,0.011,0.008,0.016
		c0.179,0.351,0.385,0.686,0.615,1.004l44.271,60.936c-11.566,6.79-24.611,10.348-38.139,10.348
		c-24.188,0-47.105-11.666-61.303-31.206C4.891,119.095,12.404,71.668,46.167,47.137z"/>
	<path d="M242.589,213.182h40.41c4.143,0,7.5-3.358,7.5-7.5v-180.5c0-4.142-3.357-7.5-7.5-7.5h-40.41c-4.143,0-7.5,3.358-7.5,7.5
		v180.5C235.089,209.824,238.447,213.182,242.589,213.182z M250.089,32.682h25.41v165.5h-25.41V32.682z"/>
	<path d="M307.246,213.182h40.411c4.143,0,7.5-3.358,7.5-7.5v-89.288c0-4.142-3.357-7.5-7.5-7.5h-40.411c-4.143,0-7.5,3.358-7.5,7.5
		v89.288C299.746,209.824,303.103,213.182,307.246,213.182z M314.746,123.894h25.411v74.288h-25.411V123.894z"/>
	<path d="M412.313,66.944h-40.41c-4.143,0-7.5,3.358-7.5,7.5v131.238c0,4.142,3.357,7.5,7.5,7.5h40.41c4.143,0,7.5-3.358,7.5-7.5
		V74.444C419.813,70.302,416.456,66.944,412.313,66.944z M404.813,198.182h-25.41V81.944h25.41V198.182z"/>
	<path d="M406.425,288.054c-6.48,0-11.731,5.252-11.731,11.732c0,0.579,0.056,1.144,0.137,1.701l-65.393,77.246
		c-0.402-0.042-0.811-0.065-1.224-0.065c-0.478,0-0.946,0.037-1.409,0.093l-64.564-51.363c-0.759-5.045-4.722-9.028-9.757-9.819
		l-65.708-77.615c0-0.04,0.006-0.079,0.006-0.12c0-6.48-5.252-11.732-11.731-11.732c-5.717,0-10.473,4.091-11.514,9.503
		l-61.594,40.687c-1.373-0.564-2.875-0.88-4.451-0.88c-1.847,0-3.587,0.439-5.141,1.198l-59.471-23.513
		c-1.655-4.472-5.945-7.666-10.993-7.666c-6.479,0-11.731,5.252-11.731,11.732c0,6.479,5.252,11.732,11.731,11.732
		c2.187,0,4.226-0.609,5.977-1.65l58.339,23.066c1.384,4.939,5.907,8.565,11.288,8.565c5.621,0,10.314-3.957,11.459-9.236
		l61.874-40.872c1.313,0.508,2.733,0.797,4.226,0.797c0.605,0,1.195-0.06,1.775-0.149l62.691,74.053
		c-0.381,1.157-0.595,2.389-0.595,3.674c0,6.479,5.253,11.732,11.731,11.732c1.291,0,2.53-0.216,3.691-0.602l62.17,49.459
		c-0.012,0.219-0.033,0.435-0.033,0.657c0,6.479,5.252,11.732,11.732,11.732s11.731-5.252,11.731-11.732
		c0-0.275-0.022-0.544-0.041-0.815l66.105-78.088c0.139,0.005,0.275,0.021,0.415,0.021c6.479,0,11.731-5.252,11.731-11.731
		C418.157,293.306,412.905,288.054,406.425,288.054z"/>
</g>
<g>
</g>
<g>
</g>
<g>
</g>
<g>
</g>
<g>
</g>
<g>
</g>
<g>
</g>
<g>
</g>
<g>
</g>
<g>
</g>
<g>
</g>
<g>
</g>
<g>
</g>
<g>
</g>
<g>
</g>
</svg>
