<?xml version="1.0" encoding="iso-8859-1"?>
<!-- Generator: Adobe Illustrator 17.1.0, SVG Export Plug-In . SVG Version: 6.00 Build 0)  -->
<!DOCTYPE svg PUBLIC "-//W3C//DTD SVG 1.1//EN" "http://www.w3.org/Graphics/SVG/1.1/DTD/svg11.dtd">
<svg version="1.1" id="Capa_1" xmlns="http://www.w3.org/2000/svg" xmlns:xlink="http://www.w3.org/1999/xlink" x="0px" y="0px"
	 viewBox="0 0 384 384" style="enable-background:new 0 0 384 384;" xml:space="preserve">
<path d="M372,271c-3.532,0-6.697,1.535-8.893,3.963h-73.145V111.037h72.331c2.181,3.003,5.71,4.963,9.706,4.963
	c6.628,0,12-5.372,12-12s-5.372-12-12-12c-3.568,0-6.763,1.565-8.961,4.037h-73.076V20.96C292.435,18.763,294,15.568,294,12
	c0-6.628-5.372-12-12-12s-12,5.372-12,12c0,3.995,1.96,7.524,4.963,9.706v74.331H111.037V21.359c2.741-2.199,4.5-5.571,4.5-9.359
	c0-6.628-5.372-12-12-12s-12,5.372-12,12c0,3.788,1.759,7.16,4.5,9.359v74.678H20.961C18.763,93.565,15.568,92,12,92
	c-6.628,0-12,5.372-12,12s5.372,12,12,12c3.996,0,7.525-1.96,9.706-4.963h74.331v163.926H20.893C18.697,272.535,15.532,271,12,271
	c-6.628,0-12,5.372-12,12s5.372,12,12,12c4.029,0,7.585-1.992,9.762-5.037h74.275v72.678c-2.741,2.199-4.5,5.571-4.5,9.359
	c0,6.628,5.372,12,12,12s12-5.372,12-12c0-3.788-1.759-7.16-4.5-9.359v-72.678h163.926v72.331C271.96,364.476,270,368.005,270,372
	c0,6.628,5.372,12,12,12s12-5.372,12-12c0-3.568-1.565-6.763-4.037-8.96v-73.077h72.275c2.177,3.045,5.732,5.037,9.762,5.037
	c6.628,0,12-5.372,12-12S378.628,271,372,271z M170.679,215.321v-44.643h44.643v44.643H170.679z M215.321,230.321v44.642h-44.643
	v-44.642H215.321z M111.037,170.679h44.642v44.643h-44.642V170.679z M170.679,155.679v-44.642h44.643v44.642H170.679z
	 M230.321,170.679h44.642v44.643h-44.642V170.679z M274.963,155.679h-44.642v-44.642h44.642V155.679z M155.679,111.037v44.642
	h-44.642v-44.642H155.679z M111.037,230.321h44.642v44.642h-44.642V230.321z M230.321,274.963v-44.642h44.642v44.642H230.321z"/>
<g>
</g>
<g>
</g>
<g>
</g>
<g>
</g>
<g>
</g>
<g>
</g>
<g>
</g>
<g>
</g>
<g>
</g>
<g>
</g>
<g>
</g>
<g>
</g>
<g>
</g>
<g>
</g>
<g>
</g>
</svg>
