<?xml version="1.0" encoding="iso-8859-1"?>
<!-- Generator: Adobe Illustrator 17.1.0, SVG Export Plug-In . SVG Version: 6.00 Build 0)  -->
<!DOCTYPE svg PUBLIC "-//W3C//DTD SVG 1.1//EN" "http://www.w3.org/Graphics/SVG/1.1/DTD/svg11.dtd">
<svg version="1.1" id="Capa_1" xmlns="http://www.w3.org/2000/svg" xmlns:xlink="http://www.w3.org/1999/xlink" x="0px" y="0px"
	 viewBox="0 0 405.828 405.828" style="enable-background:new 0 0 405.828 405.828;" xml:space="preserve">
<g>
	<path d="M17.765,95.243c4.143,0,7.5-3.358,7.5-7.5V65.664H99v229.564H84.136c-4.143,0-7.5,3.358-7.5,7.5c0,4.142,3.357,7.5,7.5,7.5
		h44.729c4.143,0,7.5-3.358,7.5-7.5c0-4.142-3.357-7.5-7.5-7.5H114V65.664h73.736v22.079c0,4.142,3.357,7.5,7.5,7.5
		c4.143,0,7.5-3.358,7.5-7.5V58.164c0-4.142-3.357-7.5-7.5-7.5H17.765c-4.143,0-7.5,3.358-7.5,7.5v29.579
		C10.265,91.885,13.622,95.243,17.765,95.243z"/>
	<path d="M207.5,325.128H5.5c-3.037,0-5.5,2.462-5.5,5.5v18.036c0,3.038,2.463,5.5,5.5,5.5h202c3.037,0,5.5-2.462,5.5-5.5v-18.036
		C213,327.591,210.537,325.128,207.5,325.128z"/>
	<path d="M403.632,212.253l-40.306-40.305c-2.844-2.843-7.424-2.939-10.383-0.215L235.118,280.181
		c-0.035,0.032-0.065,0.068-0.1,0.102c-0.099,0.095-0.193,0.193-0.288,0.293c-0.074,0.08-0.148,0.159-0.22,0.242
		c-0.093,0.107-0.18,0.219-0.266,0.332c-0.063,0.081-0.126,0.161-0.185,0.245c-0.088,0.126-0.169,0.255-0.249,0.386
		c-0.047,0.076-0.096,0.151-0.14,0.229c-0.083,0.146-0.157,0.296-0.23,0.448c-0.033,0.069-0.068,0.136-0.1,0.207
		c-0.072,0.162-0.134,0.328-0.194,0.495c-0.023,0.066-0.051,0.13-0.072,0.197c-0.055,0.165-0.099,0.335-0.142,0.504
		c-0.018,0.074-0.041,0.147-0.058,0.222c-0.034,0.155-0.058,0.314-0.083,0.473c-0.014,0.094-0.032,0.187-0.043,0.281
		c-0.016,0.14-0.022,0.282-0.03,0.424c-0.006,0.095-0.019,0.188-0.021,0.283c0,0.021,0.002,0.042,0.002,0.063
		c0,0.024-0.004,0.047-0.004,0.071l-0.095,33.256l-14.234,14.234c-1.657,1.657-2.444,3.994-2.128,6.316
		c0.317,2.322,1.701,4.363,3.741,5.516l16.264,9.192c1.155,0.653,2.426,0.971,3.688,0.971c1.941,0,3.861-0.753,5.305-2.197
		l10.207-10.207l34.612,0.382c0.027,0.001,0.056,0.001,0.083,0.001l0,0l0,0h0.002l0,0c0.055,0,0.108-0.001,0.162-0.002
		c0.092-0.002,0.182-0.015,0.273-0.02c0.141-0.008,0.28-0.015,0.419-0.03c0.099-0.011,0.196-0.029,0.295-0.044
		c0.153-0.024,0.307-0.048,0.458-0.081c0.083-0.019,0.164-0.042,0.246-0.063c0.161-0.041,0.321-0.083,0.478-0.135
		c0.077-0.025,0.151-0.055,0.228-0.082c0.156-0.057,0.311-0.115,0.463-0.182c0.078-0.035,0.155-0.074,0.232-0.111
		c0.143-0.069,0.283-0.139,0.421-0.217c0.083-0.047,0.165-0.098,0.247-0.148c0.125-0.077,0.248-0.156,0.368-0.24
		c0.087-0.06,0.17-0.124,0.254-0.188c0.11-0.084,0.218-0.169,0.323-0.259c0.084-0.072,0.166-0.146,0.247-0.222
		c0.1-0.093,0.196-0.188,0.29-0.286c0.041-0.042,0.085-0.079,0.124-0.122l108.188-118.087
		C406.57,219.663,406.47,215.092,403.632,212.253z M256.102,327.767l-8.5-8.5l0.044-15.512l24.186,24.186L256.102,327.767z
		 M289.903,324.799l-38.875-38.876l106.779-98.281l30.141,30.141L289.903,324.799z"/>
</g>
<g>
</g>
<g>
</g>
<g>
</g>
<g>
</g>
<g>
</g>
<g>
</g>
<g>
</g>
<g>
</g>
<g>
</g>
<g>
</g>
<g>
</g>
<g>
</g>
<g>
</g>
<g>
</g>
<g>
</g>
</svg>
