<?xml version="1.0" encoding="iso-8859-1"?>
<!-- Generator: Adobe Illustrator 17.1.0, SVG Export Plug-In . SVG Version: 6.00 Build 0)  -->
<!DOCTYPE svg PUBLIC "-//W3C//DTD SVG 1.1//EN" "http://www.w3.org/Graphics/SVG/1.1/DTD/svg11.dtd">
<svg version="1.1" id="Capa_1" xmlns="http://www.w3.org/2000/svg" xmlns:xlink="http://www.w3.org/1999/xlink" x="0px" y="0px"
	 viewBox="0 0 333.137 333.137" style="enable-background:new 0 0 333.137 333.137;" xml:space="preserve">
<g>
	<path d="M54.597,201.836c0.011,0.124,0.026,0.246,0.043,0.367c0.016,0.115,0.031,0.23,0.052,0.345
		c0.025,0.135,0.055,0.268,0.086,0.399c0.024,0.102,0.05,0.203,0.078,0.304c0.038,0.134,0.08,0.265,0.126,0.395
		c0.034,0.101,0.07,0.2,0.109,0.3c0.048,0.122,0.1,0.242,0.154,0.361c0.048,0.106,0.098,0.211,0.151,0.314
		c0.055,0.107,0.111,0.21,0.171,0.314c0.064,0.111,0.131,0.222,0.201,0.331c0.059,0.09,0.119,0.179,0.182,0.267
		c0.079,0.111,0.161,0.222,0.247,0.33c0.065,0.082,0.133,0.162,0.201,0.241c0.09,0.103,0.181,0.204,0.275,0.303
		c0.08,0.083,0.163,0.161,0.247,0.24c0.091,0.086,0.182,0.171,0.278,0.253c0.102,0.088,0.208,0.17,0.315,0.252
		c0.061,0.047,0.117,0.098,0.181,0.143c0.02,0.014,0.041,0.023,0.061,0.036c0.284,0.2,0.582,0.38,0.894,0.539
		c0.063,0.032,0.126,0.061,0.188,0.091c0.297,0.142,0.603,0.27,0.92,0.372c0.021,0.007,0.041,0.017,0.063,0.023
		c0.315,0.099,0.642,0.17,0.974,0.227c0.089,0.015,0.178,0.028,0.268,0.041c0.311,0.041,0.626,0.069,0.947,0.071
		c0.017,0,0.033,0.004,0.05,0.004c0.006,0,0.012-0.001,0.017-0.001h169.134c4.143,0,7.5-3.357,7.5-7.5V62.063
		c0-4.142-3.357-7.5-7.5-7.5H62.064c-4.143,0-7.5,3.358-7.5,7.5v139.137c0,0.074,0.009,0.147,0.012,0.222
		C54.58,201.56,54.585,201.698,54.597,201.836z M181.517,193.699l-11.163-16.063l14.542-18.816l27.536,34.879H181.517z
		 M163.249,193.699H76.667l43.957-61.338L163.249,193.699z M223.709,69.563v114.214l-32.989-41.787
		c-1.431-1.811-3.596-2.879-5.926-2.852c-2.309,0.012-4.483,1.087-5.896,2.914l-17.52,22.67l-34.502-49.646
		c-1.392-2.001-3.668-3.202-6.104-3.22c-2.436-0.043-4.731,1.149-6.151,3.131l-45.057,62.872V69.563H223.709z"/>
	<path d="M330.94,320.333l-37.667-37.667v-33.812l26.06,26.059c1.465,1.464,3.385,2.196,5.304,2.196
		c1.919,0,3.839-0.732,5.304-2.196c2.929-2.93,2.929-7.678,0-10.607l-36.667-36.667v-34.813l26.06,26.06
		c1.465,1.464,3.385,2.196,5.304,2.196c1.919,0,3.839-0.732,5.304-2.196c2.929-2.93,2.929-7.678,0-10.607l-36.667-36.667v-34.813
		l26.06,26.059c1.465,1.464,3.385,2.196,5.304,2.196c1.919,0,3.839-0.732,5.304-2.196c2.929-2.93,2.929-7.678,0-10.607
		l-36.667-36.667V80.772l26.06,26.06c1.465,1.464,3.385,2.196,5.304,2.196c1.919,0,3.839-0.732,5.304-2.196
		c2.929-2.93,2.929-7.678,0-10.607l-36.667-36.667V24.744l26.06,26.06c1.465,1.464,3.385,2.196,5.304,2.196
		c1.919,0,3.839-0.732,5.304-2.196c2.929-2.93,2.929-7.678,0-10.608l-38-38c-1.577-1.575-3.68-2.295-5.742-2.175
		C286.057,0.014,285.917,0,285.773,0H7.5C3.358,0,0,3.358,0,7.5v278.273c0,0.317,0.026,0.628,0.064,0.934
		c-0.275,2.216,0.431,4.53,2.132,6.233l38,38c1.465,1.464,3.385,2.196,5.304,2.196c1.919,0,3.839-0.732,5.304-2.196
		c2.929-2.93,2.929-7.678,0-10.608l-27.06-27.059h34.813l37.667,37.667c1.465,1.464,3.385,2.196,5.304,2.196
		c1.919,0,3.839-0.732,5.304-2.196c2.929-2.93,2.929-7.678,0-10.608l-27.06-27.059h34.813l37.667,37.667
		c1.465,1.464,3.385,2.196,5.304,2.196c1.919,0,3.839-0.732,5.304-2.196c2.929-2.93,2.929-7.678,0-10.608l-27.059-27.059h34.813
		l37.667,37.667c1.465,1.464,3.385,2.196,5.304,2.196c1.919,0,3.839-0.732,5.304-2.196c2.929-2.93,2.929-7.678,0-10.608
		l-27.06-27.059h34.813l37.667,37.667c1.465,1.464,3.385,2.196,5.304,2.196c1.919,0,3.839-0.732,5.304-2.196
		c2.929-2.93,2.929-7.678,0-10.608l-27.059-27.059h34.813l37.667,37.667c1.465,1.464,3.385,2.196,5.304,2.196
		c1.919,0,3.839-0.732,5.304-2.196C333.869,328.011,333.869,323.263,330.94,320.333z M278.273,278.274H15V15h263.273V278.274z"/>
</g>
<g>
</g>
<g>
</g>
<g>
</g>
<g>
</g>
<g>
</g>
<g>
</g>
<g>
</g>
<g>
</g>
<g>
</g>
<g>
</g>
<g>
</g>
<g>
</g>
<g>
</g>
<g>
</g>
<g>
</g>
</svg>
