<?xml version="1.0" encoding="iso-8859-1"?>
<!-- Generator: Adobe Illustrator 17.1.0, SVG Export Plug-In . SVG Version: 6.00 Build 0)  -->
<!DOCTYPE svg PUBLIC "-//W3C//DTD SVG 1.1//EN" "http://www.w3.org/Graphics/SVG/1.1/DTD/svg11.dtd">
<svg version="1.1" id="Capa_1" xmlns="http://www.w3.org/2000/svg" xmlns:xlink="http://www.w3.org/1999/xlink" x="0px" y="0px"
	 viewBox="0 0 426.514 426.514" style="enable-background:new 0 0 426.514 426.514;" xml:space="preserve">
<g>
	<path d="M42.24,332.574c0.01,0.123,0.026,0.245,0.042,0.366c0.016,0.116,0.032,0.231,0.053,0.347
		c0.024,0.134,0.054,0.266,0.085,0.396c0.024,0.103,0.05,0.205,0.079,0.307c0.038,0.133,0.08,0.264,0.125,0.394
		c0.035,0.102,0.071,0.201,0.11,0.301c0.048,0.122,0.1,0.242,0.154,0.361c0.048,0.105,0.098,0.21,0.151,0.313
		c0.055,0.107,0.112,0.212,0.172,0.315c0.063,0.11,0.129,0.22,0.198,0.327c0.06,0.093,0.123,0.184,0.187,0.273
		c0.078,0.109,0.157,0.216,0.24,0.321c0.069,0.086,0.14,0.17,0.212,0.253c0.086,0.099,0.172,0.195,0.264,0.29
		c0.085,0.088,0.174,0.173,0.264,0.258c0.084,0.079,0.169,0.158,0.257,0.233c0.112,0.097,0.229,0.188,0.347,0.276
		c0.054,0.041,0.103,0.086,0.158,0.126c0.017,0.012,0.036,0.02,0.053,0.032c0.288,0.203,0.59,0.385,0.906,0.547
		c0.059,0.029,0.119,0.057,0.178,0.085c0.3,0.144,0.607,0.272,0.927,0.376c0.021,0.006,0.04,0.016,0.061,0.021
		c0.315,0.099,0.642,0.17,0.974,0.228c0.089,0.015,0.178,0.028,0.268,0.04c0.31,0.042,0.625,0.07,0.946,0.072
		c0.017,0,0.034,0.004,0.051,0.004c0.006,0,0.011-0.001,0.017-0.001h254.601c4.142,0,7.5-3.357,7.5-7.5V122.5
		c0-4.143-3.358-7.5-7.5-7.5H49.708c-4.142,0-7.5,3.357-7.5,7.5v209.438c0,0.075,0.009,0.147,0.011,0.223
		C42.223,332.298,42.227,332.437,42.24,332.574z M227.534,324.438l-19.516-28.085l26.553-34.363l49.299,62.448H227.534z
		 M209.267,324.438H64.31l73.596-102.692L209.267,324.438z M296.818,130v186.631l-56.424-71.473
		c-1.423-1.802-3.592-2.853-5.887-2.853c-0.013,0-0.026,0-0.039,0c-2.309,0.012-4.483,1.087-5.895,2.914l-29.531,38.216
		l-54.882-78.978c-1.391-2.001-3.667-3.202-6.104-3.22c-2.457-0.048-4.731,1.15-6.151,3.131L57.208,308.597V130H296.818z"/>
	<path d="M178.014,192.5h8.952c0.689,2.321,1.661,4.522,2.882,6.56l-6.446,6.445c-2.929,2.93-2.929,7.678,0,10.607
		c1.464,1.464,3.384,2.196,5.303,2.196c1.919,0,3.839-0.733,5.303-2.196l6.625-6.625c1.995,1.104,4.133,1.977,6.38,2.586v9.427
		c0,4.143,3.358,7.5,7.5,7.5s7.5-3.357,7.5-7.5v-9.427c2.248-0.608,4.387-1.481,6.381-2.587l6.626,6.626
		c1.465,1.464,3.384,2.196,5.303,2.196c1.919,0,3.839-0.733,5.304-2.197c2.929-2.929,2.928-7.678-0.001-10.606l-6.447-6.446
		c1.22-2.037,2.192-4.237,2.881-6.559h8.952c4.142,0,7.5-3.357,7.5-7.5c0-4.143-3.358-7.5-7.5-7.5h-8.592
		c-0.61-2.491-1.544-4.855-2.758-7.046l5.962-5.962c2.929-2.929,2.928-7.678,0-10.607c-2.93-2.928-7.678-2.929-10.607,0.001
		l-5.782,5.783c-2.23-1.337-4.656-2.376-7.223-3.071V148.5c0-4.143-3.358-7.5-7.5-7.5s-7.5,3.357-7.5,7.5v8.099
		c-2.567,0.695-4.993,1.734-7.223,3.071l-5.783-5.782c-2.93-2.928-7.678-2.929-10.607,0.001c-2.929,2.929-2.928,7.678,0.001,10.607
		l5.961,5.96c-1.213,2.191-2.147,4.555-2.757,7.045h-8.592c-4.142,0-7.5,3.357-7.5,7.5C170.514,189.143,173.871,192.5,178.014,192.5
		z M214.514,170.6c7.574,0,13.736,6.162,13.736,13.736s-6.162,13.736-13.736,13.736c-7.574,0-13.736-6.162-13.736-13.736
		S206.939,170.6,214.514,170.6z"/>
	<path d="M424.317,101.372c-2.929-2.928-7.678-2.928-10.607,0l-2.078,2.078V71.762C411.633,34.397,381.235,4,343.871,4
		c-36.266,0-65.964,28.638-67.679,64.486H7.5c-4.142,0-7.5,3.357-7.5,7.5v339.027c0,4.143,3.358,7.5,7.5,7.5h339.027
		c4.142,0,7.5-3.357,7.5-7.5V75.986c0-4.143-3.358-7.5-7.5-7.5h-55.307C292.919,40.915,315.879,19,343.871,19
		c29.093,0,52.762,23.669,52.762,52.762v31.688l-2.076-2.076c-2.93-2.93-7.678-2.929-10.607-0.001
		c-2.929,2.929-2.929,7.678,0,10.606l14.877,14.878c0.174,0.175,0.357,0.34,0.547,0.497c0.037,0.03,0.078,0.056,0.115,0.086
		c0.154,0.122,0.311,0.241,0.475,0.352c0.04,0.026,0.082,0.048,0.123,0.074c0.166,0.106,0.333,0.21,0.508,0.304
		c0.03,0.017,0.062,0.028,0.092,0.044c0.186,0.098,0.376,0.189,0.572,0.27c0.022,0.01,0.046,0.016,0.068,0.025
		c0.203,0.082,0.409,0.158,0.621,0.222c0.026,0.009,0.053,0.014,0.08,0.02c0.207,0.061,0.416,0.116,0.63,0.159
		c0.059,0.012,0.119,0.017,0.178,0.026c0.182,0.032,0.363,0.063,0.549,0.082c0.248,0.025,0.498,0.038,0.749,0.038
		s0.501-0.013,0.748-0.038c0.189-0.019,0.373-0.051,0.557-0.083c0.056-0.01,0.114-0.015,0.17-0.025
		c0.217-0.044,0.43-0.1,0.641-0.161c0.022-0.007,0.046-0.011,0.069-0.018c0.21-0.064,0.416-0.14,0.619-0.222
		c0.023-0.01,0.048-0.017,0.071-0.026c0.191-0.079,0.376-0.17,0.559-0.265c0.034-0.018,0.07-0.032,0.105-0.05
		c0.167-0.09,0.327-0.189,0.486-0.291c0.048-0.03,0.098-0.057,0.146-0.088c0.147-0.099,0.286-0.207,0.425-0.314
		c0.054-0.043,0.112-0.08,0.165-0.124c0.169-0.139,0.33-0.287,0.486-0.439c0.018-0.019,0.038-0.033,0.057-0.052l14.881-14.881
		C427.246,109.05,427.246,104.302,424.317,101.372z M339.027,407.514H15V83.486h324.027V407.514z"/>
</g>
<g>
</g>
<g>
</g>
<g>
</g>
<g>
</g>
<g>
</g>
<g>
</g>
<g>
</g>
<g>
</g>
<g>
</g>
<g>
</g>
<g>
</g>
<g>
</g>
<g>
</g>
<g>
</g>
<g>
</g>
</svg>
