<?xml version="1.0" encoding="iso-8859-1"?>
<!-- Generator: Adobe Illustrator 17.1.0, SVG Export Plug-In . SVG Version: 6.00 Build 0)  -->
<!DOCTYPE svg PUBLIC "-//W3C//DTD SVG 1.1//EN" "http://www.w3.org/Graphics/SVG/1.1/DTD/svg11.dtd">
<svg version="1.1" id="Capa_1" xmlns="http://www.w3.org/2000/svg" xmlns:xlink="http://www.w3.org/1999/xlink" x="0px" y="0px"
	 viewBox="0 0 306.001 306.001" style="enable-background:new 0 0 306.001 306.001;" xml:space="preserve">
<path d="M249.142,0H120.713c-4.142,0-7.5,3.358-7.5,7.5s3.358,7.5,7.5,7.5h54.958l-58.527,276H56.859c-4.142,0-7.5,3.358-7.5,7.5
	s3.358,7.5,7.5,7.5h66.339c0.009,0,0.019,0.001,0.028,0.001c0.006,0,0.011-0.001,0.017-0.001h62.044c4.142,0,7.5-3.358,7.5-7.5
	s-3.358-7.5-7.5-7.5h-52.811l58.527-276h58.138c4.142,0,7.5-3.358,7.5-7.5S253.284,0,249.142,0z"/>
<g>
</g>
<g>
</g>
<g>
</g>
<g>
</g>
<g>
</g>
<g>
</g>
<g>
</g>
<g>
</g>
<g>
</g>
<g>
</g>
<g>
</g>
<g>
</g>
<g>
</g>
<g>
</g>
<g>
</g>
</svg>
