<?xml version="1.0" encoding="iso-8859-1"?>
<!-- Generator: Adobe Illustrator 17.1.0, SVG Export Plug-In . SVG Version: 6.00 Build 0)  -->
<!DOCTYPE svg PUBLIC "-//W3C//DTD SVG 1.1//EN" "http://www.w3.org/Graphics/SVG/1.1/DTD/svg11.dtd">
<svg version="1.1" id="Capa_1" xmlns="http://www.w3.org/2000/svg" xmlns:xlink="http://www.w3.org/1999/xlink" x="0px" y="0px"
	 viewBox="0 0 376.912 376.912" style="enable-background:new 0 0 376.912 376.912;" xml:space="preserve">
<g>
	<path d="M366.184,31.456h-256c-4.142,0-7.5,3.358-7.5,7.5s3.358,7.5,7.5,7.5h256c4.142,0,7.5-3.358,7.5-7.5
		S370.326,31.456,366.184,31.456z"/>
	<path d="M110.184,121.456h168c4.142,0,7.5-3.358,7.5-7.5s-3.358-7.5-7.5-7.5h-168c-4.142,0-7.5,3.358-7.5,7.5
		S106.042,121.456,110.184,121.456z"/>
	<path d="M344.184,181.456h-234c-4.142,0-7.5,3.358-7.5,7.5s3.358,7.5,7.5,7.5h234c4.142,0,7.5-3.358,7.5-7.5
		S348.326,181.456,344.184,181.456z"/>
	<path d="M322.184,256.456h-212c-4.142,0-7.5,3.358-7.5,7.5c0,4.142,3.358,7.5,7.5,7.5h212c4.142,0,7.5-3.358,7.5-7.5
		C329.684,259.814,326.326,256.456,322.184,256.456z"/>
	<path d="M212.184,331.456h-102c-4.142,0-7.5,3.358-7.5,7.5c0,4.142,3.358,7.5,7.5,7.5h102c4.142,0,7.5-3.358,7.5-7.5
		C219.684,334.814,216.326,331.456,212.184,331.456z"/>
	<path d="M56.338,338.653l-12.654,12.654v-325.7l12.653,12.653c1.464,1.464,3.384,2.197,5.303,2.197
		c1.919,0,3.839-0.732,5.303-2.197c2.929-2.929,2.929-7.678,0-10.606L41.489,2.198c-0.175-0.176-0.36-0.342-0.552-0.499
		c-0.083-0.068-0.171-0.128-0.257-0.192c-0.11-0.082-0.218-0.167-0.332-0.244c-0.104-0.069-0.211-0.129-0.317-0.193
		c-0.104-0.062-0.205-0.128-0.313-0.185c-0.108-0.058-0.219-0.106-0.33-0.159c-0.112-0.053-0.221-0.108-0.336-0.156
		c-0.107-0.044-0.216-0.08-0.324-0.119c-0.123-0.044-0.244-0.091-0.369-0.129c-0.107-0.033-0.216-0.056-0.325-0.083
		c-0.128-0.033-0.256-0.069-0.387-0.095c-0.122-0.024-0.245-0.038-0.367-0.056c-0.12-0.018-0.237-0.04-0.359-0.052
		c-0.216-0.021-0.432-0.03-0.648-0.033C36.243,0.004,36.214,0,36.184,0s-0.059,0.004-0.089,0.004
		c-0.216,0.002-0.433,0.012-0.649,0.033c-0.122,0.012-0.24,0.034-0.359,0.052c-0.123,0.018-0.245,0.032-0.367,0.056
		c-0.131,0.026-0.259,0.062-0.388,0.095c-0.108,0.027-0.217,0.051-0.324,0.083c-0.125,0.038-0.246,0.084-0.369,0.129
		c-0.108,0.039-0.217,0.074-0.324,0.119c-0.115,0.047-0.224,0.103-0.336,0.156c-0.11,0.052-0.221,0.101-0.33,0.159
		c-0.107,0.058-0.209,0.123-0.313,0.185c-0.105,0.063-0.213,0.123-0.316,0.192c-0.115,0.077-0.224,0.162-0.334,0.245
		c-0.085,0.064-0.173,0.123-0.256,0.191c-0.192,0.157-0.377,0.323-0.552,0.499L5.425,27.653c-2.929,2.929-2.929,7.678,0,10.606
		c2.929,2.929,7.678,2.929,10.607,0l12.653-12.653v325.698l-12.652-12.652c-2.929-2.929-7.678-2.929-10.606,0
		c-2.929,2.929-2.929,7.678,0,10.606l25.444,25.444c0.18,0.181,0.37,0.352,0.567,0.514c0.063,0.052,0.129,0.096,0.193,0.145
		c0.13,0.1,0.26,0.2,0.396,0.291c0.091,0.061,0.185,0.112,0.277,0.168c0.116,0.071,0.231,0.144,0.351,0.208
		c0.1,0.053,0.202,0.098,0.304,0.146c0.12,0.057,0.237,0.117,0.36,0.168c0.102,0.042,0.206,0.076,0.309,0.113
		c0.127,0.046,0.253,0.095,0.383,0.134c0.105,0.032,0.212,0.055,0.318,0.082c0.13,0.033,0.26,0.069,0.393,0.096
		c0.125,0.025,0.25,0.039,0.375,0.057c0.117,0.017,0.231,0.039,0.35,0.051c0.24,0.023,0.48,0.036,0.721,0.036
		c0.006,0,0.011,0.001,0.017,0.001h0h0c0.247,0,0.494-0.013,0.74-0.038c0.106-0.01,0.208-0.03,0.313-0.045
		c0.138-0.02,0.277-0.036,0.415-0.063c0.118-0.024,0.233-0.057,0.35-0.086c0.122-0.03,0.243-0.057,0.363-0.093
		c0.113-0.034,0.222-0.077,0.333-0.116c0.121-0.043,0.242-0.083,0.36-0.132c0.102-0.042,0.2-0.092,0.299-0.139
		c0.123-0.057,0.246-0.112,0.366-0.176c0.092-0.049,0.18-0.106,0.27-0.16c0.121-0.071,0.242-0.14,0.359-0.218
		c0.093-0.062,0.18-0.132,0.27-0.198c0.107-0.079,0.216-0.154,0.32-0.239c0.136-0.112,0.264-0.233,0.392-0.354
		c0.05-0.048,0.104-0.09,0.154-0.139l25.456-25.456c2.929-2.929,2.929-7.678,0-10.606C64.016,335.724,59.267,335.724,56.338,338.653
		z"/>
</g>
<g>
</g>
<g>
</g>
<g>
</g>
<g>
</g>
<g>
</g>
<g>
</g>
<g>
</g>
<g>
</g>
<g>
</g>
<g>
</g>
<g>
</g>
<g>
</g>
<g>
</g>
<g>
</g>
<g>
</g>
</svg>
