<?xml version="1.0" encoding="iso-8859-1"?>
<!-- Generator: Adobe Illustrator 17.1.0, SVG Export Plug-In . SVG Version: 6.00 Build 0)  -->
<!DOCTYPE svg PUBLIC "-//W3C//DTD SVG 1.1//EN" "http://www.w3.org/Graphics/SVG/1.1/DTD/svg11.dtd">
<svg version="1.1" id="Capa_1" xmlns="http://www.w3.org/2000/svg" xmlns:xlink="http://www.w3.org/1999/xlink" x="0px" y="0px"
	 viewBox="0 0 346 346" style="enable-background:new 0 0 346 346;" xml:space="preserve">
<g>
	<path d="M123.313,292.97H107.5V53.03H185v23.333c0,4.142,3.358,7.5,7.5,7.5s7.5-3.358,7.5-7.5V45.53c0-4.142-3.358-7.5-7.5-7.5H7.5
		c-4.142,0-7.5,3.358-7.5,7.5v30.833c0,4.142,3.358,7.5,7.5,7.5s7.5-3.358,7.5-7.5V53.03h77.5V292.97H76.687
		c-4.142,0-7.5,3.358-7.5,7.5s3.358,7.5,7.5,7.5h46.626c4.142,0,7.5-3.358,7.5-7.5S127.455,292.97,123.313,292.97z"/>
	<path d="M338.5,243.97c-4.142,0-7.5,3.358-7.5,7.5c0,22.883-18.617,41.5-41.5,41.5s-41.5-18.617-41.5-41.5V151.5h40.5
		c4.142,0,7.5-3.358,7.5-7.5s-3.358-7.5-7.5-7.5H248V45.53c0-4.142-3.358-7.5-7.5-7.5s-7.5,3.358-7.5,7.5v90.97h-40.5
		c-4.142,0-7.5,3.358-7.5,7.5s3.358,7.5,7.5,7.5H233v99.97c0,31.154,25.346,56.5,56.5,56.5s56.5-25.346,56.5-56.5
		C346,247.328,342.642,243.97,338.5,243.97z"/>
</g>
<g>
</g>
<g>
</g>
<g>
</g>
<g>
</g>
<g>
</g>
<g>
</g>
<g>
</g>
<g>
</g>
<g>
</g>
<g>
</g>
<g>
</g>
<g>
</g>
<g>
</g>
<g>
</g>
<g>
</g>
</svg>
