<?xml version="1.0" encoding="iso-8859-1"?>
<!-- Generator: Adobe Illustrator 17.1.0, SVG Export Plug-In . SVG Version: 6.00 Build 0)  -->
<!DOCTYPE svg PUBLIC "-//W3C//DTD SVG 1.1//EN" "http://www.w3.org/Graphics/SVG/1.1/DTD/svg11.dtd">
<svg version="1.1" id="Capa_1" xmlns="http://www.w3.org/2000/svg" xmlns:xlink="http://www.w3.org/1999/xlink" x="0px" y="0px"
	 viewBox="0 0 311.745 311.745" style="enable-background:new 0 0 311.745 311.745;" xml:space="preserve">
<path d="M280.935,138.049c1.464,1.464,3.384,2.196,5.303,2.196c1.919,0,3.839-0.732,5.303-2.196c2.929-2.93,2.929-7.678,0-10.607
	L230.22,66.12V24.833l50.965,50.966c1.464,1.464,3.384,2.196,5.303,2.196c1.919,0,3.839-0.732,5.303-2.196
	c2.929-2.93,2.929-7.678,0-10.607l-63-63c-2.652-2.651-6.792-2.894-9.727-0.743c-2.293,1.283-3.845,3.732-3.845,6.547v135.769
	c0,50.306-40.926,91.231-91.231,91.231s-91.231-40.926-91.231-91.231V7.995c0-4.143-3.358-7.5-7.5-7.5s-7.5,3.357-7.5,7.5v135.769
	c0,32.411,14.595,61.474,37.553,80.975c0.256,0.372,0.544,0.73,0.875,1.061l63,63c1.464,1.464,3.384,2.196,5.303,2.196
	c1.919,0,3.839-0.732,5.303-2.196c2.929-2.93,2.929-7.678,0-10.607l-31.296-31.296c8.171,2.02,16.707,3.1,25.493,3.1
	c5.943,0,11.771-0.499,17.452-1.441l60.995,60.995c1.464,1.464,3.384,2.196,5.303,2.196c1.92,0,3.839-0.732,5.303-2.196
	c2.929-2.93,2.929-7.678,0-10.607l-54.663-54.663c9.804-3.363,18.966-8.122,27.245-14.04l58.561,58.561
	c1.464,1.464,3.384,2.196,5.303,2.196c1.919,0,3.839-0.732,5.303-2.196c2.929-2.93,2.929-7.678,0-10.607l-57.556-57.556
	c7.101-6.768,13.261-14.512,18.28-23.007l55.919,55.92c1.464,1.464,3.384,2.196,5.303,2.196c1.919,0,3.839-0.732,5.303-2.196
	c2.929-2.93,2.929-7.678,0-10.607l-59.511-59.511c4.254-10.529,6.869-21.889,7.522-33.764l50.632,50.632
	c1.464,1.464,3.384,2.196,5.303,2.196c1.919,0,3.839-0.732,5.303-2.196c2.929-2.93,2.929-7.678,0-10.607L230.22,128.62V87.333
	L280.935,138.049z"/>
<g>
</g>
<g>
</g>
<g>
</g>
<g>
</g>
<g>
</g>
<g>
</g>
<g>
</g>
<g>
</g>
<g>
</g>
<g>
</g>
<g>
</g>
<g>
</g>
<g>
</g>
<g>
</g>
<g>
</g>
</svg>
