<?xml version="1.0" encoding="iso-8859-1"?>
<!-- Generator: Adobe Illustrator 17.1.0, SVG Export Plug-In . SVG Version: 6.00 Build 0)  -->
<!DOCTYPE svg PUBLIC "-//W3C//DTD SVG 1.1//EN" "http://www.w3.org/Graphics/SVG/1.1/DTD/svg11.dtd">
<svg version="1.1" id="Capa_1" xmlns="http://www.w3.org/2000/svg" xmlns:xlink="http://www.w3.org/1999/xlink" x="0px" y="0px"
	 viewBox="0 0 409.645 409.645" style="enable-background:new 0 0 409.645 409.645;" xml:space="preserve">
<g>
	<path d="M375.554,284.109c-0.014-0.094-0.027-0.188-0.043-0.279c-0.006-0.032-0.013-0.064-0.02-0.097
		c-1.366-7.362-11.327-9.971-22.036-11.655c-10.605-1.667-24.621-2.586-39.467-2.586s-28.862,0.919-39.466,2.586
		c-10.709,1.685-20.67,4.293-22.036,11.655c-0.006,0.032-0.013,0.065-0.02,0.097c-0.016,0.092-0.029,0.186-0.043,0.279
		c-0.061,0.387-0.102,0.779-0.102,1.184v108.332c0,8.738,10.67,11.621,22.2,13.434c10.603,1.668,24.619,2.586,39.466,2.586
		c14.848,0,28.864-0.918,39.467-2.586c11.53-1.813,22.2-4.695,22.2-13.434V285.293C375.656,284.889,375.615,284.496,375.554,284.109
		z M274.522,298.942c10.604,1.668,24.621,2.587,39.467,2.587s28.863-0.919,39.467-2.587c1.848-0.291,3.673-0.609,5.436-0.975
		c-5.538,19.59-23.564,33.991-44.903,33.991c-21.338,0-39.365-14.401-44.903-33.991
		C270.849,298.333,272.674,298.651,274.522,298.942z M313.989,394.645c-24.766,0-40.947-2.59-46.667-4.482v-64.627
		c11.317,13.105,28.033,21.424,46.667,21.424s35.35-8.318,46.667-21.424v64.627C354.936,392.055,338.755,394.645,313.989,394.645z"
		/>
	<path d="M313.989,198.705c-2.347,0-4.558,1.099-5.976,2.969c-4.53,5.973-15.065,20.841-15.065,29.867
		c0,11.602,9.439,21.041,21.041,21.041c11.602,0,21.041-9.439,21.041-21.041c0-9.026-10.535-23.895-15.065-29.867
		C318.547,199.804,316.336,198.705,313.989,198.705z M313.989,237.582c-3.331,0-6.041-2.71-6.042-5.998
		c0.118-1.862,2.617-6.77,6.044-12.201c3.425,5.423,5.921,10.318,6.039,12.158C320.03,234.872,317.32,237.582,313.989,237.582z"/>
	<path d="M226.489,139.705h-185c-4.142,0-7.5,3.357-7.5,7.5v30.832c0,4.143,3.358,7.5,7.5,7.5s7.5-3.357,7.5-7.5v-23.332h77.5
		v239.939h-15.813c-4.142,0-7.5,3.357-7.5,7.5c0,4.143,3.358,7.5,7.5,7.5h46.626c4.142,0,7.5-3.357,7.5-7.5
		c0-4.143-3.358-7.5-7.5-7.5h-15.813V154.705h77.5v23.332c0,4.143,3.358,7.5,7.5,7.5s7.5-3.357,7.5-7.5v-30.832
		C233.989,143.063,230.631,139.705,226.489,139.705z"/>
	<path d="M306.652,75.221v99.984c0,4.143,3.358,7.5,7.5,7.5c4.142,0,7.5-3.357,7.5-7.5V75.221C321.652,33.744,287.908,0,246.431,0
		c-41.477,0-75.22,33.744-75.22,75.221v7.688l-3.919-3.919c-2.93-2.928-7.678-2.929-10.607,0.001
		c-2.929,2.929-2.928,7.678,0.001,10.606l16.722,16.721c0.011,0.012,0.024,0.021,0.035,0.032c0.165,0.162,0.335,0.317,0.514,0.465
		c0.087,0.07,0.178,0.133,0.267,0.199c0.107,0.08,0.211,0.162,0.323,0.237c0.105,0.07,0.214,0.131,0.322,0.195
		c0.102,0.062,0.203,0.126,0.308,0.182c0.11,0.06,0.224,0.108,0.335,0.162c0.109,0.052,0.217,0.106,0.329,0.152
		c0.11,0.046,0.222,0.082,0.333,0.122c0.12,0.043,0.238,0.089,0.36,0.126c0.111,0.033,0.223,0.058,0.335,0.086
		c0.126,0.032,0.249,0.066,0.377,0.092c0.13,0.026,0.26,0.041,0.391,0.06c0.111,0.017,0.221,0.037,0.334,0.049
		c0.246,0.023,0.493,0.037,0.74,0.037c0.247,0,0.494-0.014,0.74-0.037c0.113-0.012,0.223-0.032,0.334-0.049
		c0.13-0.019,0.261-0.033,0.391-0.06c0.128-0.024,0.252-0.06,0.377-0.092c0.112-0.028,0.224-0.053,0.335-0.086
		c0.122-0.037,0.24-0.083,0.36-0.126c0.111-0.04,0.223-0.076,0.333-0.122c0.112-0.046,0.22-0.101,0.329-0.152
		c0.112-0.054,0.225-0.103,0.335-0.162c0.104-0.056,0.204-0.12,0.306-0.181c0.108-0.065,0.218-0.126,0.324-0.197
		c0.111-0.073,0.215-0.156,0.321-0.235c0.09-0.067,0.181-0.129,0.269-0.2c0.179-0.147,0.35-0.303,0.514-0.465
		c0.011-0.012,0.024-0.021,0.035-0.032l16.722-16.721c2.929-2.929,2.929-7.678,0-10.606c-2.93-2.93-7.678-2.929-10.607-0.001
		l-3.919,3.919v-7.688c0-33.206,27.015-60.221,60.22-60.221S306.652,42.015,306.652,75.221z"/>
</g>
<g>
</g>
<g>
</g>
<g>
</g>
<g>
</g>
<g>
</g>
<g>
</g>
<g>
</g>
<g>
</g>
<g>
</g>
<g>
</g>
<g>
</g>
<g>
</g>
<g>
</g>
<g>
</g>
<g>
</g>
</svg>
