<?xml version="1.0" encoding="iso-8859-1"?>
<!-- Generator: Adobe Illustrator 17.1.0, SVG Export Plug-In . SVG Version: 6.00 Build 0)  -->
<!DOCTYPE svg PUBLIC "-//W3C//DTD SVG 1.1//EN" "http://www.w3.org/Graphics/SVG/1.1/DTD/svg11.dtd">
<svg version="1.1" id="Capa_1" xmlns="http://www.w3.org/2000/svg" xmlns:xlink="http://www.w3.org/1999/xlink" x="0px" y="0px"
	 viewBox="0 0 349.569 349.569" style="enable-background:new 0 0 349.569 349.569;" xml:space="preserve">
<g>
	<path d="M342.069,262.799c-13.018,0-23.608-10.59-23.608-23.607V76.188c0-4.143-3.357-7.5-7.5-7.5c-4.143,0-7.5,3.357-7.5,7.5
		v43.147c-18.324-30.328-51.609-50.647-89.553-50.647c-57.652,0-104.556,46.903-104.556,104.556
		c0,57.651,46.903,104.555,104.556,104.555c37.943,0,71.229-20.32,89.553-50.648v12.306c0,0.091,0.011,0.179,0.014,0.27
		c0.288,21.041,17.484,38.072,38.595,38.072c4.143,0,7.5-3.357,7.5-7.5C349.569,266.156,346.212,262.799,342.069,262.799z
		 M213.908,262.799c-49.381,0-89.556-40.174-89.556-89.555c0-49.381,40.175-89.556,89.556-89.556
		c49.38,0,89.553,40.175,89.553,89.556C303.461,222.625,263.288,262.799,213.908,262.799z"/>
	<path d="M132.761,274.022c-3.238-2.58-7.958-2.045-10.538,1.196l-43.951,55.206c-2.58,3.24-2.045,7.959,1.196,10.538
		c1.38,1.1,3.028,1.633,4.666,1.633c2.206,0,4.392-0.969,5.872-2.829l43.951-55.206C136.537,281.32,136.002,276.601,132.761,274.022
		z"/>
	<path d="M102.566,239.862c-2.163-3.532-6.78-4.643-10.313-2.48l-60.182,36.844c-3.532,2.163-4.643,6.78-2.48,10.313
		c1.415,2.311,3.879,3.585,6.403,3.585c1.335,0,2.688-0.357,3.909-1.104l60.182-36.844
		C103.618,248.012,104.729,243.394,102.566,239.862z"/>
	<path d="M85.875,197.436c-0.825-4.059-4.782-6.683-8.843-5.858L7.881,205.615c-4.06,0.824-6.682,4.783-5.858,8.843
		c0.723,3.556,3.85,6.009,7.343,6.009c0.494,0,0.997-0.049,1.5-0.151l69.151-14.036C84.076,205.455,86.698,201.496,85.875,197.436z"
		/>
	<path d="M6.39,147.706l69.783,10.458c0.377,0.057,0.751,0.084,1.121,0.084c3.65,0,6.85-2.67,7.407-6.39
		c0.614-4.096-2.209-7.915-6.306-8.528L8.612,132.872c-4.096-0.613-7.914,2.209-8.528,6.306
		C-0.53,143.273,2.293,147.093,6.39,147.706z"/>
	<path d="M27.019,77.943l61.999,33.696c1.138,0.618,2.364,0.911,3.574,0.911c2.66,0,5.237-1.418,6.597-3.92
		c1.978-3.639,0.631-8.192-3.009-10.171L34.181,64.764c-3.639-1.979-8.193-0.632-10.171,3.009
		C22.032,71.411,23.379,75.965,27.019,77.943z"/>
	<path d="M116.999,72.311c1.482,1.678,3.547,2.533,5.622,2.533c1.765,0,3.538-0.62,4.964-1.881
		c3.103-2.743,3.396-7.483,0.652-10.586L81.502,9.508c-2.743-3.106-7.483-3.397-10.586-0.652c-3.104,2.743-3.396,7.483-0.652,10.586
		L116.999,72.311z"/>
</g>
<g>
</g>
<g>
</g>
<g>
</g>
<g>
</g>
<g>
</g>
<g>
</g>
<g>
</g>
<g>
</g>
<g>
</g>
<g>
</g>
<g>
</g>
<g>
</g>
<g>
</g>
<g>
</g>
<g>
</g>
</svg>
