<?xml version="1.0" encoding="iso-8859-1"?>
<!-- Generator: Adobe Illustrator 17.1.0, SVG Export Plug-In . SVG Version: 6.00 Build 0)  -->
<!DOCTYPE svg PUBLIC "-//W3C//DTD SVG 1.1//EN" "http://www.w3.org/Graphics/SVG/1.1/DTD/svg11.dtd">
<svg version="1.1" id="Capa_1" xmlns="http://www.w3.org/2000/svg" xmlns:xlink="http://www.w3.org/1999/xlink" x="0px" y="0px"
	 viewBox="0 0 313.425 313.425" style="enable-background:new 0 0 313.425 313.425;" xml:space="preserve">
<g>
	<path d="M296.15,20.543l-3.241-3.241C281.751,6.145,266.917,0,251.138,0s-30.613,6.145-41.77,17.302L157.5,69.167
		c-2.929,2.929-2.929,7.677,0,10.606c2.93,2.929,7.679,2.929,10.607,0l51.868-51.865C228.298,19.584,239.365,15,251.138,15
		c11.772,0,22.84,4.584,31.165,12.909l3.241,3.241c17.185,17.184,17.185,45.146,0,62.33l-94.005,94.006
		c-17.185,17.183-45.144,17.184-62.331-0.001l-3.241-3.241c-6.197-6.198-10.369-13.996-12.063-22.553
		c-0.806-4.063-4.753-6.705-8.814-5.899c-4.063,0.805-6.705,4.751-5.9,8.814c2.274,11.48,7.866,21.939,16.172,30.245l3.241,3.241
		c11.519,11.518,26.643,17.276,41.771,17.274c15.126-0.001,30.257-5.759,41.772-17.274l94.006-94.006
		C319.184,81.054,319.184,43.577,296.15,20.543z"/>
	<path d="M145.345,233.679l-51.866,51.866c-17.185,17.185-45.146,17.183-62.328,0l-3.241-3.242
		c-17.185-17.185-17.185-45.145,0-62.33l94.005-94.006c17.185-17.184,45.146-17.183,62.33-0.001l3.241,3.242
		c6.198,6.198,10.37,13.996,12.066,22.553c0.805,4.063,4.752,6.708,8.814,5.899c4.064-0.805,6.704-4.752,5.898-8.815
		c-2.274-11.48-7.867-21.938-16.172-30.243l-3.242-3.242c-23.032-23.033-60.511-23.032-83.543,0l-94.006,94.006
		C6.145,220.524,0,235.359,0,251.138c0,15.779,6.145,30.614,17.302,41.77l3.242,3.243c11.517,11.516,26.644,17.274,41.771,17.274
		c15.127,0,30.255-5.758,41.771-17.274l51.866-51.866c2.929-2.929,2.929-7.678,0-10.606
		C153.023,230.75,148.275,230.749,145.345,233.679z"/>
</g>
<g>
</g>
<g>
</g>
<g>
</g>
<g>
</g>
<g>
</g>
<g>
</g>
<g>
</g>
<g>
</g>
<g>
</g>
<g>
</g>
<g>
</g>
<g>
</g>
<g>
</g>
<g>
</g>
<g>
</g>
</svg>
