<?xml version="1.0" encoding="iso-8859-1"?>
<!-- Generator: Adobe Illustrator 17.1.0, SVG Export Plug-In . SVG Version: 6.00 Build 0)  -->
<!DOCTYPE svg PUBLIC "-//W3C//DTD SVG 1.1//EN" "http://www.w3.org/Graphics/SVG/1.1/DTD/svg11.dtd">
<svg version="1.1" id="Capa_1" xmlns="http://www.w3.org/2000/svg" xmlns:xlink="http://www.w3.org/1999/xlink" x="0px" y="0px"
	 viewBox="0 0 412.5 412.5" style="enable-background:new 0 0 412.5 412.5;" xml:space="preserve">
<g>
	<path d="M284.617,259.018c15.35-17.784,24.645-40.934,24.645-66.214c0-55.948-45.518-101.466-101.467-101.466
		c-55.948,0-101.465,45.517-101.465,101.466c0,55.948,45.517,101.465,101.465,101.465c25.28,0,48.43-9.295,66.214-24.645
		l49.34,49.341c1.465,1.464,3.384,2.196,5.304,2.196c1.919,0,3.839-0.732,5.304-2.196c2.929-2.93,2.929-7.678,0-10.607
		L284.617,259.018z M121.33,192.804c0-47.678,38.788-86.466,86.465-86.466c47.678,0,86.467,38.788,86.467,86.466
		c0,23.532-9.454,44.895-24.759,60.501c-0.221,0.176-0.435,0.362-0.64,0.566s-0.391,0.419-0.566,0.641
		c-15.607,15.304-36.97,24.757-60.502,24.757C160.118,279.269,121.33,240.481,121.33,192.804z"/>
	<path d="M245.774,136.675h-75.958c-4.142,0-7.5,3.357-7.5,7.5v12.658c0,4.143,3.358,7.5,7.5,7.5s7.5-3.357,7.5-7.5v-5.158h22.979
		v89.676h-2.072c-4.142,0-7.5,3.357-7.5,7.5c0,4.143,3.358,7.5,7.5,7.5h19.143c4.143,0,7.5-3.357,7.5-7.5c0-4.143-3.357-7.5-7.5-7.5
		h-2.071v-89.676h22.979v5.158c0,4.143,3.357,7.5,7.5,7.5c4.143,0,7.5-3.357,7.5-7.5v-12.658
		C253.274,140.033,249.917,136.675,245.774,136.675z"/>
	<path d="M7.5,114.993h109.421c4.142,0,7.5-3.357,7.5-7.5c0-4.143-3.358-7.5-7.5-7.5H7.5c-4.142,0-7.5,3.357-7.5,7.5
		C0,111.635,3.358,114.993,7.5,114.993z"/>
	<path d="M295.579,114.993H405c4.143,0,7.5-3.357,7.5-7.5c0-4.143-3.357-7.5-7.5-7.5H295.579c-4.143,0-7.5,3.357-7.5,7.5
		C288.079,111.635,291.436,114.993,295.579,114.993z"/>
	<path d="M79.829,219.304H7.5c-4.142,0-7.5,3.357-7.5,7.5s3.358,7.5,7.5,7.5h72.329c4.142,0,7.5-3.357,7.5-7.5
		S83.971,219.304,79.829,219.304z"/>
	<path d="M405,219.304h-72.329c-4.143,0-7.5,3.357-7.5,7.5s3.357,7.5,7.5,7.5H405c4.143,0,7.5-3.357,7.5-7.5
		S409.143,219.304,405,219.304z"/>
	<path d="M79.829,159.649H7.5c-4.142,0-7.5,3.357-7.5,7.5c0,4.143,3.358,7.5,7.5,7.5h72.329c4.142,0,7.5-3.357,7.5-7.5
		C87.329,163.006,83.971,159.649,79.829,159.649z"/>
	<path d="M405,159.649h-72.329c-4.143,0-7.5,3.357-7.5,7.5c0,4.143,3.357,7.5,7.5,7.5H405c4.143,0,7.5-3.357,7.5-7.5
		C412.5,163.006,409.143,159.649,405,159.649z"/>
</g>
<g>
</g>
<g>
</g>
<g>
</g>
<g>
</g>
<g>
</g>
<g>
</g>
<g>
</g>
<g>
</g>
<g>
</g>
<g>
</g>
<g>
</g>
<g>
</g>
<g>
</g>
<g>
</g>
<g>
</g>
</svg>
