<?xml version="1.0" encoding="iso-8859-1"?>
<!-- Generator: Adobe Illustrator 17.1.0, SVG Export Plug-In . SVG Version: 6.00 Build 0)  -->
<!DOCTYPE svg PUBLIC "-//W3C//DTD SVG 1.1//EN" "http://www.w3.org/Graphics/SVG/1.1/DTD/svg11.dtd">
<svg version="1.1" id="Capa_1" xmlns="http://www.w3.org/2000/svg" xmlns:xlink="http://www.w3.org/1999/xlink" x="0px" y="0px"
	 viewBox="0 0 456 456" style="enable-background:new 0 0 456 456;" xml:space="preserve">
<g>
	<path d="M222.79,160.442H116.4c-4.142,0-7.5,3.358-7.5,7.5v87.513c0,0.074,0.009,0.146,0.011,0.22
		c0.004,0.14,0.009,0.279,0.021,0.417c0.01,0.122,0.026,0.243,0.042,0.363c0.016,0.117,0.032,0.234,0.054,0.35
		c0.024,0.132,0.053,0.262,0.084,0.392c0.025,0.104,0.051,0.208,0.08,0.312c0.038,0.131,0.079,0.26,0.123,0.388
		c0.036,0.103,0.072,0.205,0.112,0.307c0.047,0.12,0.098,0.237,0.151,0.354c0.049,0.108,0.1,0.215,0.155,0.322
		c0.053,0.104,0.109,0.206,0.167,0.306c0.065,0.114,0.133,0.226,0.205,0.337c0.057,0.088,0.117,0.175,0.178,0.261
		c0.081,0.114,0.164,0.225,0.25,0.335c0.065,0.081,0.132,0.16,0.2,0.238c0.089,0.104,0.181,0.206,0.276,0.305
		c0.08,0.082,0.164,0.162,0.247,0.241c0.09,0.086,0.181,0.17,0.276,0.251c0.104,0.089,0.211,0.172,0.32,0.255
		c0.06,0.046,0.115,0.097,0.177,0.141c0.019,0.014,0.04,0.022,0.059,0.036c0.286,0.201,0.585,0.381,0.898,0.542
		c0.06,0.031,0.121,0.058,0.181,0.087c0.301,0.145,0.611,0.274,0.933,0.378c0.017,0.006,0.034,0.014,0.051,0.019
		c0.317,0.1,0.647,0.171,0.981,0.228c0.086,0.015,0.171,0.028,0.258,0.04c0.318,0.043,0.641,0.072,0.97,0.074
		c0.011,0,0.021,0.003,0.032,0.003c0.003,0,0.005,0,0.008,0H222.79c4.142,0,7.5-3.358,7.5-7.5v-87.513
		C230.29,163.8,226.932,160.442,222.79,160.442z M215.29,175.442v61.04l-15.784-19.994c-1.423-1.802-3.592-2.853-5.887-2.853
		c-0.013,0-0.026,0-0.039,0c-2.309,0.012-4.484,1.087-5.895,2.914l-8.698,11.256l-19.534-28.11c-1.391-2.001-3.667-3.202-6.104-3.22
		c-0.019,0-0.037,0-0.055,0c-2.417,0-4.687,1.165-6.096,3.131L123.9,232.115v-56.673H215.29z M192.987,247.955l-5.025-7.232
		l5.72-7.402l11.553,14.635H192.987z M174.722,247.955h-43.719l22.196-30.972L174.722,247.955z"/>
	<path d="M373.918,0h-94.633c-4.142,0-7.5,3.358-7.5,7.5v77.726c-4.333-2.477-9.342-3.901-14.68-3.901
		c-16.365,0-29.68,13.314-29.68,29.68c0,5.519,1.519,10.687,4.153,15.118H82.082c-4.142,0-7.5,3.358-7.5,7.5V308.65
		c0,4.142,3.358,7.5,7.5,7.5h69.584V448.5c0,4.142,3.358,7.5,7.5,7.5h194.761c4.142,0,7.5-3.358,7.5-7.5V309.092
		c0-4.142-3.358-7.5-7.5-7.5h-89.317V139.722c12.745-3.332,22.177-14.943,22.177-28.717v-76.29h79.633v50.511
		c-4.333-2.477-9.342-3.901-14.68-3.901c-16.365,0-29.679,13.314-29.679,29.68c0,16.365,13.314,29.68,29.679,29.68
		c15.365,0,28.039-11.737,29.531-26.715c0.097-0.48,0.148-0.977,0.148-1.486V7.5C381.418,3.358,378.061,0,373.918,0z
		 M89.582,141.123h160.027V301.15H89.582V141.123z M346.426,441H166.665V316.592h179.761V441z M257.105,125.685
		c-8.094,0-14.68-6.586-14.68-14.68c0-8.094,6.585-14.68,14.68-14.68c8.095,0,14.68,6.585,14.68,14.68
		C271.786,119.099,265.2,125.685,257.105,125.685z M286.786,19.715V15h79.633v4.715H286.786z M351.739,125.685
		c-8.094,0-14.679-6.586-14.679-14.68c0-8.094,6.585-14.68,14.679-14.68c8.094,0,14.68,6.585,14.68,14.68
		C366.418,119.099,359.833,125.685,351.739,125.685z"/>
	<path d="M202.53,433.449h108.032c4.142,0,7.5-3.358,7.5-7.5v-94.306c0-4.142-3.358-7.5-7.5-7.5H202.53c-4.142,0-7.5,3.358-7.5,7.5
		v94.306C195.03,430.091,198.388,433.449,202.53,433.449z M210.03,339.143h93.032v79.306H210.03V339.143z"/>
	<path d="M177.926,339.143h6c4.142,0,7.5-3.358,7.5-7.5c0-4.142-3.358-7.5-7.5-7.5h-6c-4.142,0-7.5,3.358-7.5,7.5
		C170.426,335.785,173.784,339.143,177.926,339.143z"/>
	<path d="M177.926,362.72h6c4.142,0,7.5-3.358,7.5-7.5c0-4.142-3.358-7.5-7.5-7.5h-6c-4.142,0-7.5,3.358-7.5,7.5
		C170.426,359.362,173.784,362.72,177.926,362.72z"/>
	<path d="M177.926,386.296h6c4.142,0,7.5-3.358,7.5-7.5s-3.358-7.5-7.5-7.5h-6c-4.142,0-7.5,3.358-7.5,7.5
		S173.784,386.296,177.926,386.296z"/>
	<path d="M177.926,409.873h6c4.142,0,7.5-3.358,7.5-7.5c0-4.142-3.358-7.5-7.5-7.5h-6c-4.142,0-7.5,3.358-7.5,7.5
		C170.426,406.515,173.784,409.873,177.926,409.873z"/>
	<path d="M177.926,433.449h6c4.142,0,7.5-3.358,7.5-7.5s-3.358-7.5-7.5-7.5h-6c-4.142,0-7.5,3.358-7.5,7.5
		S173.784,433.449,177.926,433.449z"/>
	<path d="M328.926,339.143h6c4.142,0,7.5-3.358,7.5-7.5c0-4.142-3.358-7.5-7.5-7.5h-6c-4.142,0-7.5,3.358-7.5,7.5
		C321.426,335.785,324.784,339.143,328.926,339.143z"/>
	<path d="M328.926,362.72h6c4.142,0,7.5-3.358,7.5-7.5c0-4.142-3.358-7.5-7.5-7.5h-6c-4.142,0-7.5,3.358-7.5,7.5
		C321.426,359.362,324.784,362.72,328.926,362.72z"/>
	<path d="M328.926,386.296h6c4.142,0,7.5-3.358,7.5-7.5s-3.358-7.5-7.5-7.5h-6c-4.142,0-7.5,3.358-7.5,7.5
		S324.784,386.296,328.926,386.296z"/>
	<path d="M328.926,409.873h6c4.142,0,7.5-3.358,7.5-7.5c0-4.142-3.358-7.5-7.5-7.5h-6c-4.142,0-7.5,3.358-7.5,7.5
		C321.426,406.515,324.784,409.873,328.926,409.873z"/>
	<path d="M328.926,433.449h6c4.142,0,7.5-3.358,7.5-7.5s-3.358-7.5-7.5-7.5h-6c-4.142,0-7.5,3.358-7.5,7.5
		S324.784,433.449,328.926,433.449z"/>
	<path d="M274.049,366.379l-17.795-12.059c-2.53-1.714-5.468-2.582-8.416-2.582c-2.408,0-4.822,0.579-7.027,1.748
		c-4.905,2.602-7.972,7.7-7.972,13.252v24.118c0,5.552,3.067,10.65,7.972,13.252c2.205,1.169,4.62,1.748,7.027,1.748
		c2.948,0,5.885-0.868,8.416-2.583l17.795-12.059c4.118-2.791,6.585-7.442,6.585-12.417
		C280.634,373.821,278.167,369.17,274.049,366.379z M247.839,390.855v-24.118l17.795,12.059L247.839,390.855z"/>
</g>
<g>
</g>
<g>
</g>
<g>
</g>
<g>
</g>
<g>
</g>
<g>
</g>
<g>
</g>
<g>
</g>
<g>
</g>
<g>
</g>
<g>
</g>
<g>
</g>
<g>
</g>
<g>
</g>
<g>
</g>
</svg>
