<?xml version="1.0" encoding="iso-8859-1"?>
<!-- Generator: Adobe Illustrator 17.1.0, SVG Export Plug-In . SVG Version: 6.00 Build 0)  -->
<!DOCTYPE svg PUBLIC "-//W3C//DTD SVG 1.1//EN" "http://www.w3.org/Graphics/SVG/1.1/DTD/svg11.dtd">
<svg version="1.1" id="Capa_1" xmlns="http://www.w3.org/2000/svg" xmlns:xlink="http://www.w3.org/1999/xlink" x="0px" y="0px"
	 viewBox="0 0 421 421" style="enable-background:new 0 0 421 421;" xml:space="preserve">
<g>
	<path d="M271,152c4.142,0,7.5-3.357,7.5-7.5v-31c0-4.143-3.358-7.5-7.5-7.5H107c-4.142,0-7.5,3.357-7.5,7.5v31
		c0,4.143,3.358,7.5,7.5,7.5H271z M114.5,121h149v16h-149V121z"/>
	<path d="M372,50.5C372,22.654,349.346,0,321.5,0c-25.297,0-46.306,18.699-49.94,43H56.5c-4.142,0-7.5,3.357-7.5,7.5v363
		c0,4.143,3.358,7.5,7.5,7.5h183c0.014,0,0.027-0.002,0.04-0.002c0.234-0.001,0.468-0.013,0.7-0.035
		c0.158-0.016,0.311-0.044,0.466-0.068c0.085-0.015,0.172-0.022,0.257-0.04c0.18-0.035,0.355-0.083,0.531-0.131
		c0.059-0.017,0.119-0.028,0.177-0.046c0.176-0.053,0.347-0.117,0.518-0.183c0.058-0.022,0.117-0.04,0.174-0.064
		c0.162-0.066,0.318-0.144,0.474-0.222c0.064-0.031,0.13-0.059,0.193-0.093c0.143-0.076,0.281-0.162,0.418-0.248
		c0.072-0.045,0.146-0.084,0.216-0.131c0.133-0.09,0.259-0.188,0.386-0.285c0.068-0.052,0.14-0.1,0.206-0.154
		c0.176-0.144,0.343-0.297,0.505-0.456c0.013-0.014,0.028-0.024,0.042-0.038l82-82c0.001-0.001,0.002-0.002,0.003-0.003
		c0.235-0.236,0.449-0.492,0.651-0.758c0.045-0.059,0.09-0.118,0.134-0.179c0.192-0.267,0.37-0.544,0.526-0.836
		c0.01-0.02,0.019-0.04,0.029-0.059c0.144-0.275,0.268-0.564,0.377-0.858c0.022-0.06,0.044-0.118,0.065-0.178
		c0.107-0.314,0.2-0.633,0.266-0.964c0.002-0.012,0.003-0.024,0.005-0.036c0.059-0.301,0.094-0.609,0.115-0.921
		c0.006-0.088,0.01-0.176,0.013-0.264c0.003-0.084,0.013-0.165,0.013-0.249V100.44C353.301,96.806,372,75.797,372,50.5z M64,58
		h207.56c3.268,21.854,20.586,39.172,42.44,42.44V324h-74.5c-4.142,0-7.5,3.357-7.5,7.5V406H64V58z M247,395.394V339h56.394
		L247,395.394z M321.5,86C301.925,86,286,70.075,286,50.5S301.925,15,321.5,15S357,30.925,357,50.5S341.075,86,321.5,86z"/>
	<path d="M340.5,43H329V31.5c0-4.143-3.358-7.5-7.5-7.5s-7.5,3.357-7.5,7.5V43h-11.5c-4.142,0-7.5,3.357-7.5,7.5s3.358,7.5,7.5,7.5
		H314v11.5c0,4.143,3.358,7.5,7.5,7.5s7.5-3.357,7.5-7.5V58h11.5c4.142,0,7.5-3.357,7.5-7.5S344.642,43,340.5,43z"/>
</g>
<g>
</g>
<g>
</g>
<g>
</g>
<g>
</g>
<g>
</g>
<g>
</g>
<g>
</g>
<g>
</g>
<g>
</g>
<g>
</g>
<g>
</g>
<g>
</g>
<g>
</g>
<g>
</g>
<g>
</g>
</svg>
