<?xml version="1.0" encoding="iso-8859-1"?>
<!-- Generator: Adobe Illustrator 17.1.0, SVG Export Plug-In . SVG Version: 6.00 Build 0)  -->
<!DOCTYPE svg PUBLIC "-//W3C//DTD SVG 1.1//EN" "http://www.w3.org/Graphics/SVG/1.1/DTD/svg11.dtd">
<svg version="1.1" id="Capa_1" xmlns="http://www.w3.org/2000/svg" xmlns:xlink="http://www.w3.org/1999/xlink" x="0px" y="0px"
	 viewBox="0 0 362.053 362.053" style="enable-background:new 0 0 362.053 362.053;" xml:space="preserve">
<g>
	<path d="M345.423,117.604c-2.929-2.929-7.678-2.93-10.607-0.001l-5.24,5.239v-42.27C329.576,36.145,293.433,0,249.006,0
		c-43.045,0-78.313,33.93-80.468,76.449h-48.605c-4.143,0-7.5,3.357-7.5,7.5v81.308h-90.5c-4.143,0-7.5,3.357-7.5,7.5v181.795
		c0,0.107,0.012,0.212,0.017,0.319c0.004,0.1,0.006,0.199,0.015,0.299c0.019,0.239,0.052,0.476,0.093,0.708
		c0.008,0.043,0.012,0.087,0.02,0.13c0.058,0.291,0.133,0.575,0.223,0.854c0.013,0.039,0.029,0.077,0.042,0.116
		c0.081,0.236,0.173,0.467,0.276,0.692c0.03,0.066,0.063,0.131,0.096,0.197c0.104,0.21,0.217,0.414,0.34,0.613
		c0.023,0.037,0.039,0.076,0.063,0.113c0.011,0.018,0.024,0.031,0.035,0.049c0.16,0.244,0.331,0.481,0.518,0.705
		c0.022,0.025,0.045,0.049,0.067,0.074c0.163,0.19,0.335,0.371,0.516,0.545c0.064,0.06,0.128,0.116,0.192,0.174
		c0.156,0.14,0.317,0.271,0.484,0.398c0.063,0.047,0.125,0.096,0.191,0.142c0.467,0.329,0.973,0.606,1.51,0.823
		c0.053,0.021,0.107,0.039,0.16,0.059c0.216,0.082,0.435,0.154,0.659,0.215c0.077,0.021,0.153,0.041,0.231,0.059
		c0.212,0.051,0.427,0.092,0.646,0.124c0.076,0.012,0.152,0.025,0.229,0.035c0.289,0.033,0.581,0.056,0.879,0.056h237.412
		c0.332,0,0.656-0.028,0.977-0.071c0.078-0.01,0.155-0.022,0.232-0.035c0.286-0.046,0.566-0.106,0.841-0.184
		c0.033-0.009,0.067-0.016,0.1-0.025c0.313-0.094,0.617-0.209,0.912-0.341c0.05-0.023,0.099-0.049,0.148-0.072
		c0.254-0.12,0.499-0.254,0.736-0.4c0.046-0.029,0.094-0.056,0.14-0.086c0.265-0.172,0.519-0.359,0.759-0.564
		c0.045-0.037,0.086-0.078,0.129-0.117c0.2-0.178,0.39-0.365,0.57-0.564c0.048-0.053,0.098-0.104,0.143-0.158
		c0.207-0.241,0.4-0.492,0.574-0.758c0.024-0.036,0.045-0.075,0.068-0.112c0.157-0.248,0.299-0.506,0.427-0.772
		c0.016-0.033,0.037-0.063,0.053-0.096l57.416-124.379c1.072-2.322,0.887-5.031-0.492-7.186c-1.378-2.154-3.76-3.458-6.317-3.458
		h-49.916v-49.916c0-4.143-3.357-7.5-7.5-7.5h-19.912V83.949c0-4.143-3.357-7.5-7.5-7.5h-48.356
		C185.714,42.208,214.235,15,249.006,15c36.155,0,65.57,29.416,65.57,65.572v42.271l-5.241-5.24
		c-2.928-2.928-7.677-2.929-10.607,0.001c-2.929,2.929-2.929,7.678,0.001,10.606l18.038,18.036c0.178,0.178,0.364,0.346,0.558,0.505
		c0.076,0.062,0.155,0.115,0.232,0.174c0.118,0.089,0.234,0.18,0.357,0.263c0.099,0.065,0.202,0.123,0.303,0.184
		c0.108,0.065,0.215,0.133,0.326,0.193c0.105,0.056,0.215,0.104,0.322,0.154c0.113,0.055,0.226,0.111,0.342,0.159
		c0.107,0.044,0.215,0.079,0.322,0.118c0.123,0.044,0.245,0.091,0.371,0.129c0.107,0.033,0.217,0.057,0.325,0.084
		c0.128,0.033,0.255,0.068,0.386,0.094c0.128,0.025,0.256,0.041,0.385,0.059c0.113,0.018,0.225,0.038,0.34,0.05
		c0.246,0.025,0.492,0.037,0.739,0.037s0.493-0.013,0.739-0.037c0.115-0.012,0.227-0.032,0.34-0.05
		c0.129-0.018,0.257-0.033,0.385-0.059c0.131-0.025,0.258-0.061,0.386-0.094c0.108-0.027,0.218-0.051,0.325-0.084
		c0.127-0.038,0.248-0.085,0.371-0.13c0.107-0.038,0.216-0.073,0.321-0.117c0.117-0.049,0.229-0.105,0.344-0.159
		c0.108-0.051,0.216-0.099,0.321-0.154c0.111-0.061,0.218-0.128,0.326-0.193c0.101-0.061,0.204-0.118,0.303-0.184
		c0.123-0.083,0.239-0.174,0.358-0.263c0.077-0.059,0.156-0.112,0.232-0.174c0.193-0.159,0.38-0.327,0.558-0.505l18.037-18.036
		C348.352,125.282,348.352,120.533,345.423,117.604z M112.434,180.258v42.416H79.35c-2.925,0-5.583,1.701-6.81,4.356l-43.106,93.381
		V180.258H112.434z M254.547,347.053H33.656l50.492-109.379h220.891L254.547,347.053z M251.846,180.258v42.416h-12.412v-42.416
		H251.846z M224.434,172.738c0,0.007-0.001,0.013-0.001,0.013c0,0.014,0.001,0.019,0.001,0.026v49.896h-97V91.449h97V172.738z"/>
	<path d="M149.934,127.449h52c4.143,0,7.5-3.358,7.5-7.5c0-4.143-3.357-7.5-7.5-7.5h-52c-4.143,0-7.5,3.357-7.5,7.5
		C142.434,124.092,145.791,127.449,149.934,127.449z"/>
	<path d="M149.934,166.449h52c4.143,0,7.5-3.357,7.5-7.5c0-4.143-3.357-7.5-7.5-7.5h-52c-4.143,0-7.5,3.357-7.5,7.5
		C142.434,163.092,145.791,166.449,149.934,166.449z"/>
	<path d="M149.934,205.449h52c4.143,0,7.5-3.357,7.5-7.5c0-4.143-3.357-7.5-7.5-7.5h-52c-4.143,0-7.5,3.357-7.5,7.5
		C142.434,202.092,145.791,205.449,149.934,205.449z"/>
</g>
<g>
</g>
<g>
</g>
<g>
</g>
<g>
</g>
<g>
</g>
<g>
</g>
<g>
</g>
<g>
</g>
<g>
</g>
<g>
</g>
<g>
</g>
<g>
</g>
<g>
</g>
<g>
</g>
<g>
</g>
</svg>
