<?xml version="1.0" encoding="iso-8859-1"?>
<!-- Generator: Adobe Illustrator 17.1.0, SVG Export Plug-In . SVG Version: 6.00 Build 0)  -->
<!DOCTYPE svg PUBLIC "-//W3C//DTD SVG 1.1//EN" "http://www.w3.org/Graphics/SVG/1.1/DTD/svg11.dtd">
<svg version="1.1" id="Capa_1" xmlns="http://www.w3.org/2000/svg" xmlns:xlink="http://www.w3.org/1999/xlink" x="0px" y="0px"
	 viewBox="0 0 437.656 437.656" style="enable-background:new 0 0 437.656 437.656;" xml:space="preserve">
<g>
	<path d="M416.317,160.838c0.263-0.2,0.518-0.412,0.758-0.652l18.385-18.385c1.406-1.407,2.196-3.314,2.196-5.304
		c0-1.989-0.79-3.896-2.196-5.304l-46.67-46.669c-1.407-1.406-3.314-2.196-5.304-2.196s-3.896,0.79-5.304,2.197l-18.385,18.386
		c-0.24,0.24-0.453,0.496-0.653,0.759c-0.264,0.2-0.52,0.414-0.761,0.654L179.133,283.575c-0.061,0.061-0.113,0.128-0.172,0.19
		c-0.966,0.902-1.711,2.065-2.097,3.431l-9.333,33.092c-0.736,2.613-0.004,5.42,1.915,7.34l6.151,6.151l-6.011,6.011
		c-2.929,2.93-2.929,7.678,0,10.607c1.465,1.464,3.385,2.196,5.304,2.196s3.839-0.732,5.304-2.196l6.011-6.011l5.303,5.303
		c1.424,1.424,3.339,2.196,5.304,2.196c0.606,0,1.217-0.073,1.819-0.224l33.941-8.484c1.475-0.369,2.734-1.154,3.692-2.195
		c0.048-0.045,0.099-0.084,0.146-0.131L399.682,177.58c1.229,1.208,2.232,2.58,2.404,3.807c0.232,1.647-1.335,3.607-2.689,4.962
		c-2.185,2.185-5.572,5.146-9.495,8.575c-16.797,14.686-39.801,34.798-40.436,53.743c-0.214,6.381,2.137,12.217,6.797,16.878
		c1.465,1.464,3.385,2.196,5.304,2.196c1.919,0,3.839-0.732,5.304-2.196c2.929-2.93,2.929-7.678,0-10.607
		c-1.744-1.743-2.488-3.523-2.413-5.769c0.417-12.439,23.12-32.288,35.317-42.952c4.126-3.606,7.688-6.722,10.229-9.262
		c6.867-6.868,7.554-13.451,6.921-17.764c-0.761-5.182-3.689-9.276-6.647-12.208l5.383-5.383
		C415.902,161.359,416.116,161.102,416.317,160.838z M383.486,100.435l36.064,36.062l-7.778,7.778l-36.064-36.062L383.486,100.435z
		 M365.102,118.82l36.064,36.062l-170.06,170.06l-36.063-36.063L365.102,118.82z M183.162,320.129l4.821-17.096l28.663,28.663
		l-17.534,4.384L183.162,320.129z"/>
	<path d="M327.625,209.759c1.919,0,3.839-0.732,5.304-2.196l48.084-48.084c2.929-2.93,2.929-7.678,0-10.607
		c-2.93-2.928-7.678-2.928-10.607,0l-48.084,48.084c-2.929,2.93-2.929,7.678,0,10.607
		C323.786,209.026,325.706,209.759,327.625,209.759z"/>
	<path d="M147.75,340.328H46.25c-4.143,0-7.5,3.357-7.5,7.5s3.357,7.5,7.5,7.5h101.5c4.143,0,7.5-3.357,7.5-7.5
		S151.893,340.328,147.75,340.328z"/>
	<path d="M23.5,340.328h-16c-4.143,0-7.5,3.357-7.5,7.5s3.357,7.5,7.5,7.5h16c4.143,0,7.5-3.357,7.5-7.5
		S27.643,340.328,23.5,340.328z"/>
</g>
<g>
</g>
<g>
</g>
<g>
</g>
<g>
</g>
<g>
</g>
<g>
</g>
<g>
</g>
<g>
</g>
<g>
</g>
<g>
</g>
<g>
</g>
<g>
</g>
<g>
</g>
<g>
</g>
<g>
</g>
</svg>
