<?xml version="1.0" encoding="iso-8859-1"?>
<!-- Generator: Adobe Illustrator 17.1.0, SVG Export Plug-In . SVG Version: 6.00 Build 0)  -->
<!DOCTYPE svg PUBLIC "-//W3C//DTD SVG 1.1//EN" "http://www.w3.org/Graphics/SVG/1.1/DTD/svg11.dtd">
<svg version="1.1" id="Capa_1" xmlns="http://www.w3.org/2000/svg" xmlns:xlink="http://www.w3.org/1999/xlink" x="0px" y="0px"
	 viewBox="0 0 431.683 431.683" style="enable-background:new 0 0 431.683 431.683;" xml:space="preserve">
<g>
	<path d="M278.707,416.683H162.545l35.38-73.018c0.022-0.046,0.038-0.093,0.059-0.139c0.064-0.14,0.124-0.281,0.18-0.426
		c0.037-0.095,0.072-0.19,0.104-0.286c0.045-0.131,0.085-0.263,0.123-0.396c0.032-0.116,0.063-0.232,0.089-0.349
		c0.026-0.114,0.049-0.228,0.069-0.344c0.025-0.139,0.047-0.278,0.064-0.418c0.012-0.098,0.022-0.197,0.03-0.296
		c0.013-0.157,0.021-0.313,0.024-0.47c0.001-0.049,0.007-0.097,0.007-0.147V63.058v-2.137V7.5c0-4.142-3.358-7.5-7.5-7.5h-81.2
		c-4.142,0-7.5,3.358-7.5,7.5v53.421v2.137v277.336c0,0.049,0.006,0.097,0.007,0.147c0.003,0.157,0.011,0.313,0.024,0.47
		c0.008,0.099,0.018,0.197,0.029,0.295c0.018,0.141,0.039,0.28,0.064,0.42c0.021,0.115,0.043,0.229,0.069,0.342
		c0.027,0.117,0.057,0.234,0.09,0.35c0.037,0.133,0.078,0.265,0.122,0.396c0.033,0.096,0.068,0.192,0.105,0.287
		c0.056,0.144,0.116,0.286,0.18,0.425c0.021,0.046,0.037,0.093,0.059,0.139l40.601,83.789c0.015,0.03,0.035,0.056,0.05,0.086
		c0.286,0.569,0.64,1.096,1.056,1.571c0.056,0.064,0.113,0.126,0.171,0.188c0.184,0.197,0.376,0.385,0.581,0.561
		c0.032,0.027,0.061,0.058,0.093,0.084c0.237,0.197,0.488,0.377,0.747,0.544c0.06,0.039,0.121,0.074,0.182,0.11
		c0.227,0.138,0.462,0.264,0.705,0.377c0.047,0.022,0.092,0.047,0.14,0.067c0.289,0.128,0.586,0.238,0.894,0.329
		c0.047,0.014,0.096,0.024,0.145,0.037c0.257,0.071,0.52,0.126,0.788,0.17c0.08,0.013,0.158,0.026,0.238,0.036
		c0.315,0.041,0.634,0.068,0.96,0.068h128.129c4.142,0,7.5-3.358,7.5-7.5C286.207,420.04,282.849,416.683,278.707,416.683z
		 M125.629,355.497l4.612-4.612l4.898,4.898c1.464,1.464,3.384,2.197,5.303,2.197c1.92,0,3.839-0.733,5.303-2.197l4.833-4.833
		l4.854,4.853c1.464,1.464,3.383,2.196,5.303,2.196s3.839-0.732,5.303-2.196l4.841-4.841l4.608,4.607l-8.736,18.031
		c-0.397-0.065-0.802-0.108-1.218-0.108h-29.915c-0.415,0-0.82,0.042-1.217,0.107L125.629,355.497z M165.565,335.065l-4.829,4.829
		l-4.83-4.829c-0.367-0.367-0.762-0.688-1.179-0.962c-2.914-1.941-6.885-1.627-9.455,0.943l-4.829,4.829l-4.829-4.829
		c-0.013-0.014-0.028-0.024-0.041-0.038c-0.01-0.01-0.018-0.021-0.028-0.031c-2.929-2.929-7.678-2.929-10.606,0l-4.829,4.829
		l-2.632-2.632V97.33h66.2v239.913l-2.65,2.65l-4.829-4.829c-1.469-1.468-3.395-2.2-5.32-2.195
		C168.955,332.867,167.032,333.599,165.565,335.065z M183.676,82.33h-66.2V68.421h66.2V82.33z M159.536,388.493l-8.959,18.49
		l-8.96-18.49H159.536z M183.676,15v38.421h-66.2V15H183.676z"/>
	<path d="M321.707,416.683h-18c-4.142,0-7.5,3.358-7.5,7.5c0,4.142,3.358,7.5,7.5,7.5h18c4.142,0,7.5-3.358,7.5-7.5
		C329.207,420.04,325.849,416.683,321.707,416.683z"/>
</g>
<g>
</g>
<g>
</g>
<g>
</g>
<g>
</g>
<g>
</g>
<g>
</g>
<g>
</g>
<g>
</g>
<g>
</g>
<g>
</g>
<g>
</g>
<g>
</g>
<g>
</g>
<g>
</g>
<g>
</g>
</svg>
