<?xml version="1.0" encoding="iso-8859-1"?>
<!-- Generator: Adobe Illustrator 17.1.0, SVG Export Plug-In . SVG Version: 6.00 Build 0)  -->
<!DOCTYPE svg PUBLIC "-//W3C//DTD SVG 1.1//EN" "http://www.w3.org/Graphics/SVG/1.1/DTD/svg11.dtd">
<svg version="1.1" id="Capa_1" xmlns="http://www.w3.org/2000/svg" xmlns:xlink="http://www.w3.org/1999/xlink" x="0px" y="0px"
	 viewBox="0 0 292.809 292.809" style="enable-background:new 0 0 292.809 292.809;" xml:space="preserve">
<g>
	<path d="M199.268,83.989L25.423,149.755c-2.381,0.9-4.143,2.948-4.679,5.438c-0.535,2.489,0.229,5.08,2.029,6.88l48.736,48.735
		L2.312,280.005c-2.929,2.93-2.929,7.678,0,10.607c1.464,1.464,3.384,2.196,5.303,2.196c1.919,0,3.839-0.732,5.303-2.196
		l69.198-69.197l48.735,48.735c1.421,1.421,3.335,2.196,5.303,2.196c0.525,0,1.053-0.055,1.577-0.168
		c2.489-0.535,4.537-2.297,5.438-4.679l65.767-173.843c1.044-2.759,0.374-5.872-1.711-7.958
		C205.14,83.617,202.025,82.944,199.268,83.989z M133.248,251.334L41.59,159.676l147.433-55.774L133.248,251.334z"/>
	<path d="M266.111,26.585c-2.928-2.93-7.677-2.929-10.606-0.001L226.87,55.218c-2.929,2.929-2.929,7.678,0,10.606
		c1.464,1.465,3.384,2.197,5.303,2.197c1.92,0,3.839-0.732,5.303-2.196l28.635-28.634C269.041,34.263,269.041,29.514,266.111,26.585
		z"/>
	<path d="M292.579,92.941c-0.719-4.08-4.606-6.805-8.688-6.084l-39.881,7.031c-4.079,0.719-6.803,4.608-6.084,8.688
		c0.642,3.64,3.806,6.199,7.377,6.199c0.432,0,0.871-0.037,1.311-0.115l39.881-7.031C290.574,100.91,293.298,97.02,292.579,92.941z"
		/>
	<path d="M190.119,54.769c0.441,0.078,0.879,0.115,1.312,0.115c3.571,0,6.735-2.56,7.377-6.198l7.033-39.881
		c0.719-4.079-2.004-7.97-6.083-8.688c-4.079-0.725-7.969,2.003-8.689,6.083l-7.033,39.881
		C183.316,50.16,186.04,54.05,190.119,54.769z"/>
</g>
<g>
</g>
<g>
</g>
<g>
</g>
<g>
</g>
<g>
</g>
<g>
</g>
<g>
</g>
<g>
</g>
<g>
</g>
<g>
</g>
<g>
</g>
<g>
</g>
<g>
</g>
<g>
</g>
<g>
</g>
</svg>
