<?xml version="1.0" encoding="iso-8859-1"?>
<!-- Generator: Adobe Illustrator 17.1.0, SVG Export Plug-In . SVG Version: 6.00 Build 0)  -->
<!DOCTYPE svg PUBLIC "-//W3C//DTD SVG 1.1//EN" "http://www.w3.org/Graphics/SVG/1.1/DTD/svg11.dtd">
<svg version="1.1" id="Capa_1" xmlns="http://www.w3.org/2000/svg" xmlns:xlink="http://www.w3.org/1999/xlink" x="0px" y="0px"
	 viewBox="0 0 442.679 442.679" style="enable-background:new 0 0 442.679 442.679;" xml:space="preserve">
<g>
	<path d="M393.339,90h-88.334V7.5c0-4.142-3.357-7.5-7.5-7.5H143.661c-4.142,0-7.5,3.358-7.5,7.5V90H49.339
		c-4.142,0-7.5,3.358-7.5,7.5v227c0,4.142,3.358,7.5,7.5,7.5h86.822v103.179c0,4.142,3.358,7.5,7.5,7.5h153.844
		c4.143,0,7.5-3.358,7.5-7.5V332h88.334c4.143,0,7.5-3.358,7.5-7.5v-227C400.839,93.358,397.482,90,393.339,90z M113.839,165h215v6
		h-215V165z M151.161,59h138.844v91H151.161V59z M328.839,105v45h-23.834v-45H328.839z M290.005,15v29H151.161V15H290.005z
		 M136.161,150h-22.322v-45h22.322V150z M113.839,317v-47h22.322v47H113.839z M151.161,427.679V270h138.844v157.679H151.161z
		 M305.005,270h23.834v47h-23.834V270z M385.839,317h-42v-54.5c0-4.142-3.357-7.5-7.5-7.5h-230c-4.142,0-7.5,3.358-7.5,7.5V317h-42
		V105h42v52.5v21c0,4.142,3.358,7.5,7.5,7.5h230c4.143,0,7.5-3.358,7.5-7.5v-21V105h42V317z"/>
	<circle cx="114.339" cy="218.5" r="8"/>
	<circle cx="154.339" cy="218.5" r="8"/>
	<circle cx="328.339" cy="218.5" r="8"/>
	<path d="M267.339,304h-93.513c-4.142,0-7.5,3.358-7.5,7.5v76.922c0,0.075,0.009,0.148,0.011,0.222
		c0.004,0.139,0.009,0.277,0.021,0.414c0.01,0.124,0.026,0.245,0.043,0.366c0.016,0.116,0.032,0.232,0.053,0.348
		c0.024,0.133,0.053,0.265,0.085,0.396c0.025,0.103,0.05,0.206,0.079,0.308c0.038,0.133,0.08,0.263,0.124,0.393
		c0.035,0.102,0.071,0.202,0.11,0.302c0.048,0.122,0.1,0.241,0.153,0.359c0.049,0.107,0.099,0.212,0.153,0.317
		c0.054,0.105,0.111,0.208,0.17,0.311c0.064,0.112,0.131,0.223,0.202,0.332c0.059,0.091,0.12,0.179,0.182,0.268
		c0.079,0.111,0.16,0.22,0.245,0.328c0.067,0.083,0.136,0.165,0.206,0.246c0.087,0.101,0.176,0.201,0.27,0.297
		c0.082,0.085,0.168,0.167,0.254,0.248c0.088,0.083,0.176,0.165,0.269,0.244c0.107,0.091,0.218,0.177,0.33,0.263
		c0.058,0.044,0.111,0.093,0.171,0.136c0.018,0.013,0.038,0.022,0.057,0.034c0.287,0.202,0.587,0.383,0.901,0.543
		c0.059,0.03,0.119,0.058,0.178,0.086c0.302,0.145,0.612,0.274,0.935,0.378c0.017,0.005,0.034,0.013,0.051,0.019
		c0.317,0.1,0.646,0.171,0.981,0.228c0.086,0.015,0.171,0.027,0.258,0.039c0.318,0.043,0.641,0.072,0.97,0.074
		c0.011,0,0.021,0.002,0.032,0.002c0.003,0,0.005,0,0.008,0h93.511c4.143,0,7.5-3.358,7.5-7.5V311.5
		C274.839,307.358,271.482,304,267.339,304z M259.839,319v50.129l-12.253-15.521c-1.423-1.802-3.592-2.852-5.887-2.852
		c-0.013,0-0.026,0-0.039,0c-2.309,0.012-4.483,1.087-5.895,2.914l-6.889,8.914l-16.463-23.691c-1.391-2.001-3.667-3.202-6.104-3.22
		c-2.447-0.003-4.73,1.15-6.15,3.131l-18.831,26.277V319H259.839z M241.62,380.922l-3.767-5.421l3.91-5.061l8.274,10.481H241.62z
		 M223.353,380.922h-34.924l17.731-24.742L223.353,380.922z"/>
</g>
<g>
</g>
<g>
</g>
<g>
</g>
<g>
</g>
<g>
</g>
<g>
</g>
<g>
</g>
<g>
</g>
<g>
</g>
<g>
</g>
<g>
</g>
<g>
</g>
<g>
</g>
<g>
</g>
<g>
</g>
</svg>
