<?xml version="1.0" encoding="iso-8859-1"?>
<!-- Generator: Adobe Illustrator 17.1.0, SVG Export Plug-In . SVG Version: 6.00 Build 0)  -->
<!DOCTYPE svg PUBLIC "-//W3C//DTD SVG 1.1//EN" "http://www.w3.org/Graphics/SVG/1.1/DTD/svg11.dtd">
<svg version="1.1" id="Capa_1" xmlns="http://www.w3.org/2000/svg" xmlns:xlink="http://www.w3.org/1999/xlink" x="0px" y="0px"
	 viewBox="0 0 332.113 332.113" style="enable-background:new 0 0 332.113 332.113;" xml:space="preserve">
<path d="M329.917,244.697c-2.929-2.929-7.678-2.929-10.607,0L301,263.007V177c0-73.612-59.888-133.5-133.5-133.5
	c-73.445,0-133.223,59.617-133.494,133H7.5c-4.142,0-7.5,3.358-7.5,7.5c0,4.142,3.358,7.5,7.5,7.5h68c4.142,0,7.5-3.358,7.5-7.5
	c0-4.142-3.358-7.5-7.5-7.5H49.006c0.271-65.112,53.319-118,118.494-118C232.841,58.5,286,111.659,286,177v86.007l-18.31-18.31
	c-2.929-2.929-7.678-2.929-10.606,0c-2.929,2.929-2.929,7.678,0,10.607l31.112,31.112c0.175,0.176,0.36,0.342,0.552,0.499
	c0.083,0.068,0.171,0.127,0.256,0.191c0.11,0.083,0.219,0.168,0.334,0.245c0.103,0.069,0.211,0.129,0.317,0.193
	c0.104,0.062,0.205,0.128,0.311,0.184c0.11,0.059,0.223,0.109,0.335,0.162c0.11,0.052,0.217,0.106,0.33,0.153
	c0.11,0.046,0.223,0.083,0.335,0.123c0.119,0.043,0.236,0.088,0.357,0.125c0.112,0.034,0.227,0.059,0.34,0.087
	c0.124,0.031,0.246,0.066,0.372,0.091c0.131,0.026,0.263,0.042,0.394,0.061c0.111,0.016,0.219,0.037,0.331,0.048
	c0.246,0.024,0.493,0.037,0.74,0.037c0.247,0,0.494-0.013,0.74-0.037c0.112-0.011,0.221-0.032,0.331-0.048
	c0.132-0.019,0.264-0.035,0.395-0.061c0.126-0.025,0.248-0.06,0.371-0.09c0.114-0.029,0.228-0.054,0.341-0.088
	c0.122-0.037,0.239-0.082,0.357-0.125c0.112-0.04,0.225-0.077,0.335-0.123c0.112-0.046,0.22-0.101,0.33-0.153
	c0.112-0.053,0.225-0.103,0.335-0.162c0.106-0.057,0.207-0.121,0.31-0.183c0.107-0.064,0.215-0.125,0.319-0.194
	c0.114-0.077,0.222-0.162,0.332-0.244c0.085-0.064,0.174-0.124,0.257-0.192c0.192-0.157,0.376-0.323,0.552-0.499l31.112-31.112
	C332.846,252.375,332.846,247.626,329.917,244.697z"/>
<g>
</g>
<g>
</g>
<g>
</g>
<g>
</g>
<g>
</g>
<g>
</g>
<g>
</g>
<g>
</g>
<g>
</g>
<g>
</g>
<g>
</g>
<g>
</g>
<g>
</g>
<g>
</g>
<g>
</g>
</svg>
