<?xml version="1.0" encoding="iso-8859-1"?>
<!-- Generator: Adobe Illustrator 17.1.0, SVG Export Plug-In . SVG Version: 6.00 Build 0)  -->
<!DOCTYPE svg PUBLIC "-//W3C//DTD SVG 1.1//EN" "http://www.w3.org/Graphics/SVG/1.1/DTD/svg11.dtd">
<svg version="1.1" id="Capa_1" xmlns="http://www.w3.org/2000/svg" xmlns:xlink="http://www.w3.org/1999/xlink" x="0px" y="0px"
	 viewBox="0 0 378 378" style="enable-background:new 0 0 378 378;" xml:space="preserve">
<g>
	<path d="M329,7.5c0-4.143-3.357-7.5-7.5-7.5h-265C52.357,0,49,3.357,49,7.5v363c0,4.143,3.357,7.5,7.5,7.5h183
		c0.019,0,0.035-0.002,0.054-0.003c0.23-0.001,0.458-0.012,0.687-0.034c0.162-0.016,0.32-0.045,0.479-0.07
		c0.081-0.014,0.163-0.022,0.244-0.037c0.185-0.037,0.364-0.085,0.544-0.135c0.055-0.016,0.109-0.026,0.164-0.043
		c0.181-0.055,0.356-0.12,0.531-0.188c0.053-0.021,0.106-0.037,0.159-0.059c0.167-0.068,0.327-0.147,0.487-0.228
		c0.06-0.03,0.121-0.056,0.18-0.087c0.147-0.079,0.29-0.168,0.432-0.256c0.067-0.042,0.137-0.079,0.203-0.123
		c0.136-0.091,0.264-0.191,0.393-0.29c0.066-0.051,0.135-0.097,0.2-0.15c0.157-0.13,0.308-0.269,0.454-0.41
		c0.03-0.029,0.063-0.054,0.093-0.084l82-82c0.003-0.003,0.005-0.007,0.009-0.01c0.232-0.233,0.443-0.487,0.645-0.749
		c0.046-0.06,0.092-0.12,0.136-0.182c0.19-0.267,0.369-0.543,0.524-0.834c0.011-0.021,0.02-0.041,0.029-0.063
		c0.144-0.274,0.268-0.561,0.377-0.855c0.021-0.06,0.045-0.118,0.065-0.178c0.107-0.314,0.199-0.634,0.265-0.964
		c0.003-0.012,0.004-0.023,0.006-0.034c0.059-0.302,0.094-0.611,0.115-0.924c0.006-0.088,0.01-0.174,0.013-0.262
		c0.003-0.084,0.013-0.166,0.013-0.25V7.5z M64,15h250v266h-74.5c-4.143,0-7.5,3.357-7.5,7.5V363H64V15z M247,352.394V296h56.394
		L247,352.394z"/>
	<path d="M259,253.5c4.143,0,7.5-3.357,7.5-7.5V91.143c14.871-3.416,26-16.75,26-32.643c0-18.472-15.028-33.5-33.5-33.5
		c-15.893,0-29.227,11.129-32.643,26H203c-4.143,0-7.5,3.357-7.5,7.5V246c0,4.143,3.357,7.5,7.5,7.5H259z M259,40
		c10.201,0,18.5,8.299,18.5,18.5S269.201,77,259,77s-18.5-8.299-18.5-18.5S248.799,40,259,40z M210.5,66h15.857
		c2.861,12.458,12.685,22.281,25.143,25.143V238.5h-41V66z"/>
	<path d="M254.669,66h8.662c4.143,0,7.5-3.357,7.5-7.5s-3.357-7.5-7.5-7.5h-8.662c-4.143,0-7.5,3.357-7.5,7.5S250.526,66,254.669,66
		z"/>
</g>
<g>
</g>
<g>
</g>
<g>
</g>
<g>
</g>
<g>
</g>
<g>
</g>
<g>
</g>
<g>
</g>
<g>
</g>
<g>
</g>
<g>
</g>
<g>
</g>
<g>
</g>
<g>
</g>
<g>
</g>
</svg>
