<?xml version="1.0" encoding="iso-8859-1"?>
<!-- Generator: Adobe Illustrator 17.1.0, SVG Export Plug-In . SVG Version: 6.00 Build 0)  -->
<!DOCTYPE svg PUBLIC "-//W3C//DTD SVG 1.1//EN" "http://www.w3.org/Graphics/SVG/1.1/DTD/svg11.dtd">
<svg version="1.1" id="Capa_1" xmlns="http://www.w3.org/2000/svg" xmlns:xlink="http://www.w3.org/1999/xlink" x="0px" y="0px"
	 viewBox="0 0 437 437" style="enable-background:new 0 0 437 437;" xml:space="preserve">
<g>
	<path d="M429.5,176.5H7.5c-4.143,0-7.5,3.358-7.5,7.5v69c0,4.142,3.357,7.5,7.5,7.5h422c4.143,0,7.5-3.358,7.5-7.5v-69
		C437,179.858,433.643,176.5,429.5,176.5z M422,245.5H15v-54h81v31c0,4.142,3.357,7.5,7.5,7.5s7.5-3.358,7.5-7.5v-31h30v14
		c0,4.142,3.357,7.5,7.5,7.5s7.5-3.358,7.5-7.5v-14h30v31c0,4.142,3.357,7.5,7.5,7.5s7.5-3.358,7.5-7.5v-31h30v14
		c0,4.142,3.357,7.5,7.5,7.5s7.5-3.358,7.5-7.5v-14h30v31c0,4.142,3.357,7.5,7.5,7.5s7.5-3.358,7.5-7.5v-31h30v14
		c0,4.142,3.357,7.5,7.5,7.5s7.5-3.358,7.5-7.5v-14h30v31c0,4.142,3.357,7.5,7.5,7.5s7.5-3.358,7.5-7.5v-31h41V245.5z"/>
	<circle cx="44.5" cy="218.5" r="8"/>
</g>
<g>
</g>
<g>
</g>
<g>
</g>
<g>
</g>
<g>
</g>
<g>
</g>
<g>
</g>
<g>
</g>
<g>
</g>
<g>
</g>
<g>
</g>
<g>
</g>
<g>
</g>
<g>
</g>
<g>
</g>
</svg>
