<?xml version="1.0" encoding="iso-8859-1"?>
<!-- Generator: Adobe Illustrator 17.1.0, SVG Export Plug-In . SVG Version: 6.00 Build 0)  -->
<!DOCTYPE svg PUBLIC "-//W3C//DTD SVG 1.1//EN" "http://www.w3.org/Graphics/SVG/1.1/DTD/svg11.dtd">
<svg version="1.1" id="Capa_1" xmlns="http://www.w3.org/2000/svg" xmlns:xlink="http://www.w3.org/1999/xlink" x="0px" y="0px"
	 viewBox="0 0 423.5 423.5" style="enable-background:new 0 0 423.5 423.5;" xml:space="preserve">
<g>
	<path d="M416,124.056c-8.601,0-16.353-3.699-21.754-9.588c-0.173-0.196-0.342-0.396-0.518-0.588
		c-4.512-5.187-7.252-11.952-7.252-19.35c0-4.143-3.358-7.5-7.5-7.5s-7.5,3.357-7.5,7.5c0,2.115,0.158,4.193,0.445,6.23
		c-3.533-0.906-7.234-1.389-11.045-1.389c-24.551,0-44.524,19.974-44.524,44.524c0,16.651,9.194,31.188,22.767,38.825
		l-57.031,22.449c-2.927-2.52-6.728-4.051-10.892-4.051c-4.477,0-8.533,1.77-11.534,4.634l-122.917-44.232
		c-3.897-1.407-8.194,0.62-9.597,4.518c-1.402,3.897,0.62,8.193,4.517,9.596L248.67,217.74l-117.024,42.473
		c-3.894,1.413-5.905,5.715-4.491,9.608c1.106,3.049,3.984,4.943,7.05,4.943c0.85,0,1.714-0.146,2.558-0.452l122.723-44.541
		c3.017,2.962,7.147,4.793,11.709,4.793c4.076,0,7.809-1.462,10.711-3.886l57.189,22.456c-13.56,7.64-22.743,22.169-22.743,38.811
		c0,24.551,19.974,44.524,44.524,44.524c24.551,0,44.524-19.974,44.524-44.524c0-22.633-16.978-41.36-38.864-44.151l-75.983-29.835
		l75.982-29.909c21.887-2.79,38.865-21.52,38.865-44.152c0-2.114-0.158-4.192-0.445-6.23c3.533,0.906,7.234,1.389,11.045,1.389
		c4.142,0,7.5-3.357,7.5-7.5C423.5,127.414,420.142,124.056,416,124.056z M390.399,291.945c0,16.28-13.244,29.524-29.524,29.524
		c-16.28,0-29.524-13.244-29.524-29.524c0-16.279,13.245-29.523,29.524-29.523C377.155,262.421,390.399,275.665,390.399,291.945z
		 M360.875,173.421c-16.28,0-29.524-13.244-29.524-29.524s13.245-29.524,29.524-29.524c8.599,0,16.348,3.697,21.749,9.582
		c0.176,0.2,0.349,0.403,0.528,0.6c4.508,5.186,7.247,11.948,7.247,19.343C390.399,160.177,377.155,173.421,360.875,173.421z"/>
	<path d="M134.205,225.342h30.443c4.142,0,7.5-3.357,7.5-7.5c0-4.143-3.358-7.5-7.5-7.5h-30.443c-4.142,0-7.5,3.357-7.5,7.5
		C126.705,221.985,130.063,225.342,134.205,225.342z"/>
	<path d="M101.294,210.342H70.852c-4.142,0-7.5,3.357-7.5,7.5c0,4.143,3.358,7.5,7.5,7.5h30.442c4.142,0,7.5-3.357,7.5-7.5
		C108.794,213.7,105.437,210.342,101.294,210.342z"/>
	<path d="M37.942,210.342H7.5c-4.142,0-7.5,3.357-7.5,7.5c0,4.143,3.358,7.5,7.5,7.5h30.442c4.142,0,7.5-3.357,7.5-7.5
		C45.442,213.7,42.084,210.342,37.942,210.342z"/>
</g>
<g>
</g>
<g>
</g>
<g>
</g>
<g>
</g>
<g>
</g>
<g>
</g>
<g>
</g>
<g>
</g>
<g>
</g>
<g>
</g>
<g>
</g>
<g>
</g>
<g>
</g>
<g>
</g>
<g>
</g>
</svg>
