<?xml version="1.0" encoding="iso-8859-1"?>
<!-- Generator: Adobe Illustrator 17.1.0, SVG Export Plug-In . SVG Version: 6.00 Build 0)  -->
<!DOCTYPE svg PUBLIC "-//W3C//DTD SVG 1.1//EN" "http://www.w3.org/Graphics/SVG/1.1/DTD/svg11.dtd">
<svg version="1.1" id="Capa_1" xmlns="http://www.w3.org/2000/svg" xmlns:xlink="http://www.w3.org/1999/xlink" x="0px" y="0px"
	 viewBox="0 0 289 289" style="enable-background:new 0 0 289 289;" xml:space="preserve">
<path d="M281.5,137h-35.52V25.039c0-4.142-3.357-7.5-7.5-7.5c-4.143,0-7.5,3.358-7.5,7.5V137H58.02V25.039
	c0-4.142-3.357-7.5-7.5-7.5c-4.143,0-7.5,3.358-7.5,7.5V137H7.5c-4.143,0-7.5,3.358-7.5,7.5s3.357,7.5,7.5,7.5h35.52v17.98
	c0,55.956,45.524,101.481,101.48,101.481s101.48-45.524,101.48-101.481V152h35.52c4.143,0,7.5-3.358,7.5-7.5S285.643,137,281.5,137z
	 M230.98,169.98c0,47.686-38.795,86.481-86.48,86.481s-86.48-38.795-86.48-86.481V152H230.98V169.98z"/>
<g>
</g>
<g>
</g>
<g>
</g>
<g>
</g>
<g>
</g>
<g>
</g>
<g>
</g>
<g>
</g>
<g>
</g>
<g>
</g>
<g>
</g>
<g>
</g>
<g>
</g>
<g>
</g>
<g>
</g>
</svg>
