<?xml version="1.0" encoding="iso-8859-1"?>
<!-- Generator: Adobe Illustrator 17.1.0, SVG Export Plug-In . SVG Version: 6.00 Build 0)  -->
<!DOCTYPE svg PUBLIC "-//W3C//DTD SVG 1.1//EN" "http://www.w3.org/Graphics/SVG/1.1/DTD/svg11.dtd">
<svg version="1.1" id="Capa_1" xmlns="http://www.w3.org/2000/svg" xmlns:xlink="http://www.w3.org/1999/xlink" x="0px" y="0px"
	 viewBox="0 0 422.623 422.623" style="enable-background:new 0 0 422.623 422.623;" xml:space="preserve">
<g>
	<path d="M345.083,297.087c-0.014-0.093-0.026-0.187-0.042-0.278c-0.007-0.033-0.014-0.065-0.02-0.098
		c-1.366-7.361-11.326-9.971-22.035-11.655c-10.605-1.667-24.622-2.586-39.468-2.586c-14.845,0-28.861,0.918-39.466,2.586
		c-10.709,1.684-20.669,4.294-22.035,11.655c-0.007,0.033-0.014,0.065-0.021,0.098c-0.016,0.092-0.028,0.185-0.042,0.278
		c-0.062,0.387-0.103,0.78-0.103,1.184v108.332c0,8.738,10.67,11.621,22.2,13.434c10.603,1.667,24.619,2.585,39.466,2.585
		c14.848,0,28.864-0.918,39.468-2.585c11.53-1.814,22.2-4.696,22.2-13.434V298.272C345.185,297.868,345.144,297.474,345.083,297.087
		z M244.051,311.921c10.604,1.668,24.62,2.586,39.466,2.586c14.847,0,28.863-0.918,39.468-2.586
		c1.848-0.291,3.673-0.609,5.437-0.975c-5.539,19.589-23.566,33.991-44.904,33.991c-21.338,0-39.364-14.401-44.902-33.991
		C240.378,311.312,242.204,311.631,244.051,311.921z M283.517,407.623c-24.766,0-40.946-2.59-46.666-4.483v-64.625
		c11.316,13.105,28.033,21.423,46.666,21.423c18.634,0,35.35-8.319,46.668-21.424v64.626
		C324.464,405.033,308.284,407.623,283.517,407.623z"/>
	<path d="M145.096,103.235H84.938c-4.143,0-7.5,3.358-7.5,7.5v60.159c0,0.125,0.013,0.248,0.019,0.372
		c-0.006,0.123-0.019,0.246-0.019,0.371v60.159c0,0.126,0.013,0.247,0.019,0.371c-0.006,0.124-0.019,0.246-0.019,0.371v60.159
		c0,0.126,0.013,0.248,0.019,0.371c-0.006,0.124-0.019,0.246-0.019,0.372v60.159c0,0.126,0.013,0.248,0.019,0.371
		c-0.006,0.124-0.019,0.246-0.019,0.372V414.5c0,4.142,3.357,7.5,7.5,7.5h60.158c4.143,0,7.5-3.358,7.5-7.5v-60.159
		c0-0.125-0.013-0.248-0.019-0.372c0.006-0.124,0.019-0.246,0.019-0.371V293.44c0-0.125-0.013-0.247-0.019-0.372
		c0.006-0.124,0.019-0.246,0.019-0.371v-60.159c0-0.126-0.013-0.247-0.019-0.371c0.006-0.124,0.019-0.246,0.019-0.371v-60.159
		c0-0.126-0.013-0.248-0.019-0.371c0.006-0.124,0.019-0.246,0.019-0.372v-60.159C152.596,106.593,149.239,103.235,145.096,103.235z
		 M137.596,224.296H92.438v-45.159h45.158V224.296z M137.596,285.197H92.438v-45.159h45.158V285.197z M137.596,300.94v45.159H92.438
		V300.94H137.596z M92.438,118.235h45.158v45.159H92.438V118.235z M137.596,407H92.438v-45.159h45.158V407z"/>
	<path d="M276.017,45v177.698c-5.009,6.844-13.541,19.697-13.541,27.821c0,11.602,9.439,21.041,21.041,21.041
		c11.602,0,21.041-9.439,21.041-21.041c0-8.124-8.532-20.977-13.541-27.821V37.5c0-4.142-3.358-7.5-7.5-7.5H152.596V7.5
		c0-4.142-3.357-7.5-7.5-7.5H84.938c-4.143,0-7.5,3.358-7.5,7.5v60.159c0,4.142,3.357,7.5,7.5,7.5h60.158c4.143,0,7.5-3.358,7.5-7.5
		V45H276.017z M283.517,256.56c-3.331,0-6.041-2.71-6.042-5.998c0.117-1.862,2.616-6.769,6.045-12.201
		c3.425,5.423,5.921,10.318,6.038,12.158C289.558,253.851,286.848,256.56,283.517,256.56z M92.438,60.159V15h45.158v21.468
		c-0.047,0.338-0.079,0.681-0.079,1.032c0,0.351,0.032,0.693,0.079,1.032v21.627H92.438z"/>
</g>
<g>
</g>
<g>
</g>
<g>
</g>
<g>
</g>
<g>
</g>
<g>
</g>
<g>
</g>
<g>
</g>
<g>
</g>
<g>
</g>
<g>
</g>
<g>
</g>
<g>
</g>
<g>
</g>
<g>
</g>
</svg>
