<?xml version="1.0" encoding="iso-8859-1"?>
<!-- Generator: Adobe Illustrator 17.1.0, SVG Export Plug-In . SVG Version: 6.00 Build 0)  -->
<!DOCTYPE svg PUBLIC "-//W3C//DTD SVG 1.1//EN" "http://www.w3.org/Graphics/SVG/1.1/DTD/svg11.dtd">
<svg version="1.1" id="Capa_1" xmlns="http://www.w3.org/2000/svg" xmlns:xlink="http://www.w3.org/1999/xlink" x="0px" y="0px"
	 viewBox="0 0 388.229 388.229" style="enable-background:new 0 0 388.229 388.229;" xml:space="preserve">
<g>
	<path d="M380.729,59.829h-216.38c-4.142,0-7.5,3.357-7.5,7.5c0,4.143,3.358,7.5,7.5,7.5h216.38c4.142,0,7.5-3.357,7.5-7.5
		C388.229,63.187,384.871,59.829,380.729,59.829z"/>
	<path d="M164.349,138.222h141.999c4.142,0,7.5-3.357,7.5-7.5c0-4.143-3.358-7.5-7.5-7.5H164.349c-4.142,0-7.5,3.357-7.5,7.5
		C156.849,134.864,160.207,138.222,164.349,138.222z"/>
	<path d="M362.133,186.614H164.349c-4.142,0-7.5,3.357-7.5,7.5c0,4.143,3.358,7.5,7.5,7.5h197.784c4.142,0,7.5-3.357,7.5-7.5
		C369.633,189.972,366.275,186.614,362.133,186.614z"/>
	<path d="M343.538,250.007H164.349c-4.142,0-7.5,3.357-7.5,7.5c0,4.143,3.358,7.5,7.5,7.5h179.189c4.142,0,7.5-3.357,7.5-7.5
		C351.038,253.364,347.68,250.007,343.538,250.007z"/>
	<path d="M250.563,313.4h-86.214c-4.142,0-7.5,3.357-7.5,7.5c0,4.142,3.358,7.5,7.5,7.5h86.214c4.142,0,7.5-3.358,7.5-7.5
		C258.063,316.757,254.705,313.4,250.563,313.4z"/>
	<path d="M103.253,186.616H25.607l19.599-19.599c2.929-2.93,2.929-7.678,0-10.607c-2.929-2.928-7.678-2.928-10.606,0L2.197,188.813
		c-0.015,0.015-0.027,0.031-0.042,0.046c-0.157,0.16-0.309,0.324-0.451,0.498c-0.038,0.047-0.071,0.098-0.109,0.145
		c-0.114,0.146-0.227,0.292-0.33,0.446c-0.028,0.041-0.05,0.085-0.077,0.127c-0.105,0.164-0.209,0.331-0.301,0.503
		c-0.017,0.031-0.029,0.064-0.045,0.094c-0.097,0.187-0.188,0.376-0.27,0.57c-0.008,0.021-0.015,0.043-0.023,0.064
		c-0.083,0.204-0.159,0.412-0.224,0.625c-0.008,0.025-0.012,0.052-0.02,0.077c-0.061,0.208-0.116,0.417-0.159,0.632
		c-0.012,0.061-0.017,0.122-0.028,0.183c-0.031,0.181-0.063,0.36-0.082,0.546C0.013,193.615,0,193.865,0,194.116
		c0,0.251,0.013,0.501,0.038,0.748c0.019,0.186,0.05,0.365,0.082,0.546c0.011,0.061,0.016,0.122,0.028,0.183
		c0.043,0.215,0.098,0.424,0.159,0.632c0.008,0.025,0.012,0.052,0.02,0.077c0.064,0.212,0.141,0.419,0.223,0.623
		c0.009,0.021,0.015,0.045,0.024,0.066c0.081,0.194,0.172,0.383,0.269,0.569c0.016,0.03,0.029,0.064,0.045,0.095
		c0.093,0.172,0.196,0.339,0.301,0.503c0.027,0.042,0.049,0.086,0.077,0.127c0.103,0.154,0.216,0.3,0.33,0.446
		c0.038,0.047,0.07,0.098,0.109,0.145c0.142,0.174,0.294,0.338,0.451,0.498c0.015,0.015,0.027,0.031,0.042,0.046l32.402,32.4
		c1.464,1.464,3.384,2.196,5.303,2.196s3.839-0.732,5.303-2.197c2.929-2.929,2.929-7.678,0-10.606l-19.598-19.597h77.646
		c4.142,0,7.5-3.357,7.5-7.5C110.753,189.974,107.395,186.616,103.253,186.616z"/>
</g>
<g>
</g>
<g>
</g>
<g>
</g>
<g>
</g>
<g>
</g>
<g>
</g>
<g>
</g>
<g>
</g>
<g>
</g>
<g>
</g>
<g>
</g>
<g>
</g>
<g>
</g>
<g>
</g>
<g>
</g>
</svg>
