<?xml version="1.0" encoding="iso-8859-1"?>
<!-- Generator: Adobe Illustrator 17.1.0, SVG Export Plug-In . SVG Version: 6.00 Build 0)  -->
<!DOCTYPE svg PUBLIC "-//W3C//DTD SVG 1.1//EN" "http://www.w3.org/Graphics/SVG/1.1/DTD/svg11.dtd">
<svg version="1.1" id="Capa_1" xmlns="http://www.w3.org/2000/svg" xmlns:xlink="http://www.w3.org/1999/xlink" x="0px" y="0px"
	 viewBox="0 0 379.254 379.254" style="enable-background:new 0 0 379.254 379.254;" xml:space="preserve">
<g>
	<path d="M371.582,310.87V68.384c4.592-2.778,7.672-7.805,7.672-13.564c0-8.759-7.101-15.86-15.86-15.86
		c-6.046,0-11.299,3.384-13.975,8.36H29.834c-2.676-4.976-7.929-8.36-13.974-8.36C7.101,38.96,0,46.061,0,54.82
		c0,6.318,3.703,11.756,9.049,14.306v241.002C3.703,312.678,0,318.116,0,324.434c0,8.759,7.101,15.86,15.86,15.86
		c6.317,0,11.756-3.704,14.306-9.05h318.919c2.551,5.346,7.989,9.05,14.308,9.05c8.76,0,15.86-7.101,15.86-15.86
		C379.254,318.675,376.174,313.648,371.582,310.87z M349.83,316.244H29.423c-1.331-2.198-3.175-4.043-5.374-5.373V68.383
		c2.428-1.469,4.437-3.557,5.785-6.063h319.585c1.595,2.966,4.113,5.352,7.163,6.806v241.002
		C353.775,311.467,351.431,313.6,349.83,316.244z"/>
	<path d="M61.025,114.702c4.142,0,7.5-3.358,7.5-7.5v-4.05h19.65v80.499h-1.233c-4.142,0-7.5,3.358-7.5,7.5
		c0,4.142,3.358,7.5,7.5,7.5h17.466c4.142,0,7.5-3.358,7.5-7.5c0-4.142-3.358-7.5-7.5-7.5h-1.233v-80.499h19.65v4.05
		c0,4.142,3.358,7.5,7.5,7.5c4.142,0,7.5-3.358,7.5-7.5v-11.55c0-4.142-3.358-7.5-7.5-7.5h-69.3c-4.142,0-7.5,3.358-7.5,7.5v11.55
		C53.525,111.344,56.883,114.702,61.025,114.702z"/>
	<path d="M163.255,193.448c-4.142,0-7.5,3.358-7.5,7.5c0,4.142,3.358,7.5,7.5,7.5h21.024c4.142,0,7.5-3.358,7.5-7.5
		c0-4.142-3.358-7.5-7.5-7.5h-3.013V92.66h3.013c4.142,0,7.5-3.358,7.5-7.5c0-4.142-3.358-7.5-7.5-7.5h-21.024
		c-4.142,0-7.5,3.358-7.5,7.5c0,4.142,3.358,7.5,7.5,7.5h3.012v100.789H163.255z"/>
	<path d="M315.814,112.482h-87.572c-4.143,0-7.5,3.358-7.5,7.5c0,4.142,3.357,7.5,7.5,7.5h87.572c4.143,0,7.5-3.358,7.5-7.5
		C323.314,115.84,319.956,112.482,315.814,112.482z"/>
	<path d="M315.814,151.097h-87.572c-4.143,0-7.5,3.358-7.5,7.5s3.357,7.5,7.5,7.5h87.572c4.143,0,7.5-3.358,7.5-7.5
		S319.956,151.097,315.814,151.097z"/>
	<path d="M315.814,235.222H61.025c-4.142,0-7.5,3.358-7.5,7.5c0,4.142,3.358,7.5,7.5,7.5h254.788c4.143,0,7.5-3.358,7.5-7.5
		C323.314,238.58,319.956,235.222,315.814,235.222z"/>
	<path d="M315.814,273.837H61.025c-4.142,0-7.5,3.358-7.5,7.5c0,4.142,3.358,7.5,7.5,7.5h254.788c4.143,0,7.5-3.358,7.5-7.5
		C323.314,277.195,319.956,273.837,315.814,273.837z"/>
</g>
<g>
</g>
<g>
</g>
<g>
</g>
<g>
</g>
<g>
</g>
<g>
</g>
<g>
</g>
<g>
</g>
<g>
</g>
<g>
</g>
<g>
</g>
<g>
</g>
<g>
</g>
<g>
</g>
<g>
</g>
</svg>
