<?xml version="1.0" encoding="iso-8859-1"?>
<!-- Generator: Adobe Illustrator 17.1.0, SVG Export Plug-In . SVG Version: 6.00 Build 0)  -->
<!DOCTYPE svg PUBLIC "-//W3C//DTD SVG 1.1//EN" "http://www.w3.org/Graphics/SVG/1.1/DTD/svg11.dtd">
<svg version="1.1" id="Capa_1" xmlns="http://www.w3.org/2000/svg" xmlns:xlink="http://www.w3.org/1999/xlink" x="0px" y="0px"
	 viewBox="0 0 388.229 388.229" style="enable-background:new 0 0 388.229 388.229;" xml:space="preserve">
<g>
	<path d="M380.729,59.829h-216.38c-4.143,0-7.5,3.357-7.5,7.5c0,4.143,3.357,7.5,7.5,7.5h216.38c4.142,0,7.5-3.357,7.5-7.5
		C388.229,63.187,384.871,59.829,380.729,59.829z"/>
	<path d="M164.349,138.222h141.999c4.143,0,7.5-3.357,7.5-7.5c0-4.143-3.357-7.5-7.5-7.5H164.349c-4.143,0-7.5,3.357-7.5,7.5
		C156.849,134.864,160.206,138.222,164.349,138.222z"/>
	<path d="M362.133,186.614H164.349c-4.143,0-7.5,3.357-7.5,7.5c0,4.143,3.357,7.5,7.5,7.5h197.784c4.142,0,7.5-3.357,7.5-7.5
		C369.633,189.972,366.275,186.614,362.133,186.614z"/>
	<path d="M343.538,250.007H164.349c-4.143,0-7.5,3.357-7.5,7.5c0,4.143,3.357,7.5,7.5,7.5h179.189c4.143,0,7.5-3.357,7.5-7.5
		C351.038,253.364,347.681,250.007,343.538,250.007z"/>
	<path d="M250.563,313.4h-86.214c-4.143,0-7.5,3.357-7.5,7.5c0,4.142,3.357,7.5,7.5,7.5h86.214c4.143,0,7.5-3.358,7.5-7.5
		C258.063,316.757,254.705,313.4,250.563,313.4z"/>
	<path d="M109.169,198.713c0.109-0.141,0.219-0.28,0.317-0.429c0.03-0.045,0.056-0.093,0.084-0.139
		c0.104-0.161,0.204-0.323,0.295-0.492c0.017-0.031,0.029-0.063,0.045-0.094c0.097-0.187,0.188-0.376,0.271-0.571
		c0.008-0.018,0.014-0.039,0.021-0.059c0.083-0.206,0.16-0.415,0.226-0.631c0.007-0.021,0.011-0.045,0.017-0.066
		c0.063-0.211,0.118-0.424,0.162-0.642c0.012-0.061,0.017-0.123,0.027-0.184c0.031-0.18,0.064-0.36,0.081-0.544
		c0.025-0.248,0.038-0.498,0.038-0.749c0-0.251-0.013-0.501-0.038-0.749c-0.019-0.188-0.051-0.373-0.083-0.558
		c-0.01-0.057-0.015-0.113-0.025-0.169c-0.044-0.219-0.1-0.433-0.162-0.644c-0.006-0.021-0.01-0.044-0.017-0.065
		c-0.067-0.222-0.146-0.437-0.232-0.648c-0.005-0.013-0.009-0.026-0.015-0.04c-0.085-0.204-0.181-0.402-0.282-0.598
		c-0.012-0.021-0.021-0.044-0.032-0.065c-0.099-0.185-0.208-0.363-0.322-0.538c-0.02-0.031-0.035-0.063-0.056-0.093
		c-0.119-0.178-0.248-0.349-0.382-0.516c-0.02-0.024-0.035-0.05-0.056-0.074c-0.157-0.192-0.324-0.376-0.5-0.552L76.153,156.41
		c-2.928-2.928-7.677-2.929-10.606,0.001c-2.929,2.929-2.929,7.678,0.001,10.606l19.598,19.597H7.5c-4.142,0-7.5,3.357-7.5,7.5
		c0,4.143,3.358,7.5,7.5,7.5h77.646l-19.6,19.599c-2.929,2.93-2.929,7.678,0,10.607c1.465,1.464,3.385,2.196,5.304,2.196
		c1.919,0,3.839-0.732,5.304-2.196l32.402-32.402c0.039-0.039,0.072-0.082,0.11-0.122c0.131-0.137,0.261-0.274,0.381-0.421
		C109.091,198.823,109.128,198.767,109.169,198.713z"/>
</g>
<g>
</g>
<g>
</g>
<g>
</g>
<g>
</g>
<g>
</g>
<g>
</g>
<g>
</g>
<g>
</g>
<g>
</g>
<g>
</g>
<g>
</g>
<g>
</g>
<g>
</g>
<g>
</g>
<g>
</g>
</svg>
