<?xml version="1.0" encoding="iso-8859-1"?>
<!-- Generator: Adobe Illustrator 17.1.0, SVG Export Plug-In . SVG Version: 6.00 Build 0)  -->
<!DOCTYPE svg PUBLIC "-//W3C//DTD SVG 1.1//EN" "http://www.w3.org/Graphics/SVG/1.1/DTD/svg11.dtd">
<svg version="1.1" id="Capa_1" xmlns="http://www.w3.org/2000/svg" xmlns:xlink="http://www.w3.org/1999/xlink" x="0px" y="0px"
	 viewBox="0 0 333.725 333.725" style="enable-background:new 0 0 333.725 333.725;" xml:space="preserve">
<g>
	<path d="M68.773,47.696c4.142,0,7.5-3.358,7.5-7.5V15h83.089v255.342h-17.222c-4.142,0-7.5,3.358-7.5,7.5s3.358,7.5,7.5,7.5h49.443
		c4.143,0,7.5-3.358,7.5-7.5s-3.357-7.5-7.5-7.5h-17.222V15h83.089v25.196c0,4.142,3.357,7.5,7.5,7.5c4.142,0,7.5-3.358,7.5-7.5V7.5
		c0-4.142-3.358-7.5-7.5-7.5H68.773c-4.142,0-7.5,3.358-7.5,7.5v32.696C61.273,44.338,64.631,47.696,68.773,47.696z"/>
	<path d="M292.862,318.725h-252c-4.142,0-7.5,3.358-7.5,7.5c0,4.142,3.358,7.5,7.5,7.5h252c4.143,0,7.5-3.358,7.5-7.5
		C300.362,322.082,297.005,318.725,292.862,318.725z"/>
</g>
<g>
</g>
<g>
</g>
<g>
</g>
<g>
</g>
<g>
</g>
<g>
</g>
<g>
</g>
<g>
</g>
<g>
</g>
<g>
</g>
<g>
</g>
<g>
</g>
<g>
</g>
<g>
</g>
<g>
</g>
</svg>
