<?xml version="1.0" encoding="iso-8859-1"?>
<!-- Generator: Adobe Illustrator 17.1.0, SVG Export Plug-In . SVG Version: 6.00 Build 0)  -->
<!DOCTYPE svg PUBLIC "-//W3C//DTD SVG 1.1//EN" "http://www.w3.org/Graphics/SVG/1.1/DTD/svg11.dtd">
<svg version="1.1" id="Capa_1" xmlns="http://www.w3.org/2000/svg" xmlns:xlink="http://www.w3.org/1999/xlink" x="0px" y="0px"
	 viewBox="0 0 332.114 332.114" style="enable-background:new 0 0 332.114 332.114;" xml:space="preserve">
<path d="M324.614,176.5h-26.506c-0.272-73.383-60.049-133-133.494-133c-73.612,0-133.5,59.888-133.5,133.5v86.007l-18.31-18.31
	c-2.93-2.929-7.678-2.929-10.608,0c-2.929,2.929-2.929,7.678,0,10.606l31.113,31.113c0.01,0.01,0.021,0.018,0.03,0.027
	c0.166,0.165,0.339,0.321,0.52,0.47c0.084,0.069,0.173,0.129,0.26,0.194c0.109,0.082,0.217,0.167,0.331,0.243
	c0.103,0.069,0.208,0.128,0.313,0.19c0.106,0.064,0.208,0.129,0.316,0.188c0.107,0.057,0.218,0.105,0.328,0.158
	c0.111,0.053,0.222,0.109,0.337,0.156c0.107,0.044,0.217,0.081,0.326,0.12c0.121,0.044,0.241,0.09,0.366,0.128
	c0.109,0.033,0.221,0.058,0.332,0.085c0.126,0.032,0.251,0.067,0.379,0.092c0.129,0.026,0.26,0.041,0.389,0.06
	c0.112,0.016,0.223,0.038,0.336,0.049c0.246,0.024,0.493,0.037,0.74,0.037c0.247,0,0.494-0.013,0.74-0.037
	c0.113-0.011,0.224-0.033,0.336-0.049c0.129-0.019,0.26-0.034,0.389-0.06c0.128-0.025,0.253-0.061,0.379-0.092
	c0.111-0.028,0.223-0.052,0.332-0.085c0.125-0.038,0.245-0.084,0.367-0.128c0.108-0.039,0.218-0.075,0.325-0.119
	c0.115-0.048,0.226-0.104,0.338-0.157c0.109-0.052,0.22-0.1,0.327-0.157c0.108-0.058,0.211-0.124,0.317-0.188
	c0.105-0.063,0.211-0.122,0.313-0.19c0.114-0.076,0.222-0.161,0.331-0.243c0.087-0.065,0.176-0.125,0.26-0.194
	c0.181-0.148,0.354-0.305,0.52-0.47c0.01-0.01,0.021-0.018,0.03-0.027l31.113-31.113c2.929-2.929,2.929-7.678,0-10.606
	c-2.93-2.929-7.678-2.929-10.607,0l-18.31,18.31V177c0-65.341,53.159-118.5,118.5-118.5c65.174,0,118.223,52.888,118.494,118
	h-26.494c-4.143,0-7.5,3.358-7.5,7.5c0,4.142,3.357,7.5,7.5,7.5h68c4.143,0,7.5-3.358,7.5-7.5
	C332.114,179.858,328.756,176.5,324.614,176.5z"/>
<g>
</g>
<g>
</g>
<g>
</g>
<g>
</g>
<g>
</g>
<g>
</g>
<g>
</g>
<g>
</g>
<g>
</g>
<g>
</g>
<g>
</g>
<g>
</g>
<g>
</g>
<g>
</g>
<g>
</g>
</svg>
