<?xml version="1.0" encoding="iso-8859-1"?>
<!-- Generator: Adobe Illustrator 18.0.0, SVG Export Plug-In . SVG Version: 6.00 Build 0)  -->
<!DOCTYPE svg PUBLIC "-//W3C//DTD SVG 1.1//EN" "http://www.w3.org/Graphics/SVG/1.1/DTD/svg11.dtd">
<svg version="1.1" id="Capa_1" xmlns="http://www.w3.org/2000/svg" xmlns:xlink="http://www.w3.org/1999/xlink" x="0px" y="0px"
  viewBox="0 0 59.188 59.188" style="enable-background:new 0 0 59.188 59.188;" xml:space="preserve">
<path d="M48.671,18.843c-2.128-2.139-4.94-3.179-8.598-3.179c-2.151,0-4.558,0.347-7.573,1.093c-0.777,0.192-1.574,0.285-2.373,0.32
  C30,16.439,29.841,15.8,29.649,15.165l3.734-0.556c4.783-0.712,8.476-4.405,9.188-9.188L43.378,0l-5.421,0.807
  c-4.783,0.713-8.476,4.405-9.188,9.188l-0.325,2.183c-1.108-2.127-2.702-3.988-4.901-5.161c-0.489-0.261-1.093-0.075-1.354,0.412
  c-0.26,0.488-0.075,1.093,0.412,1.353c3.053,1.628,4.737,4.921,5.473,8.23c-0.467-0.059-0.931-0.141-1.387-0.254
  c-2.975-0.736-5.451-1.093-7.573-1.093c-3.657,0-6.471,1.04-8.599,3.179c-3.224,3.241-4.77,8.976-4.726,17.533
  c0.051,10.056,8.854,22.813,18.674,22.813c0.856,0,1.716-0.096,2.555-0.285c1.68-0.379,3.466-0.379,5.149,0
  c0.839,0.189,1.698,0.285,2.555,0.285c0.001,0,0,0,0.001,0c9.819,0,18.622-12.757,18.673-22.812
  C53.441,27.819,51.895,22.084,48.671,18.843z M19.79,22.188c-3.859,0-7,3.589-7,8c0,0.552-0.447,1-1,1s-1-0.448-1-1
  c0-5.514,4.037-10,9-10c0.553,0,1,0.448,1,1S20.343,22.188,19.79,22.188z M33.883,21.895c-1.189,1.189-2.77,1.845-4.449,1.845
  s-3.261-0.655-4.45-1.845c-0.391-0.39-0.391-1.023,0-1.414s1.023-0.391,1.414,0c0.812,0.812,1.891,1.259,3.036,1.259
  s2.224-0.447,3.035-1.259c0.391-0.391,1.023-0.391,1.414,0C34.273,20.871,34.273,21.504,33.883,21.895z"/>
<g>
</g>
<g>
</g>
<g>
</g>
<g>
</g>
<g>
</g>
<g>
</g>
<g>
</g>
<g>
</g>
<g>
</g>
<g>
</g>
<g>
</g>
<g>
</g>
<g>
</g>
<g>
</g>
<g>
</g>
</svg>
