<svg id="Layer_1" enable-background="new 0 0 511.525 511.525" height="512" viewBox="0 0 511.525 511.525" width="512" xmlns="http://www.w3.org/2000/svg"><path d="m375.876 261.169-29.851-32.169c-1.443-1.556-3.445-2.474-5.565-2.553-4.429-.141-5.147 1.58-19.471 14.871l-2.482-21.988c-2.46-25.899-20.398-47.686-44.738-55.46 3.721-6.352 3.383-11.608 3.383-16.676h11.863c4.418 0 8-3.582 8-8s-3.582-8-8-8h-11.863s-.144-5.335-.404-6.825l18.544-18.544c3.124-3.124 3.124-8.189 0-11.313-3.125-3.124-8.189-3.124-11.314 0l-15.157 15.157c-2.875-2.717-6.351-4.802-10.211-6.025v-22.202c0-4.418-3.582-8-8-8s-8 3.582-8 8v22.201c-3.605 1.142-6.877 3.036-9.636 5.494l-14.627-14.627c-3.124-3.125-8.189-3.124-11.313 0-3.125 3.124-3.125 8.189 0 11.313l17.613 17.613c-.378 1.78-.58 7.846-.58 7.846-.372-.053-20.102-.09-20.102-.09-4.418 0-8 3.582-8 8s3.582 8 8 8c0 0 19.73-.037 20.102-.09 0 4.942-.282 9.085 2.278 14.643-14.67 0-17.044.57-20.774-1.734-14.209-8.776-12.645-7.847-13.467-8.226l-6.867-65.908c-.458-4.395-4.384-7.583-8.786-7.128-4.395.458-7.586 4.392-7.128 8.786l7.436 71.36-11.503 10.044-3.131-103.18h23.021c9.417 0 11.043-13.56 1.879-15.769.677-6.744.805-13.961.805-14.068 0-14.314-7.709-27.668-20.118-34.849-2.479-1.435-5.535-1.435-8.014 0-12.409 7.181-20.118 20.535-20.118 34.849 0 .108.128 7.324.806 14.068-9.193 2.217-7.52 15.769 1.879 15.769h3.854c3.82 125.876 4.06 116.347 2.499 117.71-2.414 2.107-3.337 5.452-2.346 8.499 11.835 36.408 21.353 49.655 45.7 61.076l-15.574 202.715h-34.882c-4.418 0-8 3.582-8 8v39.762c0 4.418 3.582 8 8 8h218.192c4.418 0 8-3.582 8-8v-39.762c0-4.418-3.582-8-8-8h-34.786l-6.06-96.596 8.518-2.54c3.712-1.107 6.098-4.715 5.663-8.564l-3.245-28.747 45.945-47.12c2.973-3.049 3.032-7.899.133-11.023zm-135.81-132.217c0-5.813 4.73-10.543 10.543-10.543s10.543 4.729 10.543 10.543v22.252c0 5.813-4.729 10.543-10.543 10.543s-10.543-4.73-10.543-10.543zm53.466 267.331c0 2.775-1.438 5.353-3.801 6.81l-76.275 47.037c-3.761 2.319-8.69 1.15-11.009-2.61-2.319-3.761-1.15-8.689 2.61-11.009l72.475-44.693v-14.389c0-4.418 3.582-8 8-8s8 3.582 8 8zm-30.365-37.203 8.717-178.913c16.81 6.606 28.971 22.29 30.7 40.734.013.138 5.255 46.563 13.807 122.305z"/></svg> 
